<svg width="16" height="16" viewBox="0 0 16 16" fill="none" xmlns="http://www.w3.org/2000/svg">
<path d="M6.86667 13.9999C6.97826 14.2029 7.1423 14.3721 7.34166 14.49C7.54102 14.6079 7.76839 14.6701 8 14.6701C8.23161 14.6701 8.45898 14.6079 8.65834 14.49C8.8577 14.3721 9.02175 14.2029 9.13333 13.9999M4 5.33325C4 4.27239 4.42143 3.25497 5.17157 2.50482C5.92172 1.75468 6.93913 1.33325 8 1.33325C9.06087 1.33325 10.0783 1.75468 10.8284 2.50482C11.5786 3.25497 12 4.27239 12 5.33325C12 9.99992 14 11.3333 14 11.3333H2C2 11.3333 4 9.99992 4 5.33325Z" stroke="#27272A" stroke-width="1.5" stroke-linecap="round" stroke-linejoin="round"/>
</svg>
