<svg width="25" height="24" viewBox="0 0 25 24" fill="none" xmlns="http://www.w3.org/2000/svg">
<path d="M12.75 7.99995V20.9999M12.75 7.99995C12.3883 6.50935 11.7654 5.23501 10.9627 4.34311C10.16 3.45121 9.21469 2.98314 8.25 2.99995C7.58696 2.99995 6.95107 3.26334 6.48223 3.73218C6.01339 4.20102 5.75 4.83691 5.75 5.49995C5.75 6.16299 6.01339 6.79887 6.48223 7.26772C6.95107 7.73656 7.58696 7.99995 8.25 7.99995M12.75 7.99995C13.1117 6.50935 13.7346 5.23501 14.5373 4.34311C15.34 3.45121 16.2853 2.98314 17.25 2.99995C17.913 2.99995 18.5489 3.26334 19.0178 3.73218C19.4866 4.20102 19.75 4.83691 19.75 5.49995C19.75 6.16299 19.4866 6.79887 19.0178 7.26772C18.5489 7.73656 17.913 7.99995 17.25 7.99995M19.75 11.9999V18.9999C19.75 19.5304 19.5393 20.0391 19.1642 20.4142C18.7891 20.7892 18.2804 20.9999 17.75 20.9999H7.75C7.21957 20.9999 6.71086 20.7892 6.33579 20.4142C5.96071 20.0391 5.75 19.5304 5.75 18.9999V11.9999M4.75 7.99995H20.75C21.3023 7.99995 21.75 8.44766 21.75 8.99995V10.9999C21.75 11.5522 21.3023 11.9999 20.75 11.9999H4.75C4.19772 11.9999 3.75 11.5522 3.75 10.9999V8.99995C3.75 8.44766 4.19772 7.99995 4.75 7.99995Z" stroke="currentColor" stroke-width="2" stroke-linecap="round" stroke-linejoin="round"/>
</svg>
