<svg width="25" height="24" viewBox="0 0 25 24" fill="none" xmlns="http://www.w3.org/2000/svg">
<path d="M11.25 17L13.25 19C13.447 19.197 13.6808 19.3533 13.9382 19.4599C14.1956 19.5665 14.4714 19.6213 14.75 19.6213C15.0286 19.6213 15.3044 19.5665 15.5618 19.4599C15.8192 19.3533 16.053 19.197 16.25 19C16.447 18.803 16.6032 18.5692 16.7098 18.3118C16.8165 18.0544 16.8713 17.7786 16.8713 17.5C16.8713 17.2214 16.8165 16.9456 16.7098 16.6882C16.6032 16.4309 16.447 16.197 16.25 16M14.25 14L16.75 16.5C17.1478 16.8978 17.6874 17.1213 18.25 17.1213C18.8126 17.1213 19.3522 16.8978 19.75 16.5C20.1478 16.1022 20.3713 15.5626 20.3713 15C20.3713 14.4374 20.1478 13.8978 19.75 13.5L15.87 9.62002C15.3075 9.05821 14.545 8.74265 13.75 8.74265C12.955 8.74265 12.1925 9.05821 11.63 9.62002L10.75 10.5C10.3522 10.8978 9.81261 11.1213 9.25 11.1213C8.68739 11.1213 8.14782 10.8978 7.75 10.5C7.35218 10.1022 7.12868 9.56262 7.12868 9.00002C7.12868 8.43741 7.35218 7.89784 7.75 7.50002L10.56 4.69002C11.4722 3.78016 12.6619 3.20057 13.9406 3.04299C15.2194 2.88541 16.5142 3.15885 17.62 3.82002L18.09 4.10002C18.5158 4.357 19.022 4.44613 19.51 4.35002L21.25 4.00002M21.25 3.00002L22.25 14H20.25M3.25 3.00002L2.25 14L8.75 20.5C9.14782 20.8978 9.68739 21.1213 10.25 21.1213C10.8126 21.1213 11.3522 20.8978 11.75 20.5C12.1478 20.1022 12.3713 19.5626 12.3713 19C12.3713 18.4374 12.1478 17.8978 11.75 17.5M3.25 4.00002H11.25" stroke="currentColor" stroke-width="2" stroke-linecap="round" stroke-linejoin="round"/>
</svg>
