<svg width="390" height="156" viewBox="0 0 390 156" fill="none" xmlns="http://www.w3.org/2000/svg">
<rect width="390" height="156" fill="white"/>
<path d="M200.334 45.3337C200.334 45.3337 198.334 42.667 195 42.667C191.667 42.667 189.667 45.3337 189.667 45.3337M191 36.0003H191.014M199 36.0003H199.014M208.334 40.0003C208.334 47.3641 202.364 53.3337 195 53.3337C187.637 53.3337 181.667 47.3641 181.667 40.0003C181.667 32.6365 187.637 26.667 195 26.667C202.364 26.667 208.334 32.6365 208.334 40.0003Z" stroke="#D4D4D8" stroke-width="2" stroke-linecap="round" stroke-linejoin="round"/>
<path d="M81.2959 77.616C82.0532 77.616 82.7199 77.8347 83.2959 78.272C83.8825 78.6987 84.3412 79.312 84.6719 80.112C85.0132 80.9013 85.1839 81.8347 85.1839 82.912C85.1839 84 85.0132 84.944 84.6719 85.744C84.3412 86.5333 83.8825 87.1467 83.2959 87.584C82.7199 88.0107 82.0532 88.224 81.2959 88.224C80.5385 88.224 79.8665 88.0107 79.2799 87.584C78.6932 87.1467 78.2292 86.5333 77.8879 85.744C77.5572 84.944 77.3919 84 77.3919 82.912C77.3919 81.8347 77.5572 80.9013 77.8879 80.112C78.2292 79.312 78.6932 78.6987 79.2799 78.272C79.8665 77.8347 80.5385 77.616 81.2959 77.616ZM81.2959 79.552C80.9332 79.552 80.6079 79.68 80.3199 79.936C80.0425 80.192 79.8239 80.5707 79.6639 81.072C79.5145 81.5627 79.4399 82.176 79.4399 82.912C79.4399 83.6373 79.5145 84.256 79.6639 84.768C79.8239 85.2693 80.0425 85.648 80.3199 85.904C80.6079 86.16 80.9332 86.288 81.2959 86.288C81.6585 86.288 81.9785 86.16 82.2559 85.904C82.5332 85.648 82.7465 85.2693 82.8959 84.768C83.0559 84.256 83.1359 83.6373 83.1359 82.912C83.1359 82.176 83.0559 81.5627 82.8959 81.072C82.7465 80.5707 82.5332 80.192 82.2559 79.936C81.9785 79.68 81.6585 79.552 81.2959 79.552ZM86.7839 76.608H88.9279V91.424H86.7839V76.608ZM88.4639 82.192H91.0719V83.936H88.4639V82.192ZM95.6306 78.128H97.3906V79.056C97.3906 79.984 97.236 80.8693 96.9266 81.712C96.628 82.544 96.1693 83.2693 95.5506 83.888C94.932 84.5067 94.1426 84.9707 93.1826 85.28L92.0946 83.632C92.9266 83.3653 93.5986 82.992 94.1106 82.512C94.6333 82.0213 95.0173 81.4773 95.2626 80.88C95.508 80.272 95.6306 79.664 95.6306 79.056V78.128ZM96.0786 78.128H97.8066V79.056C97.8066 79.4933 97.876 79.9307 98.0146 80.368C98.1533 80.7947 98.3613 81.2 98.6386 81.584C98.9266 81.968 99.2893 82.3147 99.7266 82.624C100.164 82.9333 100.681 83.184 101.279 83.376L100.207 85.04C99.2786 84.7413 98.5106 84.2933 97.9026 83.696C97.2946 83.0987 96.836 82.4 96.5266 81.6C96.228 80.7893 96.0786 79.9413 96.0786 79.056V78.128ZM102.223 76.592H104.351V85.536H102.223V76.592ZM94.2546 86.192H104.351V91.424H102.223V87.872H94.2546V86.192ZM92.6706 77.472H100.735V79.152H92.6706V77.472ZM110.75 83.376H124.142V85.104H110.75V83.376ZM112.366 80.672H122.622V82.352H112.366V80.672ZM112.366 76.992H122.542V78.704H114.478V81.504H112.366V76.992ZM117.39 85.968C118.99 85.968 120.249 86.208 121.166 86.688C122.083 87.1573 122.542 87.8293 122.542 88.704C122.542 89.568 122.083 90.2347 121.166 90.704C120.249 91.184 118.99 91.424 117.39 91.424C115.79 91.424 114.531 91.184 113.614 90.704C112.707 90.2347 112.254 89.568 112.254 88.704C112.254 87.8293 112.707 87.1573 113.614 86.688C114.531 86.208 115.79 85.968 117.39 85.968ZM117.39 87.584C116.729 87.584 116.174 87.6267 115.726 87.712C115.289 87.7867 114.958 87.9093 114.734 88.08C114.51 88.24 114.398 88.448 114.398 88.704C114.398 88.9493 114.51 89.1573 114.734 89.328C114.958 89.488 115.289 89.6107 115.726 89.696C116.174 89.7707 116.729 89.808 117.39 89.808C118.051 89.808 118.601 89.7707 119.038 89.696C119.486 89.6107 119.822 89.488 120.046 89.328C120.27 89.1573 120.382 88.9493 120.382 88.704C120.382 88.448 120.27 88.24 120.046 88.08C119.822 87.9093 119.486 87.7867 119.038 87.712C118.601 87.6267 118.051 87.584 117.39 87.584ZM125.453 84.544H138.861V86.224H125.453V84.544ZM127.085 76.88H137.229V80.896H129.213V82.496H127.117V79.392H135.133V78.496H127.085V76.88ZM127.117 81.872H137.517V83.488H127.117V81.872ZM131.101 82.656H133.213V85.456H131.101V82.656ZM126.925 87.056H137.325V91.376H135.197V88.752H126.925V87.056ZM141.452 81.136H148.716V82.816H141.452V81.136ZM143.996 82.224H146.14V85.056H143.996V82.224ZM141.452 77.504H148.636V79.184H143.58V81.84H141.452V77.504ZM150.38 76.592H152.508V87.744H150.38V76.592ZM142.476 89.456H152.908V91.168H142.476V89.456ZM142.476 86.96H144.62V90.112H142.476V86.96ZM140.492 86.064L140.236 84.384C141.174 84.384 142.166 84.3787 143.212 84.368C144.257 84.3467 145.313 84.3147 146.38 84.272C147.457 84.2187 148.492 84.144 149.484 84.048L149.644 85.568C148.609 85.7173 147.558 85.8293 146.492 85.904C145.436 85.968 144.401 86.0107 143.388 86.032C142.374 86.0533 141.409 86.064 140.492 86.064ZM169.115 76.608H171.259V87.392H169.115V76.608ZM167.035 80.624H170.363V82.32H167.035V80.624ZM159.211 77.76H167.099V79.472H159.211V77.76ZM159.067 85.504L158.859 83.792C159.702 83.792 160.619 83.7867 161.611 83.776C162.614 83.7547 163.632 83.7173 164.667 83.664C165.702 83.6 166.683 83.5147 167.611 83.408L167.755 84.96C166.795 85.12 165.803 85.2427 164.779 85.328C163.766 85.4027 162.768 85.4507 161.787 85.472C160.806 85.4933 159.899 85.504 159.067 85.504ZM160.395 79.152H162.443V84.112H160.395V79.152ZM163.883 79.152H165.931V84.112H163.883V79.152ZM161.467 89.456H171.579V91.168H161.467V89.456ZM161.467 86.512H163.595V90.608H161.467V86.512ZM183.754 76.592H185.882V85.44H183.754V76.592ZM174.41 82.864H175.69C176.778 82.864 177.717 82.8533 178.506 82.832C179.306 82.8107 180.026 82.768 180.666 82.704C181.317 82.6293 181.962 82.528 182.602 82.4L182.81 84.096C182.159 84.224 181.498 84.3253 180.826 84.4C180.154 84.464 179.407 84.5067 178.586 84.528C177.775 84.5493 176.81 84.56 175.69 84.56H174.41V82.864ZM174.41 77.696H181.434V79.408H176.522V83.824H174.41V77.696ZM180.874 85.6C181.919 85.6 182.815 85.7173 183.562 85.952C184.319 86.176 184.906 86.5067 185.322 86.944C185.738 87.3813 185.946 87.904 185.946 88.512C185.946 89.12 185.738 89.6427 185.322 90.08C184.906 90.528 184.319 90.864 183.562 91.088C182.815 91.3227 181.919 91.44 180.874 91.44C179.839 91.44 178.938 91.3227 178.17 91.088C177.413 90.864 176.826 90.528 176.41 90.08C176.005 89.6427 175.802 89.12 175.802 88.512C175.802 87.904 176.005 87.3813 176.41 86.944C176.826 86.5067 177.413 86.176 178.17 85.952C178.938 85.7173 179.839 85.6 180.874 85.6ZM180.874 87.248C180.234 87.248 179.69 87.296 179.242 87.392C178.805 87.4773 178.474 87.616 178.25 87.808C178.037 87.9893 177.93 88.224 177.93 88.512C177.93 88.8 178.037 89.04 178.25 89.232C178.474 89.424 178.805 89.568 179.242 89.664C179.69 89.7493 180.234 89.792 180.874 89.792C181.514 89.792 182.053 89.7493 182.49 89.664C182.927 89.568 183.258 89.424 183.482 89.232C183.706 89.04 183.818 88.8 183.818 88.512C183.818 88.224 183.706 87.9893 183.482 87.808C183.258 87.616 182.927 87.4773 182.49 87.392C182.053 87.296 181.514 87.248 180.874 87.248ZM192.265 87.968H205.689V89.712H192.265V87.968ZM193.289 77.872H204.585V79.584H193.289V77.872ZM193.369 84.016H204.537V85.712H193.369V84.016ZM195.305 79.456H197.433V84.176H195.305V79.456ZM200.441 79.456H202.569V84.176H200.441V79.456ZM206.984 88.064H220.408V89.792H206.984V88.064ZM212.616 85.248H214.728V88.752H212.616V85.248ZM208.504 77.552H218.888V82.496H210.632V84.976H208.52V80.832H216.776V79.248H208.504V77.552ZM208.52 84.144H219.224V85.84H208.52V84.144ZM227.831 80.256H230.135V81.968H227.831V80.256ZM229.399 76.88H231.399V85.568H229.399V76.88ZM224.295 78.832H225.959V79.76C225.959 80.5813 225.842 81.376 225.607 82.144C225.383 82.9013 225.02 83.5733 224.519 84.16C224.028 84.7467 223.383 85.2 222.583 85.52L221.495 83.888C222.167 83.6213 222.706 83.2693 223.111 82.832C223.527 82.3947 223.826 81.9147 224.007 81.392C224.199 80.8587 224.295 80.3147 224.295 79.76V78.832ZM224.711 78.832H226.359V79.76C226.359 80.2827 226.444 80.7947 226.615 81.296C226.796 81.7973 227.079 82.2507 227.463 82.656C227.858 83.0507 228.364 83.3707 228.983 83.616L227.943 85.264C227.164 84.9547 226.535 84.5227 226.055 83.968C225.586 83.4133 225.244 82.7733 225.031 82.048C224.818 81.3227 224.711 80.56 224.711 79.76V78.832ZM221.959 77.648H228.519V79.36H221.959V77.648ZM232.295 76.608H234.327V85.632H232.295V76.608ZM224.135 86.176H234.327V91.424H232.199V87.872H224.135V86.176ZM237.99 84.224H248.406V85.904H237.99V84.224ZM236.422 88H249.846V89.728H236.422V88ZM237.99 77.68H248.294V79.376H240.15V84.688H237.99V77.68ZM239.494 80.944H247.958V82.592H239.494V80.944ZM260.596 76.576H262.74V91.392H260.596V76.576ZM262.196 82.256H264.804V84H262.196V82.256ZM256.708 78.112H258.804C258.804 79.5947 258.591 80.9973 258.164 82.32C257.748 83.6427 257.055 84.8587 256.084 85.968C255.124 87.0667 253.823 88.0267 252.18 88.848L250.98 87.232C252.282 86.56 253.354 85.8027 254.196 84.96C255.05 84.1173 255.679 83.1627 256.084 82.096C256.5 81.0187 256.708 79.8187 256.708 78.496V78.112ZM251.796 78.112H257.812V79.824H251.796V78.112ZM271.444 85.28H273.428V86.736H274.9V85.28H276.852V91.264H271.444V85.28ZM273.428 88.272V89.664H274.9V88.272H273.428ZM279.156 85.152H280.756V86.256C280.756 86.9813 280.655 87.6853 280.452 88.368C280.249 89.04 279.919 89.6373 279.46 90.16C279.012 90.6933 278.42 91.104 277.684 91.392L276.644 89.808C277.241 89.5627 277.721 89.2533 278.084 88.88C278.457 88.496 278.729 88.08 278.9 87.632C279.071 87.1733 279.156 86.7147 279.156 86.256V85.152ZM279.636 85.152H281.268V86.256C281.268 86.768 281.348 87.2587 281.508 87.728C281.679 88.1867 281.945 88.5973 282.308 88.96C282.681 89.3227 283.167 89.6053 283.764 89.808L282.708 91.392C281.961 91.1253 281.364 90.736 280.916 90.224C280.468 89.712 280.143 89.12 279.94 88.448C279.737 87.7653 279.636 87.0347 279.636 86.256V85.152ZM277.316 79.776H281.028V81.488H277.316V79.776ZM273.908 77.152C274.655 77.152 275.321 77.3013 275.908 77.6C276.505 77.8987 276.975 78.3093 277.316 78.832C277.657 79.3547 277.828 79.9573 277.828 80.64C277.828 81.3227 277.657 81.9307 277.316 82.464C276.975 82.9867 276.505 83.3973 275.908 83.696C275.321 83.9947 274.655 84.144 273.908 84.144C273.172 84.144 272.505 83.9947 271.908 83.696C271.321 83.3973 270.857 82.9867 270.516 82.464C270.175 81.9307 270.004 81.3227 270.004 80.64C270.004 79.9573 270.175 79.3547 270.516 78.832C270.857 78.3093 271.321 77.8987 271.908 77.6C272.505 77.3013 273.172 77.152 273.908 77.152ZM273.908 78.896C273.545 78.896 273.22 78.9653 272.932 79.104C272.655 79.2427 272.436 79.4453 272.276 79.712C272.116 79.968 272.036 80.2773 272.036 80.64C272.036 81.0027 272.116 81.3173 272.276 81.584C272.436 81.8507 272.655 82.0533 272.932 82.192C273.22 82.3307 273.545 82.4 273.908 82.4C274.271 82.4 274.591 82.3307 274.868 82.192C275.156 82.0533 275.38 81.8507 275.54 81.584C275.7 81.3173 275.78 81.0027 275.78 80.64C275.78 80.2773 275.7 79.968 275.54 79.712C275.38 79.4453 275.156 79.2427 274.868 79.104C274.591 78.9653 274.271 78.896 273.908 78.896ZM280.084 76.608H282.228V84.448H280.084V76.608ZM288.595 77.616C289.331 77.616 289.987 77.8347 290.563 78.272C291.149 78.6987 291.603 79.312 291.923 80.112C292.253 80.9013 292.419 81.8347 292.419 82.912C292.419 84 292.253 84.944 291.923 85.744C291.603 86.5333 291.149 87.1467 290.563 87.584C289.987 88.0107 289.331 88.224 288.595 88.224C287.859 88.224 287.203 88.0107 286.627 87.584C286.051 87.1467 285.597 86.5333 285.267 85.744C284.936 84.944 284.771 84 284.771 82.912C284.771 81.8347 284.936 80.9013 285.267 80.112C285.597 79.312 286.051 78.6987 286.627 78.272C287.203 77.8347 287.859 77.616 288.595 77.616ZM288.595 79.552C288.243 79.552 287.928 79.68 287.651 79.936C287.384 80.192 287.176 80.5707 287.027 81.072C286.877 81.5627 286.803 82.176 286.803 82.912C286.803 83.6373 286.877 84.256 287.027 84.768C287.176 85.2693 287.384 85.648 287.651 85.904C287.928 86.16 288.243 86.288 288.595 86.288C288.968 86.288 289.288 86.16 289.555 85.904C289.821 85.648 290.029 85.2693 290.179 84.768C290.328 84.256 290.403 83.6373 290.403 82.912C290.403 82.176 290.328 81.5627 290.179 81.072C290.029 80.5707 289.821 80.192 289.555 79.936C289.288 79.68 288.968 79.552 288.595 79.552ZM294.851 76.576H296.979V91.44H294.851V76.576ZM291.795 81.936H295.747V83.632H291.795V81.936ZM302.209 84.128H304.337V88.272H302.209V84.128ZM307.585 84.128H309.713V88.272H307.585V84.128ZM299.265 87.968H312.689V89.696H299.265V87.968ZM305.953 77.328C307.02 77.328 307.969 77.4933 308.801 77.824C309.644 78.1547 310.3 78.6187 310.769 79.216C311.249 79.8027 311.489 80.5013 311.489 81.312C311.489 82.112 311.249 82.8107 310.769 83.408C310.3 83.9947 309.644 84.4533 308.801 84.784C307.969 85.1147 307.02 85.28 305.953 85.28C304.897 85.28 303.948 85.1147 303.105 84.784C302.273 84.4533 301.617 83.9947 301.137 83.408C300.657 82.8107 300.417 82.112 300.417 81.312C300.417 80.5013 300.657 79.8027 301.137 79.216C301.617 78.6187 302.273 78.1547 303.105 77.824C303.948 77.4933 304.897 77.328 305.953 77.328ZM305.953 78.976C305.271 78.976 304.668 79.072 304.145 79.264C303.633 79.4453 303.233 79.7067 302.945 80.048C302.657 80.3893 302.513 80.8107 302.513 81.312C302.513 81.792 302.657 82.208 302.945 82.56C303.233 82.9013 303.633 83.168 304.145 83.36C304.668 83.5413 305.271 83.632 305.953 83.632C306.647 83.632 307.249 83.5413 307.761 83.36C308.284 83.168 308.684 82.9013 308.961 82.56C309.249 82.208 309.393 81.792 309.393 81.312C309.393 80.8107 309.249 80.3893 308.961 80.048C308.684 79.7067 308.284 79.4453 307.761 79.264C307.249 79.072 306.647 78.976 305.953 78.976Z" fill="#27272A"/>
<path d="M62.0829 116.696H67.8929V124.872H62.0829V116.696ZM66.7449 117.62H63.2169V123.934H66.7449V117.62ZM70.1469 115.422H71.3089V128.092H70.1469V115.422ZM71.0429 120.476H73.3809V121.456H71.0429V120.476ZM80.1698 115.702C81.0845 115.702 81.8731 115.8 82.5358 115.996C83.2078 116.183 83.7211 116.453 84.0758 116.808C84.4398 117.163 84.6218 117.597 84.6218 118.11C84.6218 118.605 84.4398 119.034 84.0758 119.398C83.7211 119.753 83.2078 120.023 82.5358 120.21C81.8731 120.397 81.0845 120.49 80.1698 120.49C79.2645 120.49 78.4758 120.397 77.8038 120.21C77.1411 120.023 76.6278 119.753 76.2638 119.398C75.8998 119.034 75.7178 118.605 75.7178 118.11C75.7178 117.597 75.8998 117.163 76.2638 116.808C76.6278 116.453 77.1411 116.183 77.8038 115.996C78.4758 115.8 79.2645 115.702 80.1698 115.702ZM80.1698 116.626C79.5071 116.626 78.9285 116.687 78.4338 116.808C77.9485 116.92 77.5705 117.088 77.2998 117.312C77.0385 117.527 76.9078 117.793 76.9078 118.11C76.9078 118.409 77.0385 118.67 77.2998 118.894C77.5705 119.109 77.9485 119.277 78.4338 119.398C78.9285 119.51 79.5071 119.566 80.1698 119.566C80.8418 119.566 81.4205 119.51 81.9058 119.398C82.4005 119.277 82.7785 119.109 83.0398 118.894C83.3011 118.67 83.4318 118.409 83.4318 118.11C83.4318 117.793 83.3011 117.527 83.0398 117.312C82.7785 117.088 82.4005 116.92 81.9058 116.808C81.4205 116.687 80.8418 116.626 80.1698 116.626ZM75.8578 123.752H84.4958V127.924H75.8578V123.752ZM83.3618 124.69H76.9918V126.972H83.3618V124.69ZM74.4578 121.568H85.8958V122.52H74.4578V121.568ZM92.4747 120.35H94.8547V121.302H92.4747V120.35ZM96.9827 115.422H98.1027V128.092H96.9827V115.422ZM94.4627 115.688H95.5687V127.448H94.4627V115.688ZM90.1787 116.486C90.7294 116.486 91.2054 116.663 91.6067 117.018C92.0174 117.373 92.3347 117.881 92.5587 118.544C92.7827 119.207 92.8947 119.986 92.8947 120.882C92.8947 121.787 92.7827 122.571 92.5587 123.234C92.3347 123.897 92.0174 124.41 91.6067 124.774C91.2054 125.129 90.7294 125.306 90.1787 125.306C89.6467 125.306 89.1754 125.129 88.7647 124.774C88.3634 124.41 88.0507 123.897 87.8267 123.234C87.6027 122.571 87.4907 121.787 87.4907 120.882C87.4907 119.986 87.6027 119.207 87.8267 118.544C88.0507 117.881 88.3634 117.373 88.7647 117.018C89.1754 116.663 89.6467 116.486 90.1787 116.486ZM90.1787 117.564C89.8521 117.564 89.5674 117.699 89.3247 117.97C89.0821 118.241 88.8954 118.623 88.7647 119.118C88.6341 119.613 88.5687 120.201 88.5687 120.882C88.5687 121.563 88.6341 122.156 88.7647 122.66C88.8954 123.155 89.0821 123.537 89.3247 123.808C89.5674 124.079 89.8521 124.214 90.1787 124.214C90.5147 124.214 90.8041 124.079 91.0467 123.808C91.2987 123.537 91.4901 123.155 91.6207 122.66C91.7514 122.156 91.8167 121.563 91.8167 120.882C91.8167 120.201 91.7514 119.613 91.6207 119.118C91.4901 118.623 91.2987 118.241 91.0467 117.97C90.8041 117.699 90.5147 117.564 90.1787 117.564ZM105.609 121.498H114.303V122.45H105.609V121.498ZM104.153 125.404H115.633V126.37H104.153V125.404ZM105.609 116.598H114.177V117.55H106.757V121.918H105.609V116.598ZM118.572 119.23H127.182V120.168H118.572V119.23ZM117.018 121.862H128.498V122.814H117.018V121.862ZM118.572 115.884H119.72V119.706H118.572V115.884ZM118.488 126.832H127.252V127.784H118.488V126.832ZM118.488 124.088H119.65V127.084H118.488V124.088ZM143.48 115.422H144.586V128.092H143.48V115.422ZM138.86 119.972H141.296V120.924H138.86V119.972ZM140.946 115.716H142.038V127.434H140.946V115.716ZM136.438 117.396H137.334V119.006C137.334 119.697 137.269 120.373 137.138 121.036C137.008 121.689 136.816 122.305 136.564 122.884C136.312 123.453 136.004 123.971 135.64 124.438C135.276 124.895 134.866 125.269 134.408 125.558L133.694 124.69C134.282 124.335 134.777 123.859 135.178 123.262C135.589 122.665 135.902 121.997 136.116 121.26C136.331 120.523 136.438 119.771 136.438 119.006V117.396ZM136.676 117.396H137.558V119.006C137.558 119.734 137.661 120.448 137.866 121.148C138.081 121.848 138.384 122.483 138.776 123.052C139.178 123.612 139.668 124.06 140.246 124.396L139.546 125.264C138.93 124.881 138.408 124.373 137.978 123.738C137.558 123.094 137.236 122.366 137.012 121.554C136.788 120.733 136.676 119.883 136.676 119.006V117.396ZM134.044 116.906H139.826V117.858H134.044V116.906ZM155.393 115.422H156.555V124.746H155.393V115.422ZM156.191 119.272H158.417V120.238H156.191V119.272ZM148.673 126.86H157.115V127.812H148.673V126.86ZM148.673 123.794H149.821V127.238H148.673V123.794ZM150.255 116.318C150.89 116.318 151.455 116.453 151.949 116.724C152.444 116.985 152.836 117.349 153.125 117.816C153.415 118.283 153.559 118.824 153.559 119.44C153.559 120.037 153.415 120.574 153.125 121.05C152.836 121.526 152.444 121.899 151.949 122.17C151.455 122.431 150.89 122.562 150.255 122.562C149.63 122.562 149.065 122.431 148.561 122.17C148.067 121.899 147.675 121.526 147.385 121.05C147.096 120.574 146.951 120.037 146.951 119.44C146.951 118.824 147.096 118.283 147.385 117.816C147.675 117.349 148.067 116.985 148.561 116.724C149.065 116.453 149.63 116.318 150.255 116.318ZM150.255 117.326C149.845 117.326 149.476 117.415 149.149 117.592C148.823 117.769 148.561 118.017 148.365 118.334C148.179 118.651 148.085 119.02 148.085 119.44C148.085 119.851 148.179 120.215 148.365 120.532C148.561 120.849 148.823 121.097 149.149 121.274C149.476 121.451 149.845 121.54 150.255 121.54C150.666 121.54 151.035 121.451 151.361 121.274C151.697 121.097 151.959 120.849 152.145 120.532C152.341 120.215 152.439 119.851 152.439 119.44C152.439 119.02 152.341 118.651 152.145 118.334C151.959 118.017 151.697 117.769 151.361 117.592C151.035 117.415 150.666 117.326 150.255 117.326ZM165.318 115.646C166.718 115.646 167.81 115.837 168.594 116.22C169.378 116.593 169.77 117.13 169.77 117.83C169.77 118.539 169.378 119.085 168.594 119.468C167.81 119.841 166.718 120.028 165.318 120.028C163.928 120.028 162.836 119.841 162.042 119.468C161.258 119.085 160.866 118.539 160.866 117.83C160.866 117.13 161.258 116.593 162.042 116.22C162.836 115.837 163.928 115.646 165.318 115.646ZM165.318 116.514C164.637 116.514 164.054 116.565 163.568 116.668C163.083 116.771 162.71 116.92 162.448 117.116C162.196 117.312 162.07 117.55 162.07 117.83C162.07 118.11 162.196 118.353 162.448 118.558C162.71 118.754 163.083 118.903 163.568 119.006C164.054 119.099 164.637 119.146 165.318 119.146C166.009 119.146 166.597 119.099 167.082 119.006C167.568 118.903 167.936 118.754 168.188 118.558C168.45 118.353 168.58 118.11 168.58 117.83C168.58 117.55 168.45 117.312 168.188 117.116C167.936 116.92 167.568 116.771 167.082 116.668C166.597 116.565 166.009 116.514 165.318 116.514ZM159.606 120.882H171.044V121.82H159.606V120.882ZM160.992 122.898H169.574V125.754H162.154V127.28H161.02V124.9H168.44V123.794H160.992V122.898ZM161.02 127.042H169.952V127.952H161.02V127.042ZM182.919 118.404H186.097V119.37H182.919V118.404ZM179.601 116.192H180.539V117.746C180.539 118.558 180.394 119.319 180.105 120.028C179.815 120.737 179.409 121.358 178.887 121.89C178.364 122.413 177.753 122.814 177.053 123.094L176.437 122.17C176.913 121.993 177.342 121.755 177.725 121.456C178.117 121.157 178.448 120.812 178.719 120.42C178.999 120.028 179.213 119.608 179.363 119.16C179.521 118.703 179.601 118.231 179.601 117.746V116.192ZM179.811 116.192H180.749V117.788C180.749 118.227 180.823 118.656 180.973 119.076C181.122 119.496 181.332 119.888 181.603 120.252C181.873 120.616 182.195 120.938 182.569 121.218C182.951 121.498 183.371 121.722 183.829 121.89L183.199 122.8C182.527 122.529 181.934 122.147 181.421 121.652C180.917 121.157 180.52 120.579 180.231 119.916C179.951 119.253 179.811 118.544 179.811 117.788V116.192ZM185.677 115.436H186.839V124.9H185.677V115.436ZM178.705 126.86H187.133V127.812H178.705V126.86ZM178.705 123.85H179.867V127.294H178.705V123.85ZM189.848 121.484H190.646C191.318 121.484 191.906 121.479 192.41 121.47C192.923 121.451 193.404 121.419 193.852 121.372C194.3 121.316 194.757 121.241 195.224 121.148L195.35 122.1C194.864 122.193 194.388 122.268 193.922 122.324C193.464 122.371 192.974 122.403 192.452 122.422C191.929 122.441 191.327 122.45 190.646 122.45H189.848V121.484ZM189.848 116.346H194.734V117.298H190.968V122.002H189.848V116.346ZM190.618 118.866H194.594V119.776H190.618V118.866ZM198.864 115.436H199.97V123.108H198.864V115.436ZM196.82 118.726H199.2V119.678H196.82V118.726ZM196.064 115.674H197.156V123.024H196.064V115.674ZM191.486 123.766H199.97V128.092H198.822V124.718H191.486V123.766ZM202.152 117.592H208.438V118.544H202.152V117.592ZM205.302 119.384C205.834 119.384 206.301 119.505 206.702 119.748C207.113 119.991 207.435 120.331 207.668 120.77C207.902 121.199 208.018 121.699 208.018 122.268C208.018 122.837 207.902 123.341 207.668 123.78C207.435 124.209 207.113 124.55 206.702 124.802C206.301 125.045 205.834 125.166 205.302 125.166C204.78 125.166 204.313 125.045 203.902 124.802C203.492 124.55 203.17 124.209 202.936 123.78C202.703 123.341 202.586 122.837 202.586 122.268C202.586 121.699 202.703 121.199 202.936 120.77C203.17 120.341 203.492 120.005 203.902 119.762C204.313 119.51 204.78 119.384 205.302 119.384ZM205.302 120.364C204.985 120.364 204.696 120.448 204.434 120.616C204.182 120.775 203.982 120.999 203.832 121.288C203.692 121.568 203.622 121.895 203.622 122.268C203.622 122.641 203.692 122.973 203.832 123.262C203.982 123.551 204.182 123.775 204.434 123.934C204.696 124.093 204.985 124.172 205.302 124.172C205.629 124.172 205.918 124.093 206.17 123.934C206.422 123.775 206.618 123.551 206.758 123.262C206.908 122.973 206.982 122.641 206.982 122.268C206.982 121.895 206.908 121.568 206.758 121.288C206.618 120.999 206.422 120.775 206.17 120.616C205.918 120.448 205.629 120.364 205.302 120.364ZM211.784 115.422H212.89V128.092H211.784V115.422ZM209.754 120.756H212.148V121.708H209.754V120.756ZM209.068 115.716H210.16V127.476H209.068V115.716ZM204.728 115.8H205.876V118.166H204.728V115.8ZM228.251 115.422H229.413V124.802H228.251V115.422ZM225.983 119.006H228.895V119.944H225.983V119.006ZM219.375 116.542H226.067V117.494H219.375V116.542ZM219.165 122.73L219.025 121.75C219.744 121.75 220.532 121.745 221.391 121.736C222.25 121.717 223.127 121.685 224.023 121.638C224.928 121.582 225.787 121.503 226.599 121.4L226.669 122.254C225.838 122.394 224.98 122.501 224.093 122.576C223.206 122.641 222.338 122.683 221.489 122.702C220.649 122.721 219.874 122.73 219.165 122.73ZM220.621 117.34H221.755V121.918H220.621V117.34ZM223.673 117.34H224.807V121.918H223.673V117.34ZM221.307 126.86H229.749V127.812H221.307V126.86ZM221.307 123.976H222.469V127.462H221.307V123.976ZM241.088 115.422H242.25V123.206H241.088V115.422ZM232.646 121.022H233.682C234.596 121.022 235.399 121.013 236.09 120.994C236.79 120.975 237.434 120.933 238.022 120.868C238.619 120.803 239.221 120.709 239.828 120.588L239.954 121.54C239.328 121.661 238.712 121.755 238.106 121.82C237.499 121.885 236.841 121.932 236.132 121.96C235.432 121.979 234.615 121.988 233.682 121.988H232.646V121.022ZM232.646 116.416H238.596V117.368H233.794V121.554H232.646V116.416ZM238.05 123.234C238.927 123.234 239.683 123.332 240.318 123.528C240.952 123.715 241.442 123.99 241.788 124.354C242.133 124.709 242.306 125.143 242.306 125.656C242.306 126.16 242.133 126.594 241.788 126.958C241.442 127.322 240.952 127.597 240.318 127.784C239.683 127.98 238.927 128.078 238.05 128.078C237.172 128.078 236.416 127.98 235.782 127.784C235.147 127.597 234.657 127.322 234.312 126.958C233.976 126.594 233.808 126.16 233.808 125.656C233.808 125.143 233.976 124.709 234.312 124.354C234.657 123.99 235.147 123.715 235.782 123.528C236.416 123.332 237.172 123.234 238.05 123.234ZM238.05 124.158C237.406 124.158 236.85 124.219 236.384 124.34C235.926 124.452 235.576 124.62 235.334 124.844C235.091 125.068 234.97 125.339 234.97 125.656C234.97 125.964 235.091 126.23 235.334 126.454C235.576 126.678 235.926 126.851 236.384 126.972C236.85 127.093 237.406 127.154 238.05 127.154C238.694 127.154 239.244 127.093 239.702 126.972C240.159 126.851 240.514 126.678 240.766 126.454C241.018 126.23 241.144 125.964 241.144 125.656C241.144 125.339 241.018 125.068 240.766 124.844C240.514 124.62 240.159 124.452 239.702 124.34C239.244 124.219 238.694 124.158 238.05 124.158ZM250.467 115.646C251.867 115.646 252.959 115.837 253.743 116.22C254.527 116.593 254.919 117.13 254.919 117.83C254.919 118.539 254.527 119.085 253.743 119.468C252.959 119.841 251.867 120.028 250.467 120.028C249.076 120.028 247.984 119.841 247.191 119.468C246.407 119.085 246.015 118.539 246.015 117.83C246.015 117.13 246.407 116.593 247.191 116.22C247.984 115.837 249.076 115.646 250.467 115.646ZM250.467 116.514C249.785 116.514 249.202 116.565 248.717 116.668C248.231 116.771 247.858 116.92 247.597 117.116C247.345 117.312 247.219 117.55 247.219 117.83C247.219 118.11 247.345 118.353 247.597 118.558C247.858 118.754 248.231 118.903 248.717 119.006C249.202 119.099 249.785 119.146 250.467 119.146C251.157 119.146 251.745 119.099 252.231 119.006C252.716 118.903 253.085 118.754 253.337 118.558C253.598 118.353 253.729 118.11 253.729 117.83C253.729 117.55 253.598 117.312 253.337 117.116C253.085 116.92 252.716 116.771 252.231 116.668C251.745 116.565 251.157 116.514 250.467 116.514ZM244.755 120.882H256.193V121.82H244.755V120.882ZM246.141 122.898H254.723V125.754H247.303V127.28H246.169V124.9H253.589V123.794H246.141V122.898ZM246.169 127.042H255.101V127.952H246.169V127.042ZM267.493 116.948H271.091V117.872H267.493V116.948ZM267.493 119.566H271.091V120.49H267.493V119.566ZM265.029 115.856C265.654 115.856 266.21 115.977 266.695 116.22C267.19 116.463 267.577 116.803 267.857 117.242C268.137 117.671 268.277 118.171 268.277 118.74C268.277 119.3 268.137 119.799 267.857 120.238C267.577 120.667 267.19 121.008 266.695 121.26C266.21 121.503 265.654 121.624 265.029 121.624C264.394 121.624 263.83 121.503 263.335 121.26C262.85 121.008 262.467 120.667 262.187 120.238C261.907 119.799 261.767 119.3 261.767 118.74C261.767 118.171 261.907 117.671 262.187 117.242C262.467 116.803 262.85 116.463 263.335 116.22C263.83 115.977 264.394 115.856 265.029 115.856ZM265.029 116.808C264.618 116.808 264.25 116.892 263.923 117.06C263.596 117.219 263.34 117.447 263.153 117.746C262.966 118.035 262.873 118.367 262.873 118.74C262.873 119.113 262.966 119.449 263.153 119.748C263.34 120.037 263.596 120.266 263.923 120.434C264.25 120.593 264.618 120.672 265.029 120.672C265.44 120.672 265.804 120.593 266.121 120.434C266.448 120.266 266.704 120.037 266.891 119.748C267.078 119.449 267.171 119.113 267.171 118.74C267.171 118.367 267.078 118.035 266.891 117.746C266.704 117.447 266.448 117.219 266.121 117.06C265.804 116.892 265.44 116.808 265.029 116.808ZM270.825 115.422H271.973V121.904H270.825V115.422ZM263.825 122.562H271.973V125.614H265.001V127.504H263.853V124.732H270.825V123.486H263.825V122.562ZM263.853 126.986H272.449V127.924H263.853V126.986ZM277.824 116.402C278.44 116.402 278.986 116.584 279.462 116.948C279.938 117.303 280.307 117.811 280.568 118.474C280.839 119.137 280.974 119.916 280.974 120.812C280.974 121.708 280.839 122.487 280.568 123.15C280.307 123.813 279.938 124.326 279.462 124.69C278.986 125.054 278.44 125.236 277.824 125.236C277.217 125.236 276.671 125.054 276.186 124.69C275.71 124.326 275.337 123.813 275.066 123.15C274.805 122.487 274.674 121.708 274.674 120.812C274.674 119.916 274.805 119.137 275.066 118.474C275.337 117.811 275.71 117.303 276.186 116.948C276.671 116.584 277.217 116.402 277.824 116.402ZM277.824 117.438C277.423 117.438 277.068 117.578 276.76 117.858C276.452 118.129 276.209 118.521 276.032 119.034C275.864 119.538 275.78 120.131 275.78 120.812C275.78 121.493 275.864 122.091 276.032 122.604C276.209 123.108 276.452 123.5 276.76 123.78C277.068 124.06 277.423 124.2 277.824 124.2C278.235 124.2 278.594 124.06 278.902 123.78C279.21 123.5 279.448 123.108 279.616 122.604C279.793 122.091 279.882 121.493 279.882 120.812C279.882 120.131 279.793 119.538 279.616 119.034C279.448 118.521 279.21 118.129 278.902 117.858C278.594 117.578 278.235 117.438 277.824 117.438ZM283.718 115.422H284.866V128.106H283.718V115.422ZM280.596 120.252H284.236V121.19H280.596V120.252ZM287.329 125.516H298.809V126.482H287.329V125.516ZM292.467 122.478H293.615V125.796H292.467V122.478ZM288.673 116.318H289.835V118.572H296.275V116.318H297.423V122.8H288.673V116.318ZM289.835 119.524V121.848H296.275V119.524H289.835ZM305.192 119.958H307.628V120.924H305.192V119.958ZM302.84 116.612H303.75V119.034C303.75 119.687 303.68 120.331 303.54 120.966C303.409 121.601 303.213 122.198 302.952 122.758C302.7 123.318 302.392 123.822 302.028 124.27C301.664 124.718 301.253 125.082 300.796 125.362L300.068 124.494C300.497 124.233 300.884 123.906 301.23 123.514C301.575 123.122 301.864 122.683 302.098 122.198C302.34 121.703 302.522 121.19 302.644 120.658C302.774 120.117 302.84 119.575 302.84 119.034V116.612ZM303.064 116.612H303.96V118.992C303.96 119.496 304.016 120.005 304.128 120.518C304.249 121.022 304.417 121.507 304.632 121.974C304.856 122.431 305.131 122.851 305.458 123.234C305.784 123.617 306.153 123.934 306.564 124.186L305.906 125.082C305.448 124.802 305.042 124.447 304.688 124.018C304.333 123.579 304.034 123.089 303.792 122.548C303.549 121.997 303.367 121.419 303.246 120.812C303.124 120.205 303.064 119.599 303.064 118.992V116.612ZM309.854 115.422H310.974V128.092H309.854V115.422ZM307.278 115.688H308.37V127.448H307.278V115.688ZM315.901 121.946H317.049V125.726H315.901V121.946ZM320.577 121.946H321.739V125.726H320.577V121.946ZM313.087 125.502H324.567V126.468H313.087V125.502ZM318.799 116.22C319.695 116.22 320.488 116.355 321.179 116.626C321.869 116.897 322.411 117.275 322.803 117.76C323.204 118.245 323.405 118.819 323.405 119.482C323.405 120.135 323.204 120.709 322.803 121.204C322.411 121.689 321.869 122.067 321.179 122.338C320.488 122.599 319.695 122.73 318.799 122.73C317.912 122.73 317.119 122.599 316.419 122.338C315.728 122.067 315.187 121.689 314.795 121.204C314.403 120.709 314.207 120.135 314.207 119.482C314.207 118.819 314.403 118.245 314.795 117.76C315.187 117.275 315.728 116.897 316.419 116.626C317.119 116.355 317.912 116.22 318.799 116.22ZM318.799 117.144C318.127 117.144 317.529 117.242 317.007 117.438C316.484 117.634 316.073 117.909 315.775 118.264C315.476 118.609 315.327 119.015 315.327 119.482C315.327 119.949 315.476 120.359 315.775 120.714C316.073 121.059 316.484 121.33 317.007 121.526C317.529 121.722 318.127 121.82 318.799 121.82C319.48 121.82 320.082 121.722 320.605 121.526C321.127 121.33 321.538 121.059 321.837 120.714C322.135 120.359 322.285 119.949 322.285 119.482C322.285 119.015 322.135 118.609 321.837 118.264C321.538 117.909 321.127 117.634 320.605 117.438C320.082 117.242 319.48 117.144 318.799 117.144ZM327.195 127.08C326.949 127.08 326.739 126.992 326.563 126.816C326.388 126.64 326.3 126.43 326.3 126.185C326.3 125.939 326.388 125.729 326.563 125.553C326.739 125.378 326.949 125.29 327.195 125.29C327.44 125.29 327.65 125.378 327.826 125.553C328.002 125.729 328.089 125.939 328.089 126.185C328.089 126.347 328.048 126.496 327.965 126.632C327.886 126.768 327.778 126.877 327.642 126.96C327.509 127.04 327.36 127.08 327.195 127.08Z" fill="#52525B"/>
</svg>
