<svg width="16" height="16" viewBox="0 0 16 16" fill="none" xmlns="http://www.w3.org/2000/svg">
<mask id="path-1-inside-1_2407_28080" fill="white">
<path d="M10.8828 2C11.8715 2 12.705 2.33893 13.3828 3.0166C14.0606 3.69442 14.4003 4.52789 14.4004 5.5166C14.4004 5.99447 14.3217 6.45612 14.166 6.90039C14.0108 7.34452 13.7245 7.83849 13.3076 8.38281C12.8911 8.92735 12.3193 9.55859 11.5918 10.2754C10.8638 10.9921 9.933 11.8611 8.7998 12.8828L8 13.5996L7.16602 12.8496C6.05518 11.8609 5.13908 11.0132 4.41699 10.3076C3.69491 9.60206 3.12506 8.97465 2.70801 8.4248C2.29155 7.87503 2.00288 7.3724 1.8418 6.91699C1.68073 6.46153 1.59961 5.99447 1.59961 5.5166C1.59965 4.52789 1.93937 3.69442 2.61719 3.0166C3.295 2.33893 4.12853 2 5.11719 2C5.66158 2.00006 6.18938 2.11704 6.7002 2.35059C7.21103 2.58365 7.64432 2.91165 8 3.33398C8.35568 2.91165 8.78897 2.58365 9.2998 2.35059C9.81062 2.11704 10.3384 2.00006 10.8828 2Z"/>
</mask>
<path d="M10.8828 2C11.8715 2 12.705 2.33893 13.3828 3.0166C14.0606 3.69442 14.4003 4.52789 14.4004 5.5166C14.4004 5.99447 14.3217 6.45612 14.166 6.90039C14.0108 7.34452 13.7245 7.83849 13.3076 8.38281C12.8911 8.92735 12.3193 9.55859 11.5918 10.2754C10.8638 10.9921 9.933 11.8611 8.7998 12.8828L8 13.5996L7.16602 12.8496C6.05518 11.8609 5.13908 11.0132 4.41699 10.3076C3.69491 9.60206 3.12506 8.97465 2.70801 8.4248C2.29155 7.87503 2.00288 7.3724 1.8418 6.91699C1.68073 6.46153 1.59961 5.99447 1.59961 5.5166C1.59965 4.52789 1.93937 3.69442 2.61719 3.0166C3.295 2.33893 4.12853 2 5.11719 2C5.66158 2.00006 6.18938 2.11704 6.7002 2.35059C7.21103 2.58365 7.64432 2.91165 8 3.33398C8.35568 2.91165 8.78897 2.58365 9.2998 2.35059C9.81062 2.11704 10.3384 2.00006 10.8828 2Z" fill="#DC2626"/>
<path d="M10.8828 2V1H10.8827L10.8828 2ZM13.3828 3.0166L14.0899 2.30949L14.0898 2.30942L13.3828 3.0166ZM14.4004 5.5166H15.4004V5.51656L14.4004 5.5166ZM14.166 6.90039L13.2223 6.56959L13.222 6.57045L14.166 6.90039ZM13.3076 8.38281L12.5137 7.77476L12.5133 7.77525L13.3076 8.38281ZM11.5918 10.2754L12.2934 10.988L12.2937 10.9877L11.5918 10.2754ZM8.7998 12.8828L9.46721 13.6275L9.46945 13.6255L8.7998 12.8828ZM8 13.5996L7.33132 14.3432L7.99885 14.9435L8.66741 14.3443L8 13.5996ZM7.16602 12.8496L7.8347 12.106L7.83087 12.1026L7.16602 12.8496ZM4.41699 10.3076L3.71812 11.0229L3.71812 11.0229L4.41699 10.3076ZM2.70801 8.4248L1.91089 9.02863L1.91127 9.02912L2.70801 8.4248ZM1.8418 6.91699L0.899011 7.25039L0.899035 7.25046L1.8418 6.91699ZM1.59961 5.5166L0.599609 5.51656V5.5166H1.59961ZM2.61719 3.0166L1.91015 2.30942L1.91008 2.30949L2.61719 3.0166ZM5.11719 2L5.11729 1H5.11719V2ZM6.7002 2.35059L6.28439 3.26004L6.28512 3.26037L6.7002 2.35059ZM8 3.33398L7.23511 3.97815L8 4.88638L8.76489 3.97815L8 3.33398ZM9.2998 2.35059L9.71488 3.26037L9.71561 3.26004L9.2998 2.35059ZM10.8828 2V3C11.6156 3 12.192 3.24011 12.6758 3.72378L13.3828 3.0166L14.0898 2.30942C13.218 1.43775 12.1273 1 10.8828 1V2ZM13.3828 3.0166L12.6757 3.72371C13.1599 4.20788 13.4004 4.78434 13.4004 5.51665L14.4004 5.5166L15.4004 5.51656C15.4003 4.27144 14.9614 3.18097 14.0899 2.30949L13.3828 3.0166ZM14.4004 5.5166H13.4004C13.4004 5.88258 13.3405 6.23234 13.2223 6.56959L14.166 6.90039L15.1097 7.23119C15.303 6.6799 15.4004 6.10636 15.4004 5.5166H14.4004ZM14.166 6.90039L13.222 6.57045C13.1139 6.87981 12.8931 7.27938 12.5137 7.77476L13.3076 8.38281L14.1015 8.99086C14.5559 8.3976 14.9077 7.80923 15.11 7.23034L14.166 6.90039ZM13.3076 8.38281L12.5133 7.77525C12.135 8.26984 11.5982 8.86516 10.8899 9.56308L11.5918 10.2754L12.2937 10.9877C13.0403 10.252 13.6472 9.58485 14.1019 8.99038L13.3076 8.38281ZM11.5918 10.2754L10.8902 9.56282C10.1765 10.2655 9.25741 11.1237 8.13016 12.1401L8.7998 12.8828L9.46945 13.6255C10.6086 12.5984 11.5512 11.7188 12.2934 10.988L11.5918 10.2754ZM8.7998 12.8828L8.1324 12.1381L7.33259 12.8549L8 13.5996L8.66741 14.3443L9.46721 13.6275L8.7998 12.8828ZM8 13.5996L8.66868 12.8561L7.83469 12.1061L7.16602 12.8496L6.49734 13.5932L7.33132 14.3432L8 13.5996ZM7.16602 12.8496L7.83087 12.1026C6.72708 11.1202 5.82323 10.2835 5.11586 9.59237L4.41699 10.3076L3.71812 11.0229C4.45493 11.7428 5.38328 12.6016 6.50116 13.5966L7.16602 12.8496ZM4.41699 10.3076L5.11587 9.59237C4.41424 8.90681 3.8816 8.31733 3.50475 7.82049L2.70801 8.4248L1.91127 9.02912C2.36851 9.63196 2.97557 10.2973 3.71812 11.0229L4.41699 10.3076ZM2.70801 8.4248L3.50512 7.82098C3.12667 7.32138 2.90011 6.9102 2.78456 6.58353L1.8418 6.91699L0.899035 7.25046C1.10565 7.83459 1.45642 8.42868 1.91089 9.02863L2.70801 8.4248ZM1.8418 6.91699L2.78458 6.58359C2.66071 6.23331 2.59961 5.8789 2.59961 5.5166H1.59961H0.599609C0.599609 6.11003 0.700747 6.68974 0.899011 7.25039L1.8418 6.91699ZM1.59961 5.5166L2.59961 5.51665C2.59964 4.78434 2.84013 4.20788 3.32429 3.72371L2.61719 3.0166L1.91008 2.30949C1.03861 3.18097 0.599666 4.27144 0.599609 5.51656L1.59961 5.5166ZM2.61719 3.0166L3.32422 3.72378C3.80799 3.24012 4.38435 3 5.11719 3V2V1C3.87271 1 2.78201 1.43775 1.91015 2.30942L2.61719 3.0166ZM5.11719 2L5.11709 3C5.51325 3.00004 5.89963 3.08413 6.28439 3.26004L6.7002 2.35059L7.116 1.44113C6.47913 1.14996 5.80992 1.00007 5.11729 1L5.11719 2ZM6.7002 2.35059L6.28512 3.26037C6.6632 3.43287 6.97639 3.67094 7.23511 3.97815L8 3.33398L8.76489 2.68982C8.31225 2.15236 7.75885 1.73442 7.11527 1.4408L6.7002 2.35059ZM8 3.33398L8.76489 3.97815C9.02361 3.67094 9.3368 3.43287 9.71488 3.26037L9.2998 2.35059L8.88473 1.4408C8.24115 1.73442 7.68775 2.15236 7.23511 2.68982L8 3.33398ZM9.2998 2.35059L9.71561 3.26004C10.1004 3.08413 10.4868 3.00004 10.8829 3L10.8828 2L10.8827 1C10.1901 1.00007 9.52087 1.14996 8.884 1.44113L9.2998 2.35059Z" fill="#DC2626" mask="url(#path-1-inside-1_2407_28080)"/>
</svg>
