<svg width="16" height="16" viewBox="0 0 16 16" fill="none" xmlns="http://www.w3.org/2000/svg">
<mask id="path-1-inside-1_2253_33091" fill="white">
<path d="M10.8828 2C11.8715 2 12.705 2.33893 13.3828 3.0166C14.0606 3.69442 14.4003 4.52789 14.4004 5.5166C14.4004 5.99447 14.3217 6.45612 14.166 6.90039C14.0108 7.34452 13.7245 7.83849 13.3076 8.38281C12.8911 8.92735 12.3193 9.55859 11.5918 10.2754C10.8638 10.9921 9.933 11.8611 8.7998 12.8828L8 13.5996L7.16602 12.8496C6.05518 11.8609 5.13908 11.0132 4.41699 10.3076C3.69491 9.60206 3.12506 8.97465 2.70801 8.4248C2.29155 7.87503 2.00288 7.3724 1.8418 6.91699C1.68073 6.46153 1.59961 5.99447 1.59961 5.5166C1.59965 4.52789 1.93937 3.69442 2.61719 3.0166C3.295 2.33893 4.12853 2 5.11719 2C5.66158 2.00006 6.18938 2.11704 6.7002 2.35059C7.21103 2.58365 7.64432 2.91165 8 3.33398C8.35568 2.91165 8.78897 2.58365 9.2998 2.35059C9.81062 2.11704 10.3384 2.00006 10.8828 2ZM10.8828 3.2002C10.4942 3.20025 10.1305 3.28042 9.79199 3.44141C9.45279 3.60247 9.16126 3.82812 8.91699 4.11719L8.33398 4.7998H7.66602L7.08301 4.11719C6.8388 3.82819 6.54214 3.60247 6.19238 3.44141C5.84211 3.2804 5.48345 3.20025 5.11719 3.2002C4.46186 3.2002 3.91155 3.42214 3.4668 3.86621C3.02258 4.31097 2.79985 4.86122 2.7998 5.5166C2.7998 5.883 2.87207 6.24733 3.0166 6.6084C3.16113 6.96986 3.42491 7.38912 3.80762 7.86621C4.19105 8.34403 4.71916 8.91102 5.3916 9.56641C6.0636 10.2224 6.93333 11.0282 8 11.9834C9.0336 11.0613 9.88411 10.2751 10.5508 9.625C11.2174 8.97491 11.7475 8.40798 12.1416 7.9248C12.5363 7.44161 12.8116 7.01138 12.9668 6.63379C13.1225 6.25566 13.2002 5.883 13.2002 5.5166C13.2002 4.86122 12.9774 4.31097 12.5332 3.86621C12.0885 3.42214 11.5381 3.2002 10.8828 3.2002Z"/>
</mask>
<path d="M10.8828 2C11.8715 2 12.705 2.33893 13.3828 3.0166C14.0606 3.69442 14.4003 4.52789 14.4004 5.5166C14.4004 5.99447 14.3217 6.45612 14.166 6.90039C14.0108 7.34452 13.7245 7.83849 13.3076 8.38281C12.8911 8.92735 12.3193 9.55859 11.5918 10.2754C10.8638 10.9921 9.933 11.8611 8.7998 12.8828L8 13.5996L7.16602 12.8496C6.05518 11.8609 5.13908 11.0132 4.41699 10.3076C3.69491 9.60206 3.12506 8.97465 2.70801 8.4248C2.29155 7.87503 2.00288 7.3724 1.8418 6.91699C1.68073 6.46153 1.59961 5.99447 1.59961 5.5166C1.59965 4.52789 1.93937 3.69442 2.61719 3.0166C3.295 2.33893 4.12853 2 5.11719 2C5.66158 2.00006 6.18938 2.11704 6.7002 2.35059C7.21103 2.58365 7.64432 2.91165 8 3.33398C8.35568 2.91165 8.78897 2.58365 9.2998 2.35059C9.81062 2.11704 10.3384 2.00006 10.8828 2ZM10.8828 3.2002C10.4942 3.20025 10.1305 3.28042 9.79199 3.44141C9.45279 3.60247 9.16126 3.82812 8.91699 4.11719L8.33398 4.7998H7.66602L7.08301 4.11719C6.8388 3.82819 6.54214 3.60247 6.19238 3.44141C5.84211 3.2804 5.48345 3.20025 5.11719 3.2002C4.46186 3.2002 3.91155 3.42214 3.4668 3.86621C3.02258 4.31097 2.79985 4.86122 2.7998 5.5166C2.7998 5.883 2.87207 6.24733 3.0166 6.6084C3.16113 6.96986 3.42491 7.38912 3.80762 7.86621C4.19105 8.34403 4.71916 8.91102 5.3916 9.56641C6.0636 10.2224 6.93333 11.0282 8 11.9834C9.0336 11.0613 9.88411 10.2751 10.5508 9.625C11.2174 8.97491 11.7475 8.40798 12.1416 7.9248C12.5363 7.44161 12.8116 7.01138 12.9668 6.63379C13.1225 6.25566 13.2002 5.883 13.2002 5.5166C13.2002 4.86122 12.9774 4.31097 12.5332 3.86621C12.0885 3.42214 11.5381 3.2002 10.8828 3.2002Z" fill="#27272A"/>
<path d="M10.8828 2V1H10.8827L10.8828 2ZM13.3828 3.0166L14.0899 2.30949L14.0898 2.30942L13.3828 3.0166ZM14.4004 5.5166H15.4004V5.51656L14.4004 5.5166ZM14.166 6.90039L13.2223 6.56959L13.222 6.57045L14.166 6.90039ZM13.3076 8.38281L12.5137 7.77476L12.5133 7.77525L13.3076 8.38281ZM11.5918 10.2754L12.2934 10.988L12.2937 10.9877L11.5918 10.2754ZM8.7998 12.8828L9.46721 13.6275L9.46945 13.6255L8.7998 12.8828ZM8 13.5996L7.33132 14.3432L7.99885 14.9435L8.66741 14.3443L8 13.5996ZM7.16602 12.8496L7.8347 12.106L7.83087 12.1026L7.16602 12.8496ZM4.41699 10.3076L3.71812 11.0229L3.71812 11.0229L4.41699 10.3076ZM2.70801 8.4248L1.91089 9.02863L1.91127 9.02912L2.70801 8.4248ZM1.8418 6.91699L0.899011 7.25039L0.899035 7.25046L1.8418 6.91699ZM1.59961 5.5166L0.599609 5.51656V5.5166H1.59961ZM2.61719 3.0166L1.91015 2.30942L1.91008 2.30949L2.61719 3.0166ZM5.11719 2L5.11729 1H5.11719V2ZM6.7002 2.35059L6.28439 3.26004L6.28512 3.26037L6.7002 2.35059ZM8 3.33398L7.23511 3.97815L8 4.88638L8.76489 3.97815L8 3.33398ZM9.2998 2.35059L9.71488 3.26037L9.71561 3.26004L9.2998 2.35059ZM10.8828 3.2002V2.2002L10.8827 2.2002L10.8828 3.2002ZM9.79199 3.44141L10.2209 4.34474L10.2215 4.34449L9.79199 3.44141ZM8.91699 4.11719L9.67741 4.76664L9.68081 4.76262L8.91699 4.11719ZM8.33398 4.7998V5.7998H8.79499L9.09439 5.44925L8.33398 4.7998ZM7.66602 4.7998L6.90561 5.44925L7.20501 5.7998H7.66602V4.7998ZM7.08301 4.11719L6.31918 4.76263L6.3226 4.76663L7.08301 4.11719ZM6.19238 3.44141L6.61065 2.53308L6.61004 2.5328L6.19238 3.44141ZM5.11719 3.2002L5.11734 2.2002H5.11719V3.2002ZM3.4668 3.86621L2.76023 3.15857L2.75927 3.15953L3.4668 3.86621ZM2.7998 5.5166L1.7998 5.51653V5.5166H2.7998ZM3.0166 6.6084L3.94513 6.23714L3.94498 6.23677L3.0166 6.6084ZM3.80762 7.86621L3.02757 8.49194L3.02768 8.49207L3.80762 7.86621ZM5.3916 9.56641L6.09014 8.85083L6.08957 8.85028L5.3916 9.56641ZM8 11.9834L7.33289 12.7284L7.99875 13.3246L8.66572 12.7296L8 11.9834ZM10.5508 9.625L11.249 10.3409L11.249 10.3409L10.5508 9.625ZM12.1416 7.9248L11.3671 7.29222L11.3667 7.29273L12.1416 7.9248ZM12.9668 6.63379L12.0421 6.25297L12.0419 6.25362L12.9668 6.63379ZM13.2002 5.5166H14.2002V5.51653L13.2002 5.5166ZM12.5332 3.86621L13.2407 3.15953L13.2398 3.15857L12.5332 3.86621ZM10.8828 2V3C11.6156 3 12.192 3.24011 12.6758 3.72378L13.3828 3.0166L14.0898 2.30942C13.218 1.43775 12.1273 1 10.8828 1V2ZM13.3828 3.0166L12.6757 3.72371C13.1599 4.20788 13.4004 4.78434 13.4004 5.51665L14.4004 5.5166L15.4004 5.51656C15.4003 4.27144 14.9614 3.18097 14.0899 2.30949L13.3828 3.0166ZM14.4004 5.5166H13.4004C13.4004 5.88258 13.3405 6.23234 13.2223 6.56959L14.166 6.90039L15.1097 7.23119C15.303 6.6799 15.4004 6.10636 15.4004 5.5166H14.4004ZM14.166 6.90039L13.222 6.57045C13.1139 6.87981 12.8931 7.27938 12.5137 7.77476L13.3076 8.38281L14.1015 8.99086C14.5559 8.3976 14.9077 7.80923 15.11 7.23034L14.166 6.90039ZM13.3076 8.38281L12.5133 7.77525C12.135 8.26984 11.5982 8.86516 10.8899 9.56308L11.5918 10.2754L12.2937 10.9877C13.0403 10.252 13.6472 9.58485 14.1019 8.99038L13.3076 8.38281ZM11.5918 10.2754L10.8902 9.56282C10.1765 10.2655 9.25741 11.1237 8.13016 12.1401L8.7998 12.8828L9.46945 13.6255C10.6086 12.5984 11.5512 11.7188 12.2934 10.988L11.5918 10.2754ZM8.7998 12.8828L8.1324 12.1381L7.33259 12.8549L8 13.5996L8.66741 14.3443L9.46721 13.6275L8.7998 12.8828ZM8 13.5996L8.66868 12.8561L7.83469 12.1061L7.16602 12.8496L6.49734 13.5932L7.33132 14.3432L8 13.5996ZM7.16602 12.8496L7.83087 12.1026C6.72708 11.1202 5.82323 10.2835 5.11586 9.59237L4.41699 10.3076L3.71812 11.0229C4.45493 11.7428 5.38328 12.6016 6.50116 13.5966L7.16602 12.8496ZM4.41699 10.3076L5.11587 9.59237C4.41424 8.90681 3.8816 8.31733 3.50475 7.82049L2.70801 8.4248L1.91127 9.02912C2.36851 9.63196 2.97557 10.2973 3.71812 11.0229L4.41699 10.3076ZM2.70801 8.4248L3.50512 7.82098C3.12667 7.32138 2.90011 6.9102 2.78456 6.58353L1.8418 6.91699L0.899035 7.25046C1.10565 7.83459 1.45642 8.42868 1.91089 9.02863L2.70801 8.4248ZM1.8418 6.91699L2.78458 6.58359C2.66071 6.23331 2.59961 5.8789 2.59961 5.5166H1.59961H0.599609C0.599609 6.11003 0.700747 6.68974 0.899011 7.25039L1.8418 6.91699ZM1.59961 5.5166L2.59961 5.51665C2.59964 4.78434 2.84013 4.20788 3.32429 3.72371L2.61719 3.0166L1.91008 2.30949C1.03861 3.18097 0.599666 4.27144 0.599609 5.51656L1.59961 5.5166ZM2.61719 3.0166L3.32422 3.72378C3.80799 3.24012 4.38435 3 5.11719 3V2V1C3.87271 1 2.78201 1.43775 1.91015 2.30942L2.61719 3.0166ZM5.11719 2L5.11709 3C5.51325 3.00004 5.89963 3.08413 6.28439 3.26004L6.7002 2.35059L7.116 1.44113C6.47913 1.14996 5.80992 1.00007 5.11729 1L5.11719 2ZM6.7002 2.35059L6.28512 3.26037C6.6632 3.43287 6.97639 3.67094 7.23511 3.97815L8 3.33398L8.76489 2.68982C8.31225 2.15236 7.75885 1.73442 7.11527 1.4408L6.7002 2.35059ZM8 3.33398L8.76489 3.97815C9.02361 3.67094 9.3368 3.43287 9.71488 3.26037L9.2998 2.35059L8.88473 1.4408C8.24115 1.73442 7.68775 2.15236 7.23511 2.68982L8 3.33398ZM9.2998 2.35059L9.71561 3.26004C10.1004 3.08413 10.4868 3.00004 10.8829 3L10.8828 2L10.8827 1C10.1901 1.00007 9.52087 1.14996 8.884 1.44113L9.2998 2.35059ZM10.8828 3.2002L10.8827 2.2002C10.3518 2.20027 9.84076 2.3109 9.36253 2.53832L9.79199 3.44141L10.2215 4.34449C10.4203 4.24993 10.6366 4.20023 10.8829 4.2002L10.8828 3.2002ZM9.79199 3.44141L9.36305 2.53807C8.89312 2.76122 8.48797 3.07555 8.15318 3.47175L8.91699 4.11719L9.68081 4.76262C9.83455 4.58069 10.0125 4.44373 10.2209 4.34474L9.79199 3.44141ZM8.91699 4.11719L8.15658 3.46774L7.57358 4.15036L8.33398 4.7998L9.09439 5.44925L9.6774 4.76663L8.91699 4.11719ZM8.33398 4.7998V3.7998H7.66602V4.7998V5.7998H8.33398V4.7998ZM7.66602 4.7998L8.42642 4.15036L7.84342 3.46774L7.08301 4.11719L6.3226 4.76663L6.90561 5.44925L7.66602 4.7998ZM7.08301 4.11719L7.84682 3.47175C7.50724 3.06989 7.09229 2.75487 6.61065 2.53308L6.19238 3.44141L5.77412 4.34973C5.992 4.45006 6.17035 4.58648 6.31919 4.76262L7.08301 4.11719ZM6.19238 3.44141L6.61004 2.5328C6.13504 2.31446 5.63444 2.20028 5.11734 2.2002L5.11719 3.2002L5.11703 4.2002C5.33247 4.20023 5.54917 4.24633 5.77473 4.35001L6.19238 3.44141ZM5.11719 3.2002V2.2002C4.20976 2.2002 3.40137 2.5184 2.76023 3.15857L3.4668 3.86621L4.17336 4.57386C4.42172 4.32588 4.71397 4.2002 5.11719 4.2002V3.2002ZM3.4668 3.86621L2.75927 3.15953C2.11948 3.80008 1.79987 4.60816 1.7998 5.51653L2.7998 5.5166L3.7998 5.51667C3.79983 5.11429 3.92567 4.82185 4.17433 4.57289L3.4668 3.86621ZM2.7998 5.5166H1.7998C1.7998 6.01778 1.89924 6.50791 2.08822 6.98003L3.0166 6.6084L3.94498 6.23677C3.8449 5.98675 3.7998 5.74822 3.7998 5.5166H2.7998ZM3.0166 6.6084L2.08807 6.97966C2.28403 7.46975 2.61422 7.97665 3.02757 8.49194L3.80762 7.86621L4.58766 7.24048C4.2356 6.8016 4.03823 6.46997 3.94513 6.23714L3.0166 6.6084ZM3.80762 7.86621L3.02768 8.49207C3.44613 9.01353 4.00555 9.6119 4.69363 10.2825L5.3916 9.56641L6.08957 8.85028C5.43278 8.21015 4.93596 7.67453 4.58755 7.24035L3.80762 7.86621ZM5.3916 9.56641L4.69306 10.282C5.37919 10.9518 6.26051 11.768 7.33289 12.7284L8 11.9834L8.66711 11.2384C7.60616 10.2884 6.74801 9.49304 6.09014 8.85083L5.3916 9.56641ZM8 11.9834L8.66572 12.7296C9.70548 11.802 10.5679 11.0051 11.249 10.3409L10.5508 9.625L9.85261 8.90907C9.20036 9.54514 8.36172 10.3206 7.33428 11.2372L8 11.9834ZM10.5508 9.625L11.249 10.3409C11.9312 9.67561 12.49 9.07972 12.9165 8.55688L12.1416 7.9248L11.3667 7.29273C11.0049 7.73624 10.5036 8.27421 9.8526 8.90907L10.5508 9.625ZM12.1416 7.9248L12.9161 8.55739C13.3434 8.03422 13.6847 7.51768 13.8917 7.01396L12.9668 6.63379L12.0419 6.25362C11.9385 6.50508 11.7291 6.84901 11.3671 7.29222L12.1416 7.9248ZM12.9668 6.63379L13.8914 7.0146C14.0914 6.52921 14.2002 6.02753 14.2002 5.5166H13.2002H12.2002C12.2002 5.73848 12.1537 5.9821 12.0421 6.25297L12.9668 6.63379ZM13.2002 5.5166L14.2002 5.51653C14.2001 4.60816 13.8805 3.80008 13.2407 3.15953L12.5332 3.86621L11.8257 4.57289C12.0743 4.82185 12.2002 5.11429 12.2002 5.51667L13.2002 5.5166ZM12.5332 3.86621L13.2398 3.15857C12.5986 2.5184 11.7902 2.2002 10.8828 2.2002V3.2002V4.2002C11.286 4.2002 11.5783 4.32588 11.8266 4.57386L12.5332 3.86621Z" fill="#27272A" mask="url(#path-1-inside-1_2253_33091)"/>
</svg>
