<svg xmlns="http://www.w3.org/2000/svg" width="70" height="70" viewBox="0 0 70 70" fill="none">
  <path d="M45.9375 10.9375C59.2268 10.9375 70 21.7107 70 35C70 48.2893 59.2268 59.0625 45.9375 59.0625C32.8093 59.0625 22.1378 48.5491 21.8809 35.4824C22.0784 42.619 27.925 48.3437 35.1094 48.3438C42.4185 48.3438 48.3438 42.4185 48.3438 35.1094C48.3437 27.8002 42.4185 21.875 35.1094 21.875C27.8176 21.8751 21.9029 27.7723 21.875 35.0576C21.875 35.0384 21.875 35.0192 21.875 35C21.875 21.7107 32.6482 10.9375 45.9375 10.9375Z" fill="url(#paint0_linear_3207_9763)"/>
  <path d="M69.9912 34.3682C69.6562 21.3709 59.0156 10.9375 45.9375 10.9375C32.6482 10.9376 21.875 21.7107 21.875 35C21.875 48.2893 32.6482 59.0624 45.9375 59.0625C59.0192 59.0625 69.6628 48.6234 69.9922 35.6211L69.9883 35.9033C69.5092 54.8158 54.0279 70 35 70C15.67 70 0 54.33 0 35C0 15.67 15.67 0 35 0C54.1189 0 69.6541 15.3297 69.9912 34.3682Z" fill="url(#paint1_linear_3207_9763)"/>
  <defs>
    <linearGradient id="paint0_linear_3207_9763" x1="46.6667" y1="11.6667" x2="46.6667" y2="58.3333" gradientUnits="userSpaceOnUse">
      <stop stop-color="#808A99"/>
      <stop offset="1" stop-color="#808A99" stop-opacity="0"/>
    </linearGradient>
    <linearGradient id="paint1_linear_3207_9763" x1="23.6224" y1="70" x2="23.6224" y2="0" gradientUnits="userSpaceOnUse">
      <stop stop-color="#808A99"/>
      <stop offset="1" stop-color="#808A99" stop-opacity="0"/>
    </linearGradient>
  </defs>
</svg>