<svg width="216" height="174" viewBox="0 0 216 174" fill="none" xmlns="http://www.w3.org/2000/svg">
<path d="M14.1152 166.344H1.49121V165.32H7.17121V161.976H3.01121V155.384H12.5632V161.976H8.38721V165.32H14.1152V166.344ZM11.3472 160.968V156.392H4.22721V160.968H11.3472ZM26.839 168.12H25.623V154.136H26.839V168.12ZM15.799 160.12C15.799 157.176 17.111 155.192 19.399 155.192C21.719 155.192 23.015 157.176 23.015 160.136C23.015 163.096 21.719 165.08 19.399 165.08C17.111 165.08 15.799 163.096 15.799 160.12ZM21.863 160.136C21.863 157.832 20.887 156.248 19.399 156.248C17.927 156.248 16.951 157.832 16.951 160.136C16.951 162.424 17.927 164.024 19.399 164.024C20.887 164.024 21.863 162.424 21.863 160.136ZM39.3867 157.576H36.7787V156.568H39.3867V154.136H40.6027V164.296H39.3867V160.664H36.7787V159.656H39.3867V157.576ZM40.9067 167.656H31.5947V163.368H32.8107V166.632H40.9067V167.656ZM36.1867 161.912H29.8027V155.384H36.1867V161.912ZM34.9547 160.92V156.392H31.0187V160.92H34.9547ZM54.8256 156.76V155.736H57.4336V154.136H58.6496V161.464H57.4336V159.752H54.8256V158.712H57.4336V156.76H54.8256ZM59.1776 168.024H49.6736V164.52H57.4336V163.096H49.6576V162.088H58.6496V165.448H50.8896V167.016H59.1776V168.024ZM50.9376 154.616C52.8736 154.616 54.4576 155.96 54.4576 157.912C54.4576 159.88 52.8736 161.16 50.9376 161.16C49.0016 161.16 47.4016 159.896 47.4016 157.912C47.4016 155.976 48.9856 154.616 50.9376 154.616ZM50.9376 155.672C49.6256 155.672 48.5856 156.552 48.5856 157.896C48.5856 159.256 49.6096 160.104 50.9376 160.104C52.3296 160.104 53.2576 159.256 53.2576 157.912C53.2576 156.568 52.3296 155.672 50.9376 155.672ZM72.4933 164.296H71.2773V154.136H72.4933V164.296ZM72.8773 167.8H63.2933V163.832H64.5093V166.792H72.8773V167.8ZM69.4213 161.144L69.5333 162.136C68.0933 162.376 65.8053 162.536 63.3253 162.552H61.7733V158.168H67.0213V156.072H61.7093V155.064H68.2373V159.144H62.9893V161.528C65.1813 161.528 67.9813 161.448 69.4213 161.144ZM85.6971 154.136V159.688H87.9691V160.712H85.6971V168.12H84.4811V154.136H85.6971ZM76.6891 163.656H77.4891C79.2971 163.656 82.0651 163.496 83.4091 163.208L83.5371 164.216C82.0331 164.504 79.2651 164.696 76.8331 164.696H75.4571V155.592H82.0971V156.616H76.6891V163.656ZM88.4528 168.408L89.0448 165.288H90.5008L89.3168 168.408H88.4528ZM107.881 157.848C107.881 159.704 106.009 160.984 102.873 160.984C99.7533 160.984 97.8653 159.72 97.8653 157.848C97.8653 155.992 99.7533 154.728 102.873 154.728C106.009 154.728 107.881 155.992 107.881 157.848ZM102.873 155.784C100.521 155.784 99.0813 156.568 99.0813 157.848C99.0813 159.144 100.521 159.928 102.873 159.928C105.257 159.928 106.697 159.144 106.697 157.848C106.697 156.568 105.257 155.784 102.873 155.784ZM103.481 168.136H102.265V163.272H96.6173V162.248H109.257V163.272H103.481V168.136ZM120.685 154.136H121.901V168.12H120.685V154.136ZM119.405 163.304L119.517 164.312C118.061 164.536 115.661 164.776 112.589 164.776H111.165V159.384H116.461V156.44H111.101V155.432H117.693V160.392H112.381V163.736H112.717C114.941 163.736 117.709 163.608 119.405 163.304ZM135.008 154.136V159.96H137.296V161H135.008V168.12H133.792V154.136H135.008ZM131.376 155.64C131.296 160.184 128.672 163.464 125.072 165.336L124.32 164.376C127.808 162.76 129.808 159.816 130.064 156.664H124.8V155.64H131.376ZM155.327 160.728H153.055V168.12H151.839V154.136H153.055V159.688H155.327V160.728ZM149.343 164.648H142.767V155.32H143.983V158.872H148.111V155.32H149.343V164.648ZM148.111 163.624V159.88H143.983V163.624H148.111ZM166.883 154.136V159.768H169.139V160.792H166.883V168.12H165.683V154.136H166.883ZM164.451 163.288L164.611 164.264C163.043 164.584 160.131 164.792 157.843 164.792H156.659V159.384H161.875V156.44H156.627V155.432H163.091V160.392H157.875V163.768C160.099 163.784 162.579 163.64 164.451 163.288ZM182.615 162.376H169.991V161.352H182.615V162.376ZM181.271 167.816H171.639V163.688H172.855V166.808H181.271V167.816ZM181.207 159.608H171.687V154.728H172.903V158.6H181.207V159.608ZM198.79 154.136V159.96H201.078V161H198.79V168.12H197.574V154.136H198.79ZM195.158 155.64C195.078 160.184 192.454 163.464 188.854 165.336L188.102 164.376C191.59 162.76 193.59 159.816 193.846 156.664H188.582V155.64H195.158ZM213.673 168.12H212.473V154.136H213.673V168.12ZM210.953 167.416H209.785V160.6H207.433V159.576H209.785V154.472H210.953V167.416ZM207.785 155.768C207.689 159.928 205.865 163 202.569 165.128L201.737 164.232C204.665 162.584 206.393 159.64 206.537 156.792H202.281V155.768H207.785Z" fill="#27272A"/>
<path d="M40.7396 107.22C40.7396 106.86 40.7396 106.5 40.7396 106.08C40.7396 105.6 40.7996 105.18 40.7996 104.76C37.6196 104.52 34.4996 104.16 31.6196 103.68C28.4996 103.14 27.2996 101.46 26.5796 97.32C25.7396 92.1 25.7996 84.3 26.3996 79.56C26.9996 75.3 28.4996 73.92 31.6196 73.2C43.3196 70.44 58.5596 70.44 70.2596 73.2C73.4396 73.92 74.8796 75.3 75.4196 79.56C76.0796 84.3 76.1396 92.1 75.2396 97.32C74.5796 101.46 73.4396 103.14 70.2596 103.68C67.3196 104.16 64.1996 104.52 61.0196 104.76C61.0196 105.18 61.0796 105.6 61.0796 106.08C61.0796 106.5 61.0796 106.86 61.0796 107.22C64.1996 107.04 67.3196 106.8 70.5596 106.44C75.1796 105.9 77.8196 109.56 77.8196 114.06C77.8196 119.64 75.1796 122.4 70.4996 122.88C57.1196 124.26 44.6996 124.26 31.3196 122.88C26.7596 122.4 24.0596 119.64 24.0596 114.06C24.0596 109.56 26.7596 105.9 31.3196 106.44C34.4996 106.74 37.6196 107.04 40.7396 107.22ZM45.9596 86.16C45.5996 86.76 45.8996 87.3 46.7396 87.78C49.4396 89.28 52.6196 89.22 55.3196 87.78C55.8596 87.48 56.1596 86.94 55.9196 86.28C55.7996 85.86 55.1996 85.44 54.6596 85.74C52.4396 86.94 49.4396 86.88 47.3396 85.68C46.9196 85.44 46.1996 85.62 45.9596 86.16ZM124.752 124.5C119.892 124.5 116.592 121.74 117.192 116.34C118.692 103.44 118.692 90.48 117.252 78.12C116.592 72.18 119.892 69.36 124.752 69.36C128.952 69.36 131.952 71.76 132.432 76.68C133.752 89.64 133.752 104.28 132.432 117.3C131.952 122.1 128.952 124.5 124.752 124.5ZM98.3513 122.4C86.2913 122.4 82.1513 112.26 82.1513 96.72C82.1513 81.12 85.6913 71.04 98.3513 71.04C111.012 71.04 114.552 81.12 114.552 96.72C114.552 112.26 110.412 122.4 98.3513 122.4ZM97.4513 100.62C97.4513 101.58 99.3113 101.58 99.3113 100.62V92.88C99.3113 91.86 97.4513 91.86 97.4513 92.88V100.62ZM154.763 107.16C154.763 106.26 154.823 105.42 154.883 104.52C147.983 104.52 139.943 104.04 139.583 95.28C139.283 87.84 142.343 84.3 146.123 83.58C151.043 82.62 155.243 80.16 156.083 76.14C157.103 71.16 160.163 70.14 164.963 70.14C169.763 70.14 172.283 71.16 173.603 75.96C174.743 80.22 180.203 82.56 184.763 83.64C189.143 84.66 190.943 89.88 190.403 95.28C189.683 102.3 186.803 104.7 180.503 104.7C178.283 104.7 176.423 104.64 174.983 104.46C175.043 105.36 175.103 106.26 175.103 107.16C178.223 106.98 181.343 106.68 184.583 106.38C189.203 105.84 191.843 109.5 191.843 114C191.843 119.58 189.203 122.34 184.523 122.82C171.143 124.2 158.723 124.2 145.343 122.82C140.783 122.34 138.083 119.58 138.083 114C138.083 109.5 140.783 105.84 145.343 106.38C148.523 106.68 151.643 106.98 154.763 107.16ZM167.303 99.66C167.663 99.66 168.023 99.72 168.383 99.72C168.803 99.72 169.163 99.78 169.523 99.78C169.283 98.52 169.223 97.02 169.223 95.1C169.223 90.24 167.663 86.94 164.003 84.18C162.983 83.4 161.483 84.78 162.803 85.68C165.623 87.66 167.423 90.24 167.423 95.7C167.423 97.26 167.423 98.58 167.303 99.66Z" fill="black"/>
<path d="M30.4897 52.8092C26.089 52.0453 24.3964 49.7536 23.4655 43.8123C22.1961 36.428 22.2807 21.8293 23.127 15.124C24.0579 9.09778 26.089 7.14561 30.4897 6.12709C46.9922 2.22277 68.4878 2.22277 84.9904 6.12709C89.4757 7.14561 91.5067 9.09778 92.353 15.124C93.1993 21.8293 93.2839 36.428 92.0145 43.8123C91.0836 49.7536 89.4757 52.0453 84.9904 52.8092C68.2339 55.6101 47.2461 55.6101 30.4897 52.8092ZM50.7159 26.0731C50.2081 26.9218 50.6312 27.7706 51.816 28.3647C55.6243 30.4018 60.1096 30.3169 63.9179 28.3647C64.6795 28.0252 65.1027 27.0916 64.7642 26.158C64.5949 25.5638 63.7486 25.0546 62.987 25.3941C59.8557 27.0916 55.6243 27.0067 52.6623 25.3092C52.0699 25.0546 51.0544 25.2243 50.7159 26.0731Z" fill="black"/>
<path d="M142.622 55.1408C130.351 55.1408 122.819 47.502 122.819 33.752C122.819 12.7026 136.868 0.480347 160.056 0.480347C182.398 0.480347 194.5 14.1455 194.5 34.6007C194.5 47.502 191.368 55.1408 181.382 55.1408C171.396 55.1408 165.98 50.218 165.811 39.3538C165.641 30.1023 162.087 24.4155 157.686 22.1239C155.571 20.9356 153.963 23.7365 155.994 24.755C159.717 26.7072 162.341 30.8661 162.341 38.8445C162.341 50.3878 154.809 55.1408 142.622 55.1408Z" fill="#2563EB"/>
<path d="M73.2715 32.309C73.2715 12.7874 85.8811 0.480347 109.154 0.480347C132.257 0.480347 144.952 12.7874 144.952 32.309C144.952 49.1995 135.727 55.4803 109.154 55.4803C82.4114 55.4803 73.2715 49.1995 73.2715 32.309ZM103.653 37.9109H114.486C115.924 37.9109 115.924 34.7705 114.486 34.7705H103.653C102.214 34.7705 102.214 37.9109 103.653 37.9109Z" fill="#FACC15"/>
<path d="M101.736 29.0283C103.235 29.0283 104.451 27.8127 104.451 26.3131C104.451 24.8135 103.235 23.5978 101.736 23.5978C100.236 23.5978 99.0205 24.8135 99.0205 26.3131C99.0205 27.8127 100.236 29.0283 101.736 29.0283Z" fill="#FAFAFA"/>
<path d="M116.654 29.0283C118.153 29.0283 119.369 27.8127 119.369 26.3131C119.369 24.8135 118.153 23.5978 116.654 23.5978C115.154 23.5978 113.938 24.8135 113.938 26.3131C113.938 27.8127 115.154 29.0283 116.654 29.0283Z" fill="#FAFAFA"/>
<path d="M118.821 31.0383H99.1641V40.8956H118.821V31.0383Z" fill="#FACC15"/>
<path d="M103.77 35.8303C106.029 37.6432 109.87 39.9092 115.293 35.8303" stroke="white" stroke-width="2.2069" stroke-linecap="round"/>
</svg>
