<svg width="54" height="63" viewBox="0 0 54 63" fill="none" xmlns="http://www.w3.org/2000/svg">
<path fill-rule="evenodd" clip-rule="evenodd" d="M54 27C54 12.0883 41.9117 0 27 0C12.0883 0 0 12.0883 0 27C0 30.6914 0.740794 34.2098 2.08183 37.4146C7.644 52.6011 27.1419 63 27.1419 63C27.1419 63 51.0928 50.2262 53.4764 32.3179C53.8199 30.5986 54 28.8203 54 27Z" fill="white"/>
<path fill-rule="evenodd" clip-rule="evenodd" d="M49.695 31.8666L49.6705 31.9906L49.654 32.116C48.6557 39.6984 42.9988 46.6454 36.8943 51.9787C33.9197 54.5775 31.0029 56.6509 28.8267 58.0748C28.1945 58.4885 27.6275 58.8456 27.1429 59.1431C26.8209 58.9454 26.4624 58.7214 26.0725 58.4719C24.2515 57.3064 21.7664 55.5988 19.1221 53.4398C13.733 49.04 8.124 43.1199 5.7047 36.442L5.6747 36.3592L5.64103 36.2778C4.49381 33.5061 3.85815 30.4602 3.85815 27.2542C3.85815 14.3325 14.2196 3.85742 27.001 3.85742C39.7825 3.85742 50.1439 14.3325 50.1439 27.2542C50.1439 28.8366 49.989 30.3786 49.695 31.8666Z" fill="#FB923C"/>
<path d="M37.2845 26.9992C37.2845 21.3188 32.6796 16.7139 26.9992 16.7139C21.3188 16.7139 16.7139 21.3188 16.7139 26.9992C16.7139 32.6796 21.3188 37.2845 26.9992 37.2845C32.6796 37.2845 37.2845 32.6796 37.2845 26.9992Z" fill="white"/>
</svg>
