<svg width="36" height="42" viewBox="0 0 36 42" fill="none" xmlns="http://www.w3.org/2000/svg">
<path fill-rule="evenodd" clip-rule="evenodd" d="M36 18C36 8.05888 27.9411 0 18 0C8.05888 0 0 8.05888 0 18C0 20.4609 0.493863 22.8065 1.38789 24.9431C5.096 35.0674 18.0946 42 18.0946 42C18.0946 42 34.0619 33.4841 35.651 21.5453C35.8799 20.3991 36 19.2136 36 18Z" fill="white"/>
<path fill-rule="evenodd" clip-rule="evenodd" d="M33.1294 21.2441L33.1131 21.3268L33.1021 21.4103C32.4366 26.4653 28.6653 31.0966 24.5956 34.6521C22.6126 36.3846 20.668 37.767 19.2172 38.7162C18.7958 38.992 18.4177 39.2301 18.0947 39.4284C17.88 39.2966 17.641 39.1473 17.3811 38.9809C16.1671 38.2039 14.5104 37.0655 12.7475 35.6262C9.15476 32.693 5.41543 28.7463 3.80256 24.2943L3.78256 24.2391L3.76012 24.1849C2.99531 22.3371 2.57153 20.3065 2.57153 18.1691C2.57153 9.55468 9.47914 2.57129 18.0001 2.57129C26.5211 2.57129 33.4287 9.55468 33.4287 18.1691C33.4287 19.2241 33.3254 20.2521 33.1294 21.2441Z" fill="#71717A"/>
<path d="M24.8571 17.9997C24.8571 14.2126 21.7871 11.1426 18 11.1426C14.2129 11.1426 11.1428 14.2126 11.1428 17.9997C11.1428 21.7868 14.2129 24.8569 18 24.8569C21.7871 24.8569 24.8571 21.7868 24.8571 17.9997Z" fill="white"/>
</svg>
