<svg width="54" height="63" viewBox="0 0 54 63" fill="none" xmlns="http://www.w3.org/2000/svg">
<path fill-rule="evenodd" clip-rule="evenodd" d="M54.0044 27.0011C54.0044 12.0888 41.9156 0 27.0033 0C12.091 0 0.00219727 12.0888 0.00219727 27.0011C0.00219727 30.6927 0.743021 34.2112 2.08411 37.4161C7.64651 52.6033 27.1452 63.0026 27.1452 63.0026C27.1452 63.0026 51.0971 50.2282 53.4808 32.3192C53.8242 30.5998 54.0044 28.8215 54.0044 27.0011Z" fill="white"/>
<path fill-rule="evenodd" clip-rule="evenodd" d="M49.6993 31.8688L49.6748 31.9928L49.6583 32.1181C48.66 39.7008 43.0028 46.6481 36.8981 51.9816C33.9234 54.5805 31.0064 56.6541 28.8302 58.078C28.1979 58.4917 27.6309 58.8488 27.1463 59.1464C26.8243 58.9487 26.4658 58.7246 26.0759 58.4751C24.2548 57.3096 21.7696 55.6019 19.1251 53.4428C13.7358 49.0428 8.12661 43.1225 5.70722 36.4443L5.67722 36.3615L5.64355 36.2801C4.49628 33.5083 3.8606 30.4622 3.8606 27.2561C3.8606 14.3339 14.2224 3.8584 27.0044 3.8584C39.7864 3.8584 50.1482 14.3339 50.1482 27.2561C50.1482 28.8386 49.9933 30.3806 49.6993 31.8688Z" fill="#27272A"/>
<path d="M37.2882 27.0035C37.2882 21.3228 32.6832 16.7178 27.0025 16.7178C21.3219 16.7178 16.7168 21.3228 16.7168 27.0035C16.7168 32.6841 21.3219 37.2892 27.0025 37.2892C32.6832 37.2892 37.2882 32.6841 37.2882 27.0035Z" fill="white"/>
</svg>
