<svg width="25" height="24" viewBox="0 0 25 24" fill="none" xmlns="http://www.w3.org/2000/svg">
<path d="M20.2499 3.00001V7.00001M22.2499 5.00001H18.2499M4.24994 17V19M5.24994 18H3.24994M10.1869 15.5C10.0977 15.1539 9.91728 14.8381 9.66456 14.5854C9.41184 14.3327 9.09601 14.1523 8.74994 14.063L2.61494 12.481C2.51027 12.4513 2.41815 12.3883 2.35255 12.3014C2.28696 12.2146 2.25146 12.1088 2.25146 12C2.25146 11.8912 2.28696 11.7854 2.35255 11.6986C2.41815 11.6118 2.51027 11.5487 2.61494 11.519L8.74994 9.93601C9.09589 9.84681 9.41163 9.66658 9.66434 9.41404C9.91705 9.16151 10.0975 8.84589 10.1869 8.50001L11.7689 2.36501C11.7983 2.25992 11.8613 2.16735 11.9483 2.1014C12.0352 2.03545 12.1413 1.99976 12.2504 1.99976C12.3596 1.99976 12.4657 2.03545 12.5526 2.1014C12.6396 2.16735 12.7025 2.25992 12.7319 2.36501L14.3129 8.50001C14.4022 8.84608 14.5826 9.1619 14.8353 9.41462C15.088 9.66734 15.4039 9.84773 15.7499 9.93701L21.8849 11.518C21.9904 11.5471 22.0835 11.61 22.1498 11.6971C22.2161 11.7841 22.252 11.8906 22.252 12C22.252 12.1094 22.2161 12.2159 22.1498 12.3029C22.0835 12.39 21.9904 12.4529 21.8849 12.482L15.7499 14.063C15.4039 14.1523 15.088 14.3327 14.8353 14.5854C14.5826 14.8381 14.4022 15.1539 14.3129 15.5L12.7309 21.635C12.7015 21.7401 12.6386 21.8327 12.5516 21.8986C12.4647 21.9646 12.3586 22.0003 12.2494 22.0003C12.1403 22.0003 12.0342 21.9646 11.9473 21.8986C11.8603 21.8327 11.7973 21.7401 11.7679 21.635L10.1869 15.5Z" stroke="currentColor" stroke-width="2" stroke-linecap="round" stroke-linejoin="round"/>
</svg>
