<svg width="32" height="32" viewBox="0 0 32 32" fill="none" xmlns="http://www.w3.org/2000/svg">
<path d="M12.667 19.3337L19.3337 12.667M12.667 12.667L19.3337 19.3337M2.66699 12.0003C3.72786 12.0003 4.74527 12.4218 5.49542 13.1719C6.24556 13.922 6.66699 14.9395 6.66699 16.0003C6.66699 17.0612 6.24556 18.0786 5.49542 18.8288C4.74527 19.5789 3.72786 20.0003 2.66699 20.0003V22.667C2.66699 23.3742 2.94794 24.0525 3.44804 24.5526C3.94814 25.0527 4.62641 25.3337 5.33366 25.3337H26.667C27.3742 25.3337 28.0525 25.0527 28.5526 24.5526C29.0527 24.0525 29.3337 23.3742 29.3337 22.667V20.0003C28.2728 20.0003 27.2554 19.5789 26.5052 18.8288C25.7551 18.0786 25.3337 17.0612 25.3337 16.0003C25.3337 14.9395 25.7551 13.922 26.5052 13.1719C27.2554 12.4218 28.2728 12.0003 29.3337 12.0003V9.33366C29.3337 8.62641 29.0527 7.94814 28.5526 7.44804C28.0525 6.94794 27.3742 6.66699 26.667 6.66699H5.33366C4.62641 6.66699 3.94814 6.94794 3.44804 7.44804C2.94794 7.94814 2.66699 8.62641 2.66699 9.33366V12.0003Z" stroke="#A1A1AA" stroke-width="2" stroke-linecap="round" stroke-linejoin="round"/>
</svg>
