<svg width="16" height="16" viewBox="0 0 16 16" fill="none" xmlns="http://www.w3.org/2000/svg">
<mask id="path-1-inside-1_3879_5936" fill="white">
<path d="M10.7998 2.40039C11.133 2.40039 11.4164 2.5166 11.6494 2.75C11.8829 2.98298 11.9999 3.26645 12 3.59961V13.5996L8 12L4 13.5996V3.59961C4.00009 3.26645 4.11708 2.98298 4.35059 2.75C4.5836 2.5166 4.867 2.40039 5.2002 2.40039H10.7998ZM5.2002 11.8164L8 10.7002L10.7998 11.8164V3.59961H5.2002V11.8164Z"/>
</mask>
<path d="M10.7998 2.40039C11.133 2.40039 11.4164 2.5166 11.6494 2.75C11.8829 2.98298 11.9999 3.26645 12 3.59961V13.5996L8 12L4 13.5996V3.59961C4.00009 3.26645 4.11708 2.98298 4.35059 2.75C4.5836 2.5166 4.867 2.40039 5.2002 2.40039H10.7998ZM5.2002 11.8164L8 10.7002L10.7998 11.8164V3.59961H5.2002V11.8164Z" fill="#27272A"/>
<path d="M11.6494 2.75L10.9417 3.45651L10.9431 3.45791L11.6494 2.75ZM12 3.59961H13V3.59934L12 3.59961ZM12 13.5996L11.6287 14.5281L13 15.0765V13.5996H12ZM8 12L8.37131 11.0715L8 10.923L7.62869 11.0715L8 12ZM4 13.5996H3V15.0765L4.37131 14.5281L4 13.5996ZM4 3.59961L3 3.59934V3.59961H4ZM4.35059 2.75L5.05689 3.45792L5.05829 3.45651L4.35059 2.75ZM5.2002 11.8164H4.2002V13.2916L5.57052 12.7453L5.2002 11.8164ZM8 10.7002L8.37033 9.77129L8 9.62365L7.62967 9.77129L8 10.7002ZM10.7998 11.8164L10.4295 12.7453L11.7998 13.2916V11.8164H10.7998ZM10.7998 3.59961H11.7998V2.59961H10.7998V3.59961ZM5.2002 3.59961V2.59961H4.2002V3.59961H5.2002ZM10.7998 2.40039V3.40039C10.8719 3.40039 10.8994 3.41412 10.9417 3.45651L11.6494 2.75L12.3571 2.04349C11.9334 1.61907 11.3941 1.40039 10.7998 1.40039V2.40039ZM11.6494 2.75L10.9431 3.45791C10.9866 3.50128 11 3.52929 11 3.59988L12 3.59961L13 3.59934C12.9998 3.0036 12.7793 2.46467 12.3557 2.04209L11.6494 2.75ZM12 3.59961H11V13.5996H12H13V3.59961H12ZM12 13.5996L12.3713 12.6711L8.37131 11.0715L8 12L7.62869 12.9285L11.6287 14.5281L12 13.5996ZM8 12L7.62869 11.0715L3.62869 12.6711L4 13.5996L4.37131 14.5281L8.37131 12.9285L8 12ZM4 13.5996H5V3.59961H4H3V13.5996H4ZM4 3.59961L5 3.59988C5.00002 3.52929 5.01342 3.50128 5.05688 3.45791L4.35059 2.75L3.64429 2.04209C3.22074 2.46467 3.00016 3.0036 3 3.59934L4 3.59961ZM4.35059 2.75L5.05829 3.45651C5.10061 3.41412 5.12808 3.40039 5.2002 3.40039V2.40039V1.40039C4.60592 1.40039 4.06659 1.61907 3.64288 2.04349L4.35059 2.75ZM5.2002 2.40039V3.40039H10.7998V2.40039V1.40039H5.2002V2.40039ZM5.2002 11.8164L5.57052 12.7453L8.37033 11.6291L8 10.7002L7.62967 9.77129L4.82987 10.8875L5.2002 11.8164ZM8 10.7002L7.62967 11.6291L10.4295 12.7453L10.7998 11.8164L11.1701 10.8875L8.37033 9.77129L8 10.7002ZM10.7998 11.8164H11.7998V3.59961H10.7998H9.7998V11.8164H10.7998ZM10.7998 3.59961V2.59961H5.2002V3.59961V4.59961H10.7998V3.59961ZM5.2002 3.59961H4.2002V11.8164H5.2002H6.2002V3.59961H5.2002Z" fill="#27272A" mask="url(#path-1-inside-1_3879_5936)"/>
</svg>
