<svg width="8" height="12" viewBox="0 0 8 12" fill="none" xmlns="http://www.w3.org/2000/svg">
<mask id="path-1-inside-1_3651_11763" fill="white">
<path d="M6.7998 0.400391C7.133 0.400391 7.4164 0.516596 7.64941 0.75C7.88292 0.982976 7.99991 1.26645 8 1.59961V11.5996L4 10L0 11.5996V1.59961C9.12671e-05 1.26645 0.117077 0.982976 0.350586 0.75C0.583597 0.516596 0.867002 0.400391 1.2002 0.400391H6.7998ZM1.2002 9.81641L4 8.7002L6.7998 9.81641V1.59961H1.2002V9.81641Z"/>
</mask>
<path d="M6.7998 0.400391C7.133 0.400391 7.4164 0.516596 7.64941 0.75C7.88292 0.982976 7.99991 1.26645 8 1.59961V11.5996L4 10L0 11.5996V1.59961C9.12671e-05 1.26645 0.117077 0.982976 0.350586 0.75C0.583597 0.516596 0.867002 0.400391 1.2002 0.400391H6.7998ZM1.2002 9.81641L4 8.7002L6.7998 9.81641V1.59961H1.2002V9.81641Z" fill="#27272A"/>
<path d="M7.64941 0.75L6.94171 1.45651L6.94312 1.45791L7.64941 0.75ZM8 1.59961H9V1.59934L8 1.59961ZM8 11.5996L7.62869 12.5281L9 13.0765V11.5996H8ZM4 10L4.37131 9.07149L4 8.923L3.62869 9.07149L4 10ZM0 11.5996H-1V13.0765L0.371312 12.5281L0 11.5996ZM0 1.59961L-1 1.59934V1.59961H0ZM0.350586 0.75L1.05689 1.45792L1.05829 1.45651L0.350586 0.75ZM1.2002 9.81641H0.200195V11.2916L1.57052 10.7453L1.2002 9.81641ZM4 8.7002L4.37033 7.77129L4 7.62365L3.62967 7.77129L4 8.7002ZM6.7998 9.81641L6.42948 10.7453L7.7998 11.2916V9.81641H6.7998ZM6.7998 1.59961H7.7998V0.599609H6.7998V1.59961ZM1.2002 1.59961V0.599609H0.200195V1.59961H1.2002ZM6.7998 0.400391V1.40039C6.87192 1.40039 6.89939 1.41412 6.94171 1.45651L7.64941 0.75L8.35712 0.0434897C7.93341 -0.380928 7.39408 -0.599609 6.7998 -0.599609V0.400391ZM7.64941 0.75L6.94312 1.45791C6.98658 1.50128 6.99998 1.52929 7 1.59988L8 1.59961L9 1.59934C8.99984 1.0036 8.77926 0.464669 8.35571 0.0420856L7.64941 0.75ZM8 1.59961H7V11.5996H8H9V1.59961H8ZM8 11.5996L8.37131 10.6711L4.37131 9.07149L4 10L3.62869 10.9285L7.62869 12.5281L8 11.5996ZM4 10L3.62869 9.07149L-0.371312 10.6711L0 11.5996L0.371312 12.5281L4.37131 10.9285L4 10ZM0 11.5996H1V1.59961H0H-1V11.5996H0ZM0 1.59961L1 1.59988C1.00002 1.52929 1.01342 1.50128 1.05688 1.45791L0.350586 0.75L-0.355712 0.0420856C-0.779263 0.464669 -0.999837 1.0036 -1 1.59934L0 1.59961ZM0.350586 0.75L1.05829 1.45651C1.10061 1.41412 1.12808 1.40039 1.2002 1.40039V0.400391V-0.599609C0.605923 -0.599609 0.0665856 -0.380928 -0.357117 0.0434899L0.350586 0.75ZM1.2002 0.400391V1.40039H6.7998V0.400391V-0.599609H1.2002V0.400391ZM1.2002 9.81641L1.57052 10.7453L4.37033 9.6291L4 8.7002L3.62967 7.77129L0.829866 8.88751L1.2002 9.81641ZM4 8.7002L3.62967 9.6291L6.42948 10.7453L6.7998 9.81641L7.17013 8.88751L4.37033 7.77129L4 8.7002ZM6.7998 9.81641H7.7998V1.59961H6.7998H5.7998V9.81641H6.7998ZM6.7998 1.59961V0.599609H1.2002V1.59961V2.59961H6.7998V1.59961ZM1.2002 1.59961H0.200195V9.81641H1.2002H2.2002V1.59961H1.2002Z" fill="#27272A" mask="url(#path-1-inside-1_3651_11763)"/>
</svg>
