<svg width="276" height="72" viewBox="0 0 276 72" fill="none" xmlns="http://www.w3.org/2000/svg">
<path d="M37.8562 67.8965C32.2069 66.9144 30.0341 63.9679 28.8391 56.3291C27.2095 46.835 27.3181 28.0652 28.4045 19.4442C29.5995 11.6962 32.2069 9.18622 37.8562 7.8767C59.0408 2.85686 86.6351 2.85686 107.82 7.8767C113.578 9.18622 116.185 11.6962 117.271 19.4442C118.358 28.0652 118.466 46.835 116.837 56.3291C115.642 63.9679 113.578 66.9144 107.82 67.8965C86.3092 71.4977 59.3667 71.4977 37.8562 67.8965ZM63.821 33.5216C63.1691 34.6127 63.7122 35.7041 65.2332 36.4679C70.122 39.087 75.8799 38.9779 80.7687 36.4679C81.7463 36.0314 82.2896 34.8311 81.8551 33.6307C81.6377 32.8667 80.5513 32.2121 79.5736 32.6486C75.5539 34.8311 70.122 34.7219 66.3196 32.5394C65.5591 32.2121 64.2555 32.4302 63.821 33.5216Z" fill="black"/>
<path d="M181.804 70.8949C166.052 70.8949 156.383 61.0736 156.383 43.395C156.383 16.3315 174.418 0.617188 204.185 0.617188C232.866 0.617188 248.401 18.1867 248.401 44.4862C248.401 61.0736 244.381 70.8949 231.561 70.8949C218.742 70.8949 211.789 64.5656 211.573 50.5973C211.354 38.7026 206.792 31.391 201.142 28.4446C198.427 26.9168 196.363 30.518 198.97 31.8275C203.75 34.3374 207.118 39.6846 207.118 49.9425C207.118 64.7839 197.449 70.8949 181.804 70.8949Z" fill="#2563EB"/>
<path d="M92.7764 41.5397C92.7764 16.4405 108.964 0.617188 138.839 0.617188C168.497 0.617188 184.794 16.4405 184.794 41.5397C184.794 63.2561 172.952 71.3314 138.839 71.3314C104.509 71.3314 92.7764 63.2561 92.7764 41.5397ZM131.778 48.7422H145.684C147.53 48.7422 147.53 44.7045 145.684 44.7045H131.778C129.93 44.7045 129.93 48.7422 131.778 48.7422Z" fill="#FACC15"/>
<path d="M129.317 37.3215C131.242 37.3215 132.802 35.7585 132.802 33.8304C132.802 31.9024 131.242 30.3394 129.317 30.3394C127.392 30.3394 125.831 31.9024 125.831 33.8304C125.831 35.7585 127.392 37.3215 129.317 37.3215Z" fill="#FAFAFA"/>
<path d="M148.467 37.3215C150.392 37.3215 151.953 35.7585 151.953 33.8304C151.953 31.9024 150.392 30.3394 148.467 30.3394C146.542 30.3394 144.981 31.9024 144.981 33.8304C144.981 35.7585 146.542 37.3215 148.467 37.3215Z" fill="#FAFAFA"/>
<path d="M151.249 39.9053H126.015V52.579H151.249V39.9053Z" fill="#FACC15"/>
<path d="M131.928 46.0669C134.828 48.3978 139.758 51.3112 146.72 46.0669" stroke="white" stroke-width="2.83304" stroke-linecap="round"/>
</svg>
