<svg width="154" height="154" viewBox="0 0 154 154" fill="none" xmlns="http://www.w3.org/2000/svg">
<g filter="url(#filter0_dd_15_40)">
<rect x="2" y="1" width="150" height="150" rx="20" fill="white"/>
<g filter="url(#filter1_dd_15_40)">
<path d="M22.5769 93.72C19.5066 93.1744 18.3257 91.5374 17.6763 87.2936C16.7906 82.0191 16.8496 71.5915 17.4401 66.802C18.0895 62.4976 19.5066 61.1032 22.5769 60.3756C34.0902 57.5868 49.0871 57.5868 60.6007 60.3756C63.73 61.1032 65.1469 62.4976 65.7371 66.802C66.3278 71.5915 66.3865 82.0191 65.5012 87.2936C64.8517 91.5374 63.73 93.1744 60.6007 93.72C48.91 95.7206 34.2673 95.7206 22.5769 93.72ZM36.6882 74.6228C36.3339 75.229 36.629 75.8353 37.4557 76.2596C40.1126 77.7147 43.2419 77.6541 45.8989 76.2596C46.4302 76.0171 46.7254 75.3503 46.4893 74.6834C46.3712 74.259 45.7807 73.8953 45.2494 74.1378C43.0647 75.3503 40.1126 75.2896 38.0461 74.0771C37.6328 73.8953 36.9243 74.0165 36.6882 74.6228Z" fill="black"/>
</g>
<g filter="url(#filter2_dd_15_40)">
<path d="M100.807 95.3862C92.2464 95.3862 86.9915 89.9299 86.9915 80.1085C86.9915 65.0732 96.7932 56.343 112.971 56.343C128.558 56.343 137.001 66.1039 137.001 80.7147C137.001 89.9299 134.817 95.3862 127.849 95.3862C120.882 95.3862 117.104 91.8699 116.986 84.1097C116.867 77.5016 114.388 73.4396 111.317 71.8027C109.842 70.9539 108.72 72.9546 110.137 73.6821C112.734 75.0765 114.565 78.0471 114.565 83.746C114.565 91.9912 109.31 95.3862 100.807 95.3862Z" fill="#2563EB"/>
</g>
<g filter="url(#filter3_dd_15_40)">
<path d="M52.4212 79.0777C52.4212 65.1337 61.2188 56.343 77.4553 56.343C93.5737 56.343 102.431 65.1337 102.431 79.0777C102.431 91.1424 95.9949 95.6287 77.4553 95.6287C58.7976 95.6287 52.4212 91.1424 52.4212 79.0777ZM73.6178 83.0791H81.1754C82.1786 83.0791 82.1786 80.836 81.1754 80.836H73.6178C72.6134 80.836 72.6134 83.0791 73.6178 83.0791Z" fill="#FACC15"/>
</g>
<path d="M72.2831 76.7347C73.3293 76.7347 74.1771 75.8663 74.1771 74.7952C74.1771 73.724 73.3293 72.8557 72.2831 72.8557C71.2369 72.8557 70.3885 73.724 70.3885 74.7952C70.3885 75.8663 71.2369 76.7347 72.2831 76.7347Z" fill="#FAFAFA"/>
<path d="M82.69 76.7347C83.7362 76.7347 84.5846 75.8663 84.5846 74.7952C84.5846 73.724 83.7362 72.8557 82.69 72.8557C81.6438 72.8557 80.7955 73.724 80.7955 74.7952C80.7955 75.8663 81.6438 76.7347 82.69 76.7347Z" fill="#FAFAFA"/>
<path d="M84.2032 78.1704H70.4891V85.2113H84.2032V78.1704Z" fill="#FACC15"/>
<path d="M73.703 81.5931C75.2791 82.8881 77.9584 84.5066 81.7421 81.5931" stroke="white" stroke-width="1.5397" stroke-linecap="round"/>
</g>
<defs>
<filter id="filter0_dd_15_40" x="0" y="0" width="154" height="154" filterUnits="userSpaceOnUse" color-interpolation-filters="sRGB">
<feFlood flood-opacity="0" result="BackgroundImageFix"/>
<feColorMatrix in="SourceAlpha" type="matrix" values="0 0 0 0 0 0 0 0 0 0 0 0 0 0 0 0 0 0 127 0" result="hardAlpha"/>
<feOffset dy="1"/>
<feGaussianBlur stdDeviation="1"/>
<feComposite in2="hardAlpha" operator="out"/>
<feColorMatrix type="matrix" values="0 0 0 0 0.0941176 0 0 0 0 0.0941176 0 0 0 0 0.105882 0 0 0 0.1 0"/>
<feBlend mode="normal" in2="BackgroundImageFix" result="effect1_dropShadow_15_40"/>
<feColorMatrix in="SourceAlpha" type="matrix" values="0 0 0 0 0 0 0 0 0 0 0 0 0 0 0 0 0 0 127 0" result="hardAlpha"/>
<feOffset/>
<feGaussianBlur stdDeviation="0.5"/>
<feComposite in2="hardAlpha" operator="out"/>
<feColorMatrix type="matrix" values="0 0 0 0 0.0941176 0 0 0 0 0.0941176 0 0 0 0 0.105882 0 0 0 0.05 0"/>
<feBlend mode="normal" in2="effect1_dropShadow_15_40" result="effect2_dropShadow_15_40"/>
<feBlend mode="normal" in="SourceGraphic" in2="effect2_dropShadow_15_40" result="shape"/>
</filter>
<filter id="filter1_dd_15_40" x="13.0026" y="56.284" width="57.1721" height="44.9364" filterUnits="userSpaceOnUse" color-interpolation-filters="sRGB">
<feFlood flood-opacity="0" result="BackgroundImageFix"/>
<feColorMatrix in="SourceAlpha" type="matrix" values="0 0 0 0 0 0 0 0 0 0 0 0 0 0 0 0 0 0 127 0" result="hardAlpha"/>
<feOffset dy="2"/>
<feGaussianBlur stdDeviation="2"/>
<feComposite in2="hardAlpha" operator="out"/>
<feColorMatrix type="matrix" values="0 0 0 0 0.0941176 0 0 0 0 0.0941176 0 0 0 0 0.105882 0 0 0 0.1 0"/>
<feBlend mode="normal" in2="BackgroundImageFix" result="effect1_dropShadow_15_40"/>
<feColorMatrix in="SourceAlpha" type="matrix" values="0 0 0 0 0 0 0 0 0 0 0 0 0 0 0 0 0 0 127 0" result="hardAlpha"/>
<feOffset/>
<feGaussianBlur stdDeviation="0.5"/>
<feComposite in2="hardAlpha" operator="out"/>
<feColorMatrix type="matrix" values="0 0 0 0 0.0941176 0 0 0 0 0.0941176 0 0 0 0 0.105882 0 0 0 0.05 0"/>
<feBlend mode="normal" in2="effect1_dropShadow_15_40" result="effect2_dropShadow_15_40"/>
<feBlend mode="normal" in="SourceGraphic" in2="effect2_dropShadow_15_40" result="shape"/>
</filter>
<filter id="filter2_dd_15_40" x="82.9915" y="54.343" width="58.0098" height="47.0432" filterUnits="userSpaceOnUse" color-interpolation-filters="sRGB">
<feFlood flood-opacity="0" result="BackgroundImageFix"/>
<feColorMatrix in="SourceAlpha" type="matrix" values="0 0 0 0 0 0 0 0 0 0 0 0 0 0 0 0 0 0 127 0" result="hardAlpha"/>
<feOffset dy="2"/>
<feGaussianBlur stdDeviation="2"/>
<feComposite in2="hardAlpha" operator="out"/>
<feColorMatrix type="matrix" values="0 0 0 0 0.0941176 0 0 0 0 0.0941176 0 0 0 0 0.105882 0 0 0 0.1 0"/>
<feBlend mode="normal" in2="BackgroundImageFix" result="effect1_dropShadow_15_40"/>
<feColorMatrix in="SourceAlpha" type="matrix" values="0 0 0 0 0 0 0 0 0 0 0 0 0 0 0 0 0 0 127 0" result="hardAlpha"/>
<feOffset/>
<feGaussianBlur stdDeviation="0.5"/>
<feComposite in2="hardAlpha" operator="out"/>
<feColorMatrix type="matrix" values="0 0 0 0 0.0941176 0 0 0 0 0.0941176 0 0 0 0 0.105882 0 0 0 0.05 0"/>
<feBlend mode="normal" in2="effect1_dropShadow_15_40" result="effect2_dropShadow_15_40"/>
<feBlend mode="normal" in="SourceGraphic" in2="effect2_dropShadow_15_40" result="shape"/>
</filter>
<filter id="filter3_dd_15_40" x="48.4212" y="54.343" width="58.0096" height="47.2857" filterUnits="userSpaceOnUse" color-interpolation-filters="sRGB">
<feFlood flood-opacity="0" result="BackgroundImageFix"/>
<feColorMatrix in="SourceAlpha" type="matrix" values="0 0 0 0 0 0 0 0 0 0 0 0 0 0 0 0 0 0 127 0" result="hardAlpha"/>
<feOffset dy="2"/>
<feGaussianBlur stdDeviation="2"/>
<feComposite in2="hardAlpha" operator="out"/>
<feColorMatrix type="matrix" values="0 0 0 0 0.0941176 0 0 0 0 0.0941176 0 0 0 0 0.105882 0 0 0 0.1 0"/>
<feBlend mode="normal" in2="BackgroundImageFix" result="effect1_dropShadow_15_40"/>
<feColorMatrix in="SourceAlpha" type="matrix" values="0 0 0 0 0 0 0 0 0 0 0 0 0 0 0 0 0 0 127 0" result="hardAlpha"/>
<feOffset/>
<feGaussianBlur stdDeviation="0.5"/>
<feComposite in2="hardAlpha" operator="out"/>
<feColorMatrix type="matrix" values="0 0 0 0 0.0941176 0 0 0 0 0.0941176 0 0 0 0 0.105882 0 0 0 0.05 0"/>
<feBlend mode="normal" in2="effect1_dropShadow_15_40" result="effect2_dropShadow_15_40"/>
<feBlend mode="normal" in="SourceGraphic" in2="effect2_dropShadow_15_40" result="shape"/>
</filter>
</defs>
</svg>
