<svg
  width="720"
  height="540"
  viewBox="0 0 720 540"
  fill="none"
  xmlns="http://www.w3.org/2000/svg"
>
  <rect
    width="720"
    height="540"
    fill="white"
  />
  <path
    fill="black"
    d="M196.719 240.156C196.156 238.047 194.562 236.641 191.562 236.641C188.422 236.641 186.172 238.328 186.172 240.484C186.172 242.172 187.531 243.344 190.531 244.047L194.328 244.984C198.875 246.062 201.125 248.312 201.125 251.875C201.125 256.281 197.516 259.516 191.141 259.516C185.422 259.516 182 256.984 181.344 252.344H185.562C186.031 254.828 187.859 256 191.047 256C194.656 256 196.953 254.5 196.953 252.109C196.953 250.328 195.688 249.109 192.781 248.453L188.938 247.562C184.484 246.531 182.141 244.094 182.141 240.719C182.141 236.359 185.938 233.219 191.562 233.219C196.812 233.219 200.141 236.031 200.656 240.156H196.719ZM216.781 259.516C209.562 259.516 205.156 254.031 205.156 246.391C205.156 238.656 209.75 233.219 216.688 233.219C222.125 233.219 226.156 236.406 226.812 241.234H222.781C222.219 238.891 220.156 236.781 216.781 236.781C212.234 236.781 209.188 240.531 209.188 246.25C209.188 252.156 212.141 255.906 216.781 255.906C219.781 255.906 222.078 254.312 222.781 251.5H226.812C226.156 256.047 222.453 259.516 216.781 259.516ZM231.781 259V233.547H235.672V237.438H235.953C236.891 234.859 239.516 233.125 242.516 233.125C243.125 233.125 244.156 233.172 244.625 233.219V237.297C244.344 237.203 243.219 237.016 242.188 237.016C238.531 237.016 235.812 239.547 235.812 242.969V259H231.781ZM258.406 259.516C251.047 259.516 246.5 254.312 246.5 246.484C246.5 238.656 251.094 233.219 258.031 233.219C263.375 233.219 269 236.5 269 245.922V247.609H250.531C250.719 253 253.859 255.953 258.406 255.953C261.453 255.953 263.375 254.641 264.312 253.047H268.625C267.406 256.891 263.656 259.516 258.406 259.516ZM250.578 244.188H264.922C264.922 239.922 262.203 236.781 258.031 236.781C253.625 236.781 250.812 240.25 250.578 244.188ZM284.938 259.516C277.578 259.516 273.031 254.312 273.031 246.484C273.031 238.656 277.625 233.219 284.562 233.219C289.906 233.219 295.531 236.5 295.531 245.922V247.609H277.062C277.25 253 280.391 255.953 284.938 255.953C287.984 255.953 289.906 254.641 290.844 253.047H295.156C293.938 256.891 290.188 259.516 284.938 259.516ZM277.109 244.188H291.453C291.453 239.922 288.734 236.781 284.562 236.781C280.156 236.781 277.344 240.25 277.109 244.188ZM304.812 243.719V259H300.781V233.547H304.672V237.531H305C306.219 234.953 308.562 233.219 312.453 233.219C317.609 233.219 321.031 236.359 321.031 242.828V259H317V243.109C317 239.172 314.844 236.828 311.234 236.828C307.531 236.828 304.812 239.312 304.812 243.719ZM341.656 240.156C341.094 238.047 339.5 236.641 336.5 236.641C333.359 236.641 331.109 238.328 331.109 240.484C331.109 242.172 332.469 243.344 335.469 244.047L339.266 244.984C343.812 246.062 346.062 248.312 346.062 251.875C346.062 256.281 342.453 259.516 336.078 259.516C330.359 259.516 326.938 256.984 326.281 252.344H330.5C330.969 254.828 332.797 256 335.984 256C339.594 256 341.891 254.5 341.891 252.109C341.891 250.328 340.625 249.109 337.719 248.453L333.875 247.562C329.422 246.531 327.078 244.094 327.078 240.719C327.078 236.359 330.875 233.219 336.5 233.219C341.75 233.219 345.078 236.031 345.594 240.156H341.656ZM355.344 243.719V259H351.312V225.062H355.344V237.531H355.672C356.844 234.906 359.141 233.219 363.172 233.219C368.375 233.219 371.844 236.312 371.844 242.828V259H367.812V243.109C367.812 239.125 365.609 236.828 361.953 236.828C358.156 236.828 355.344 239.312 355.344 243.719ZM388.719 259.516C381.781 259.516 377.094 254.312 377.094 246.391C377.094 238.469 381.781 233.219 388.719 233.219C395.609 233.219 400.25 238.469 400.25 246.391C400.25 254.312 395.609 259.516 388.719 259.516ZM388.719 255.953C393.828 255.953 396.219 251.453 396.219 246.391C396.219 241.328 393.828 236.781 388.719 236.781C383.516 236.781 381.125 241.328 381.125 246.391C381.125 251.453 383.516 255.953 388.719 255.953ZM416.656 233.547V236.922H411.312V251.688C411.312 254.969 412.906 255.484 414.641 255.484C415.391 255.484 416.422 255.438 417.031 255.391V259.141C416.422 259.234 415.391 259.328 414.219 259.328C410.844 259.328 407.234 257.219 407.234 252.719V236.922H403.391V233.547H407.234V227.453H411.312V233.547H416.656ZM439.438 259V262.703H418.203V259H439.438ZM447.969 259L440.234 233.547H444.5L449.938 252.953H450.172L455.562 233.547H459.875L465.172 252.859H465.453L470.891 233.547H475.109L467.375 259H463.391L457.859 239.594H457.484L452 259H447.969ZM479.562 259V233.547H483.594V259H479.562ZM481.578 229.328C480.031 229.328 478.766 228.156 478.766 226.656C478.766 225.156 480.031 223.984 481.578 223.984C483.125 223.984 484.438 225.156 484.438 226.656C484.438 228.156 483.125 229.328 481.578 229.328ZM499.625 259.516C493.297 259.516 488.797 254.406 488.797 246.344C488.797 238.281 493.297 233.219 499.672 233.219C504.594 233.219 506.188 236.219 507.031 237.578H507.312V225.062H511.391V259H507.453V255.109H507.031C506.141 256.516 504.5 259.516 499.625 259.516ZM500.188 255.906C504.828 255.906 507.453 251.969 507.453 246.25C507.453 240.625 504.922 236.828 500.188 236.828C495.312 236.828 492.875 240.953 492.875 246.25C492.875 251.688 495.359 255.906 500.188 255.906ZM529.062 259.516C521.703 259.516 517.156 254.312 517.156 246.484C517.156 238.656 521.75 233.219 528.688 233.219C534.031 233.219 539.656 236.5 539.656 245.922V247.609H521.188C521.375 253 524.516 255.953 529.062 255.953C532.109 255.953 534.031 254.641 534.969 253.047H539.281C538.062 256.891 534.312 259.516 529.062 259.516ZM521.234 244.188H535.578C535.578 239.922 532.859 236.781 528.688 236.781C524.281 236.781 521.469 240.25 521.234 244.188ZM305 316V290.547H308.891V294.531H309.219C310.297 291.812 312.734 290.219 316.062 290.219C319.391 290.219 321.641 291.812 322.859 294.531H323.141C324.453 291.906 327.125 290.219 330.781 290.219C335.328 290.219 338.562 292.984 338.562 298.984V316H334.531V299.031C334.531 295.281 332.141 293.828 329.375 293.828C325.812 293.828 323.797 296.219 323.797 299.453V316H319.719V298.609C319.719 295.75 317.656 293.828 314.75 293.828C311.703 293.828 309.031 296.406 309.031 300.109V316H305ZM355.438 316.516C348.5 316.516 343.812 311.312 343.812 303.391C343.812 295.469 348.5 290.219 355.438 290.219C362.328 290.219 366.969 295.469 366.969 303.391C366.969 311.312 362.328 316.516 355.438 316.516ZM355.438 312.953C360.547 312.953 362.938 308.453 362.938 303.391C362.938 298.328 360.547 293.781 355.438 293.781C350.234 293.781 347.844 298.328 347.844 303.391C347.844 308.453 350.234 312.953 355.438 312.953ZM382.672 316.516C375.453 316.516 371.047 311.031 371.047 303.391C371.047 295.656 375.641 290.219 382.578 290.219C388.016 290.219 392.047 293.406 392.703 298.234H388.672C388.109 295.891 386.047 293.781 382.672 293.781C378.125 293.781 375.078 297.531 375.078 303.25C375.078 309.156 378.031 312.906 382.672 312.906C385.672 312.906 387.969 311.312 388.672 308.5H392.703C392.047 313.047 388.344 316.516 382.672 316.516ZM397.672 316V282.062H401.703V301.797H402.172L413.188 290.547H418.156L407.422 301.422L418.953 316H413.844L404.422 304L401.703 306.484V316H397.672Z"
  />
</svg>
