<svg width="720" height="540" viewBox="0 0 720 540" fill="none" xmlns="http://www.w3.org/2000/svg">
<rect width="720" height="540" fill="#FDE047"/>
<g clip-path="url(#clip0_1_4)">
<path d="M194.063 410.448H171.751V408.635H181.79V402.716H174.438V391.048H191.32V402.716H183.939V408.635H194.063V410.448ZM189.171 400.932V392.832H176.587V400.932H189.171ZM216.552 413.592H214.403V388.839H216.552V413.592ZM197.039 399.431C197.039 394.22 199.358 390.708 203.402 390.708C207.503 390.708 209.793 394.22 209.793 399.459C209.793 404.699 207.503 408.211 203.402 408.211C199.358 408.211 197.039 404.699 197.039 399.431ZM207.757 399.459C207.757 395.381 206.032 392.577 203.402 392.577C200.801 392.577 199.075 395.381 199.075 399.459C199.075 403.509 200.801 406.341 203.402 406.341C206.032 406.341 207.757 403.509 207.757 399.459ZM238.729 394.928H234.12V393.143H238.729V388.839H240.878V406.823H238.729V400.394H234.12V398.61H238.729V394.928ZM241.416 412.77H224.957V405.18H227.107V410.958H241.416V412.77ZM233.073 402.603H221.79V391.048H233.073V402.603ZM230.896 400.847V392.832H223.939V400.847H230.896ZM266.017 393.483V391.671H270.626V388.839H272.775V401.81H270.626V398.779H266.017V396.939H270.626V393.483H266.017ZM273.709 413.422H256.911V407.219H270.626V404.699H256.882V402.914H272.775V408.862H259.06V411.638H273.709V413.422ZM259.145 389.688C262.567 389.688 265.366 392.067 265.366 395.522C265.366 399.006 262.567 401.272 259.145 401.272C255.723 401.272 252.895 399.034 252.895 395.522C252.895 392.096 255.695 389.688 259.145 389.688ZM259.145 391.557C256.826 391.557 254.988 393.115 254.988 395.494C254.988 397.901 256.798 399.403 259.145 399.403C261.605 399.403 263.245 397.901 263.245 395.522C263.245 393.143 261.605 391.557 259.145 391.557ZM297.243 406.823H295.094V388.839H297.243V406.823ZM297.922 413.025H280.983V406.002H283.132V411.241H297.922V413.025ZM291.814 401.243L292.012 402.999C289.467 403.424 285.423 403.707 281.039 403.736H278.296V395.976H287.572V392.265H278.183V390.481H289.721V397.703H280.445V401.923C284.32 401.923 289.269 401.782 291.814 401.243ZM320.58 388.839V398.666H324.596V400.479H320.58V413.592H318.431V388.839H320.58ZM304.659 405.69H306.073C309.269 405.69 314.161 405.407 316.536 404.897L316.763 406.681C314.104 407.191 309.212 407.531 304.914 407.531H302.482V391.416H314.217V393.228H304.659V405.69ZM325.451 414.102L326.497 408.579H329.07L326.978 414.102H325.451ZM359.79 395.409C359.79 398.695 356.481 400.96 350.938 400.96C345.424 400.96 342.087 398.723 342.087 395.409C342.087 392.124 345.424 389.886 350.938 389.886C356.481 389.886 359.79 392.124 359.79 395.409ZM350.938 391.756C346.781 391.756 344.236 393.143 344.236 395.409C344.236 397.703 346.781 399.091 350.938 399.091C355.152 399.091 357.697 397.703 357.697 395.409C357.697 393.143 355.152 391.756 350.938 391.756ZM352.013 413.62H349.864V405.01H339.881V403.198H362.222V405.01H352.013V413.62ZM382.42 388.839H384.569V413.592H382.42V388.839ZM380.158 405.067L380.356 406.851C377.782 407.248 373.54 407.673 368.111 407.673H365.594V398.128H374.954V392.917H365.481V391.133H377.132V399.912H367.743V405.832H368.337C372.268 405.832 377.16 405.605 380.158 405.067ZM407.735 388.839V399.148H411.779V400.989H407.735V413.592H405.586V388.839H407.735ZM401.316 391.501C401.174 399.544 396.537 405.35 390.174 408.664L388.845 406.964C395.009 404.104 398.544 398.893 398.997 393.313H389.693V391.501H401.316ZM443.648 400.507H439.632V413.592H437.483V388.839H439.632V398.666H443.648V400.507ZM433.071 407.446H421.449V390.934H423.598V397.222H430.894V390.934H433.071V407.446ZM430.894 405.633V399.006H423.598V405.633H430.894ZM464.072 388.839V398.808H468.06V400.62H464.072V413.592H461.951V388.839H464.072ZM459.774 405.039L460.057 406.766C457.285 407.333 452.139 407.701 448.095 407.701H446.002V398.128H455.221V392.917H445.945V391.133H457.37V399.912H448.151V405.888C452.082 405.917 456.465 405.662 459.774 405.039ZM491.878 403.424H469.565V401.612H491.878V403.424ZM489.502 413.054H472.478V405.747H474.627V411.269H489.502V413.054ZM489.389 398.525H472.563V389.886H474.712V396.74H489.389V398.525ZM520.466 388.839V399.148H524.51V400.989H520.466V413.592H518.317V388.839H520.466ZM514.047 391.501C513.905 399.544 509.268 405.35 502.905 408.664L501.576 406.964C507.74 404.104 511.275 398.893 511.728 393.313H502.424V391.501H514.047ZM546.771 413.592H544.65V388.839H546.771V413.592ZM541.963 412.346H539.899V400.281H535.742V398.468H539.899V389.433H541.963V412.346ZM536.364 391.727C536.195 399.091 532.971 404.529 527.145 408.296L525.675 406.71C530.85 403.792 533.904 398.581 534.158 393.54H526.636V391.727H536.364Z" fill="#27272A"/>
<path d="M241.122 305.792C241.122 305.154 241.122 304.517 241.122 303.774C241.122 302.924 241.228 302.181 241.228 301.437C235.607 301.012 230.093 300.375 225.003 299.525C219.488 298.57 217.367 295.596 216.095 288.268C214.61 279.028 214.716 265.221 215.777 256.83C216.837 249.29 219.488 246.847 225.003 245.572C245.682 240.687 272.618 240.687 293.297 245.572C298.917 246.847 301.462 249.29 302.417 256.83C303.583 265.221 303.689 279.028 302.099 288.268C300.932 295.596 298.917 298.57 293.297 299.525C288.1 300.375 282.586 301.012 276.966 301.437C276.966 302.181 277.072 302.924 277.072 303.774C277.072 304.517 277.072 305.154 277.072 305.792C282.586 305.473 288.1 305.048 293.827 304.411C301.993 303.455 306.659 309.934 306.659 317.899C306.659 327.777 301.993 332.662 293.721 333.512C270.073 335.954 248.121 335.954 224.473 333.512C216.413 332.662 211.641 327.777 211.641 317.899C211.641 309.934 216.413 303.455 224.473 304.411C230.093 304.942 235.607 305.473 241.122 305.792ZM250.348 268.513C249.712 269.575 250.242 270.531 251.727 271.381C256.499 274.036 262.119 273.93 266.891 271.381C267.846 270.85 268.376 269.894 267.952 268.725C267.74 267.982 266.679 267.239 265.725 267.77C261.801 269.894 256.499 269.788 252.787 267.663C252.045 267.239 250.772 267.557 250.348 268.513ZM389.608 336.379C381.018 336.379 375.186 331.494 376.246 321.935C378.897 299.101 378.897 276.16 376.352 254.281C375.186 243.767 381.018 238.775 389.608 238.775C397.031 238.775 402.334 243.023 403.182 251.732C405.515 274.673 405.515 300.588 403.182 323.634C402.334 332.131 397.031 336.379 389.608 336.379ZM342.947 332.662C321.632 332.662 314.315 314.713 314.315 287.205C314.315 259.592 320.571 241.749 342.947 241.749C365.324 241.749 371.58 259.592 371.58 287.205C371.58 314.713 364.263 332.662 342.947 332.662ZM341.356 294.109C341.356 295.808 344.644 295.808 344.644 294.109V280.408C344.644 278.603 341.356 278.603 341.356 280.408V294.109ZM442.651 305.686C442.651 304.092 442.757 302.605 442.863 301.012C430.668 301.012 416.457 300.163 415.821 284.657C415.291 271.487 420.699 265.221 427.38 263.946C436.076 262.247 443.499 257.892 444.984 250.777C446.787 241.961 452.195 240.156 460.679 240.156C469.163 240.156 473.616 241.961 475.949 250.458C477.964 257.999 487.615 262.141 495.674 264.052C503.416 265.858 506.597 275.098 505.642 284.657C504.37 297.083 499.28 301.331 488.145 301.331C484.221 301.331 480.934 301.225 478.389 300.906C478.495 302.499 478.601 304.092 478.601 305.686C484.115 305.367 489.629 304.836 495.356 304.305C503.522 303.349 508.188 309.828 508.188 317.793C508.188 327.67 503.522 332.556 495.25 333.405C471.602 335.848 449.65 335.848 426.002 333.405C417.942 332.556 413.17 327.67 413.17 317.793C413.17 309.828 417.942 303.349 426.002 304.305C431.622 304.836 437.136 305.367 442.651 305.686ZM464.815 292.41C465.451 292.41 466.087 292.516 466.723 292.516C467.466 292.516 468.102 292.622 468.738 292.622C468.314 290.392 468.208 287.737 468.208 284.338C468.208 275.735 465.451 269.894 458.982 265.008C457.179 263.628 454.528 266.07 456.861 267.663C461.845 271.168 465.027 275.735 465.027 285.4C465.027 288.161 465.027 290.498 464.815 292.41Z" fill="black"/>
<g filter="url(#filter0_dd_1_4)">
<path d="M223.005 209.478C215.227 208.126 212.236 204.07 210.59 193.553C208.347 180.482 208.496 154.64 209.992 142.771C211.637 132.104 215.227 128.649 223.005 126.846C252.172 119.935 290.165 119.935 319.332 126.846C327.259 128.649 330.849 132.104 332.345 142.771C333.841 154.64 333.99 180.482 331.747 193.553C330.101 204.07 327.259 208.126 319.332 209.478C289.716 214.436 252.621 214.436 223.005 209.478ZM258.754 162.152C257.856 163.655 258.604 165.157 260.698 166.209C267.429 169.815 275.357 169.664 282.087 166.209C283.434 165.608 284.182 163.955 283.583 162.303C283.284 161.251 281.788 160.35 280.442 160.95C274.908 163.955 267.429 163.805 262.194 160.8C261.147 160.35 259.352 160.65 258.754 162.152Z" fill="black"/>
</g>
<g filter="url(#filter1_dd_1_4)">
<path d="M421.192 213.605C399.504 213.605 386.192 200.084 386.192 175.745C386.192 138.485 411.022 116.85 452.006 116.85C491.494 116.85 512.884 141.039 512.884 177.247C512.884 200.084 507.348 213.605 489.698 213.605C472.049 213.605 462.476 204.892 462.178 185.661C461.877 169.284 455.596 159.218 447.817 155.162C444.079 153.058 441.237 158.016 444.827 159.819C451.407 163.275 456.045 170.636 456.045 184.759C456.045 205.192 442.732 213.605 421.192 213.605Z" fill="#2563EB"/>
</g>
<g filter="url(#filter2_dd_1_4)">
<path d="M298.619 173.191C298.619 138.635 320.906 116.85 362.04 116.85C402.873 116.85 425.311 138.635 425.311 173.191C425.311 203.089 409.006 214.206 362.04 214.206C314.774 214.206 298.619 203.089 298.619 173.191ZM352.317 183.107H371.464C374.005 183.107 374.005 177.548 371.464 177.548H352.317C349.774 177.548 349.774 183.107 352.317 183.107Z" fill="#FACC15"/>
</g>
<path d="M348.929 167.384C351.579 167.384 353.728 165.232 353.728 162.577C353.728 159.923 351.579 157.771 348.929 157.771C346.278 157.771 344.13 159.923 344.13 162.577C344.13 165.232 346.278 167.384 348.929 167.384Z" fill="#FAFAFA"/>
<path d="M375.295 167.384C377.946 167.384 380.095 165.232 380.095 162.577C380.095 159.923 377.946 157.771 375.295 157.771C372.645 157.771 370.496 159.923 370.496 162.577C370.496 165.232 372.645 167.384 375.295 167.384Z" fill="#FAFAFA"/>
<path d="M379.126 170.941H344.383V188.39H379.126V170.941Z" fill="#FACC15"/>
<path d="M352.524 179.424C356.516 182.633 363.305 186.644 372.89 179.424" stroke="white" stroke-width="3.90057" stroke-linecap="round"/>
</g>
<defs>
<filter id="filter0_dd_1_4" x="192.884" y="113.662" width="156.569" height="123.534" filterUnits="userSpaceOnUse" color-interpolation-filters="sRGB">
<feFlood flood-opacity="0" result="BackgroundImageFix"/>
<feColorMatrix in="SourceAlpha" type="matrix" values="0 0 0 0 0 0 0 0 0 0 0 0 0 0 0 0 0 0 127 0" result="hardAlpha"/>
<feOffset dy="8"/>
<feGaussianBlur stdDeviation="8"/>
<feComposite in2="hardAlpha" operator="out"/>
<feColorMatrix type="matrix" values="0 0 0 0 0.0941176 0 0 0 0 0.0941176 0 0 0 0 0.105882 0 0 0 0.1 0"/>
<feBlend mode="normal" in2="BackgroundImageFix" result="effect1_dropShadow_1_4"/>
<feColorMatrix in="SourceAlpha" type="matrix" values="0 0 0 0 0 0 0 0 0 0 0 0 0 0 0 0 0 0 127 0" result="hardAlpha"/>
<feOffset/>
<feGaussianBlur stdDeviation="0.5"/>
<feComposite in2="hardAlpha" operator="out"/>
<feColorMatrix type="matrix" values="0 0 0 0 0.0941176 0 0 0 0 0.0941176 0 0 0 0 0.105882 0 0 0 0.3 0"/>
<feBlend mode="normal" in2="effect1_dropShadow_1_4" result="effect2_dropShadow_1_4"/>
<feBlend mode="normal" in="SourceGraphic" in2="effect2_dropShadow_1_4" result="shape"/>
</filter>
<filter id="filter1_dd_1_4" x="370.192" y="108.85" width="158.692" height="128.755" filterUnits="userSpaceOnUse" color-interpolation-filters="sRGB">
<feFlood flood-opacity="0" result="BackgroundImageFix"/>
<feColorMatrix in="SourceAlpha" type="matrix" values="0 0 0 0 0 0 0 0 0 0 0 0 0 0 0 0 0 0 127 0" result="hardAlpha"/>
<feOffset dy="8"/>
<feGaussianBlur stdDeviation="8"/>
<feComposite in2="hardAlpha" operator="out"/>
<feColorMatrix type="matrix" values="0 0 0 0 0.0941176 0 0 0 0 0.0941176 0 0 0 0 0.105882 0 0 0 0.1 0"/>
<feBlend mode="normal" in2="BackgroundImageFix" result="effect1_dropShadow_1_4"/>
<feColorMatrix in="SourceAlpha" type="matrix" values="0 0 0 0 0 0 0 0 0 0 0 0 0 0 0 0 0 0 127 0" result="hardAlpha"/>
<feOffset/>
<feGaussianBlur stdDeviation="0.5"/>
<feComposite in2="hardAlpha" operator="out"/>
<feColorMatrix type="matrix" values="0 0 0 0 0.0941176 0 0 0 0 0.0941176 0 0 0 0 0.105882 0 0 0 0.3 0"/>
<feBlend mode="normal" in2="effect1_dropShadow_1_4" result="effect2_dropShadow_1_4"/>
<feBlend mode="normal" in="SourceGraphic" in2="effect2_dropShadow_1_4" result="shape"/>
</filter>
<filter id="filter2_dd_1_4" x="282.619" y="108.85" width="158.691" height="129.356" filterUnits="userSpaceOnUse" color-interpolation-filters="sRGB">
<feFlood flood-opacity="0" result="BackgroundImageFix"/>
<feColorMatrix in="SourceAlpha" type="matrix" values="0 0 0 0 0 0 0 0 0 0 0 0 0 0 0 0 0 0 127 0" result="hardAlpha"/>
<feOffset dy="8"/>
<feGaussianBlur stdDeviation="8"/>
<feComposite in2="hardAlpha" operator="out"/>
<feColorMatrix type="matrix" values="0 0 0 0 0.0941176 0 0 0 0 0.0941176 0 0 0 0 0.105882 0 0 0 0.1 0"/>
<feBlend mode="normal" in2="BackgroundImageFix" result="effect1_dropShadow_1_4"/>
<feColorMatrix in="SourceAlpha" type="matrix" values="0 0 0 0 0 0 0 0 0 0 0 0 0 0 0 0 0 0 127 0" result="hardAlpha"/>
<feOffset/>
<feGaussianBlur stdDeviation="0.5"/>
<feComposite in2="hardAlpha" operator="out"/>
<feColorMatrix type="matrix" values="0 0 0 0 0.0941176 0 0 0 0 0.0941176 0 0 0 0 0.105882 0 0 0 0.3 0"/>
<feBlend mode="normal" in2="effect1_dropShadow_1_4" result="effect2_dropShadow_1_4"/>
<feBlend mode="normal" in="SourceGraphic" in2="effect2_dropShadow_1_4" result="shape"/>
</filter>
<clipPath id="clip0_1_4">
<rect width="380" height="308" fill="white" transform="translate(170 116)"/>
</clipPath>
</defs>
</svg>
