<svg width="540" height="720" viewBox="0 0 540 720" fill="none" xmlns="http://www.w3.org/2000/svg">
<rect width="540" height="720" fill="#FDE047"/>
<g clip-path="url(#clip0_1_3)">
<path d="M104.063 500.448H81.7512V498.635H91.7903V492.716H84.4377V481.048H101.32V492.716H93.9395V498.635H104.063V500.448ZM99.1711 490.932V482.832H86.5869V490.932H99.1711ZM126.552 503.592H124.403V478.839H126.552V503.592ZM107.039 489.431C107.039 484.22 109.358 480.708 113.402 480.708C117.503 480.708 119.793 484.22 119.793 489.459C119.793 494.699 117.503 498.211 113.402 498.211C109.358 498.211 107.039 494.699 107.039 489.431ZM117.757 489.459C117.757 485.381 116.032 482.577 113.402 482.577C110.801 482.577 109.075 485.381 109.075 489.459C109.075 493.509 110.801 496.341 113.402 496.341C116.032 496.341 117.757 493.509 117.757 489.459ZM148.729 484.928H144.12V483.143H148.729V478.839H150.878V496.823H148.729V490.394H144.12V488.61H148.729V484.928ZM151.416 502.77H134.957V495.18H137.107V500.958H151.416V502.77ZM143.073 492.603H131.79V481.048H143.073V492.603ZM140.896 490.847V482.832H133.939V490.847H140.896ZM176.017 483.483V481.671H180.626V478.839H182.775V491.81H180.626V488.779H176.017V486.939H180.626V483.483H176.017ZM183.709 503.422H166.911V497.219H180.626V494.699H166.882V492.914H182.775V498.862H169.06V501.638H183.709V503.422ZM169.145 479.688C172.567 479.688 175.366 482.067 175.366 485.522C175.366 489.006 172.567 491.272 169.145 491.272C165.723 491.272 162.895 489.034 162.895 485.522C162.895 482.096 165.695 479.688 169.145 479.688ZM169.145 481.557C166.826 481.557 164.988 483.115 164.988 485.494C164.988 487.901 166.798 489.403 169.145 489.403C171.605 489.403 173.245 487.901 173.245 485.522C173.245 483.143 171.605 481.557 169.145 481.557ZM207.243 496.823H205.094V478.839H207.243V496.823ZM207.922 503.025H190.983V496.002H193.132V501.241H207.922V503.025ZM201.814 491.243L202.012 492.999C199.467 493.424 195.423 493.707 191.039 493.736H188.296V485.976H197.572V482.265H188.183V480.481H199.721V487.703H190.445V491.923C194.32 491.923 199.269 491.782 201.814 491.243ZM230.58 478.839V488.666H234.596V490.479H230.58V503.592H228.431V478.839H230.58ZM214.659 495.69H216.073C219.269 495.69 224.161 495.407 226.536 494.897L226.763 496.681C224.104 497.191 219.212 497.531 214.914 497.531H212.482V481.416H224.217V483.228H214.659V495.69ZM235.451 504.102L236.497 498.579H239.07L236.978 504.102H235.451ZM269.79 485.409C269.79 488.695 266.481 490.96 260.938 490.96C255.424 490.96 252.087 488.723 252.087 485.409C252.087 482.124 255.424 479.886 260.938 479.886C266.481 479.886 269.79 482.124 269.79 485.409ZM260.938 481.756C256.781 481.756 254.236 483.143 254.236 485.409C254.236 487.703 256.781 489.091 260.938 489.091C265.152 489.091 267.697 487.703 267.697 485.409C267.697 483.143 265.152 481.756 260.938 481.756ZM262.013 503.62H259.864V495.01H249.881V493.198H272.222V495.01H262.013V503.62ZM292.42 478.839H294.569V503.592H292.42V478.839ZM290.158 495.067L290.356 496.851C287.782 497.248 283.54 497.673 278.111 497.673H275.594V488.128H284.954V482.917H275.481V481.133H287.132V489.912H277.743V495.832H278.337C282.268 495.832 287.16 495.605 290.158 495.067ZM317.735 478.839V489.148H321.779V490.989H317.735V503.592H315.586V478.839H317.735ZM311.316 481.501C311.174 489.544 306.537 495.35 300.174 498.664L298.845 496.964C305.009 494.104 308.544 488.893 308.997 483.313H299.693V481.501H311.316ZM353.648 490.507H349.632V503.592H347.483V478.839H349.632V488.666H353.648V490.507ZM343.071 497.446H331.449V480.934H333.598V487.222H340.894V480.934H343.071V497.446ZM340.894 495.633V489.006H333.598V495.633H340.894ZM374.072 478.839V488.808H378.06V490.62H374.072V503.592H371.951V478.839H374.072ZM369.774 495.039L370.057 496.766C367.285 497.333 362.139 497.701 358.095 497.701H356.002V488.128H365.221V482.917H355.945V481.133H367.37V489.912H358.151V495.888C362.082 495.917 366.465 495.662 369.774 495.039ZM401.878 493.424H379.565V491.612H401.878V493.424ZM399.502 503.054H382.478V495.747H384.627V501.269H399.502V503.054ZM399.389 488.525H382.563V479.886H384.712V486.74H399.389V488.525ZM430.466 478.839V489.148H434.51V490.989H430.466V503.592H428.317V478.839H430.466ZM424.047 481.501C423.905 489.544 419.268 495.35 412.905 498.664L411.576 496.964C417.74 494.104 421.275 488.893 421.728 483.313H412.424V481.501H424.047ZM456.771 503.592H454.65V478.839H456.771V503.592ZM451.963 502.346H449.899V490.281H445.742V488.468H449.899V479.433H451.963V502.346ZM446.364 481.727C446.195 489.091 442.971 494.529 437.145 498.296L435.675 496.71C440.85 493.792 443.904 488.581 444.158 483.54H436.636V481.727H446.364Z" fill="#27272A"/>
<path d="M151.122 395.792C151.122 395.154 151.122 394.517 151.122 393.774C151.122 392.924 151.228 392.181 151.228 391.437C145.607 391.012 140.093 390.375 135.003 389.525C129.488 388.57 127.367 385.596 126.095 378.268C124.61 369.028 124.716 355.221 125.777 346.83C126.837 339.29 129.488 336.847 135.003 335.572C155.682 330.687 182.618 330.687 203.297 335.572C208.917 336.847 211.462 339.29 212.417 346.83C213.583 355.221 213.689 369.028 212.099 378.268C210.932 385.596 208.917 388.57 203.297 389.525C198.1 390.375 192.586 391.012 186.966 391.437C186.966 392.181 187.072 392.924 187.072 393.774C187.072 394.517 187.072 395.154 187.072 395.792C192.586 395.473 198.1 395.048 203.827 394.411C211.993 393.455 216.659 399.934 216.659 407.899C216.659 417.777 211.993 422.662 203.721 423.512C180.073 425.954 158.121 425.954 134.473 423.512C126.413 422.662 121.641 417.777 121.641 407.899C121.641 399.934 126.413 393.455 134.473 394.411C140.093 394.942 145.607 395.473 151.122 395.792ZM160.348 358.513C159.712 359.575 160.242 360.531 161.727 361.381C166.499 364.036 172.119 363.93 176.891 361.381C177.846 360.85 178.376 359.894 177.952 358.725C177.74 357.982 176.679 357.239 175.725 357.77C171.801 359.894 166.499 359.788 162.787 357.663C162.045 357.239 160.772 357.557 160.348 358.513ZM299.608 426.379C291.018 426.379 285.186 421.494 286.246 411.935C288.897 389.101 288.897 366.16 286.352 344.281C285.186 333.767 291.018 328.775 299.608 328.775C307.031 328.775 312.334 333.023 313.182 341.732C315.515 364.673 315.515 390.588 313.182 413.634C312.334 422.131 307.031 426.379 299.608 426.379ZM252.947 422.662C231.632 422.662 224.315 404.713 224.315 377.205C224.315 349.592 230.571 331.749 252.947 331.749C275.324 331.749 281.58 349.592 281.58 377.205C281.58 404.713 274.263 422.662 252.947 422.662ZM251.356 384.109C251.356 385.808 254.644 385.808 254.644 384.109V370.408C254.644 368.603 251.356 368.603 251.356 370.408V384.109ZM352.651 395.686C352.651 394.092 352.757 392.605 352.863 391.012C340.668 391.012 326.457 390.163 325.821 374.657C325.291 361.487 330.699 355.221 337.38 353.946C346.076 352.247 353.499 347.892 354.984 340.777C356.787 331.961 362.195 330.156 370.679 330.156C379.163 330.156 383.616 331.961 385.949 340.458C387.964 347.999 397.615 352.141 405.674 354.052C413.416 355.858 416.597 365.098 415.642 374.657C414.37 387.083 409.28 391.331 398.145 391.331C394.221 391.331 390.934 391.225 388.389 390.906C388.495 392.499 388.601 394.092 388.601 395.686C394.115 395.367 399.629 394.836 405.356 394.305C413.522 393.349 418.188 399.828 418.188 407.793C418.188 417.67 413.522 422.556 405.25 423.405C381.602 425.848 359.65 425.848 336.002 423.405C327.942 422.556 323.17 417.67 323.17 407.793C323.17 399.828 327.942 393.349 336.002 394.305C341.622 394.836 347.136 395.367 352.651 395.686ZM374.815 382.41C375.451 382.41 376.087 382.516 376.723 382.516C377.466 382.516 378.102 382.622 378.738 382.622C378.314 380.392 378.208 377.737 378.208 374.338C378.208 365.735 375.451 359.894 368.982 355.008C367.179 353.628 364.528 356.07 366.861 357.663C371.845 361.168 375.027 365.735 375.027 375.4C375.027 378.161 375.027 380.498 374.815 382.41Z" fill="black"/>
<g filter="url(#filter0_dd_1_3)">
<path d="M133.005 299.478C125.227 298.126 122.236 294.07 120.59 283.553C118.347 270.482 118.496 244.64 119.992 232.771C121.637 222.104 125.227 218.649 133.005 216.846C162.172 209.935 200.165 209.935 229.332 216.846C237.259 218.649 240.849 222.104 242.345 232.771C243.841 244.64 243.99 270.482 241.747 283.553C240.101 294.07 237.259 298.126 229.332 299.478C199.716 304.436 162.621 304.436 133.005 299.478ZM168.754 252.152C167.856 253.655 168.604 255.157 170.698 256.209C177.429 259.815 185.357 259.664 192.087 256.209C193.434 255.608 194.182 253.955 193.583 252.303C193.284 251.251 191.788 250.35 190.442 250.95C184.908 253.955 177.429 253.805 172.194 250.8C171.147 250.35 169.352 250.65 168.754 252.152Z" fill="black"/>
</g>
<g filter="url(#filter1_dd_1_3)">
<path d="M331.192 303.606C309.504 303.606 296.192 290.084 296.192 265.745C296.192 228.485 321.022 206.85 362.006 206.85C401.494 206.85 422.884 231.039 422.884 267.247C422.884 290.084 417.348 303.606 399.698 303.606C382.049 303.606 372.476 294.892 372.178 275.661C371.877 259.285 365.596 249.218 357.817 245.162C354.079 243.058 351.237 248.016 354.827 249.819C361.407 253.275 366.045 260.637 366.045 274.759C366.045 295.192 352.732 303.606 331.192 303.606Z" fill="#2563EB"/>
</g>
<g filter="url(#filter2_dd_1_3)">
<path d="M208.619 263.191C208.619 228.635 230.906 206.85 272.04 206.85C312.873 206.85 335.311 228.635 335.311 263.191C335.311 293.089 319.006 304.206 272.04 304.206C224.774 304.206 208.619 293.089 208.619 263.191ZM262.317 273.107H281.464C284.005 273.107 284.005 267.548 281.464 267.548H262.317C259.774 267.548 259.774 273.107 262.317 273.107Z" fill="#FACC15"/>
</g>
<path d="M258.929 257.384C261.579 257.384 263.728 255.232 263.728 252.577C263.728 249.923 261.579 247.771 258.929 247.771C256.278 247.771 254.13 249.923 254.13 252.577C254.13 255.232 256.278 257.384 258.929 257.384Z" fill="#FAFAFA"/>
<path d="M285.295 257.384C287.946 257.384 290.095 255.232 290.095 252.577C290.095 249.923 287.946 247.771 285.295 247.771C282.645 247.771 280.496 249.923 280.496 252.577C280.496 255.232 282.645 257.384 285.295 257.384Z" fill="#FAFAFA"/>
<path d="M289.126 260.941H254.383V278.39H289.126V260.941Z" fill="#FACC15"/>
<path d="M262.524 269.424C266.516 272.633 273.305 276.644 282.89 269.424" stroke="white" stroke-width="3.90057" stroke-linecap="round"/>
</g>
<defs>
<filter id="filter0_dd_1_3" x="102.884" y="203.662" width="156.569" height="123.534" filterUnits="userSpaceOnUse" color-interpolation-filters="sRGB">
<feFlood flood-opacity="0" result="BackgroundImageFix"/>
<feColorMatrix in="SourceAlpha" type="matrix" values="0 0 0 0 0 0 0 0 0 0 0 0 0 0 0 0 0 0 127 0" result="hardAlpha"/>
<feOffset dy="8"/>
<feGaussianBlur stdDeviation="8"/>
<feComposite in2="hardAlpha" operator="out"/>
<feColorMatrix type="matrix" values="0 0 0 0 0.0941176 0 0 0 0 0.0941176 0 0 0 0 0.105882 0 0 0 0.1 0"/>
<feBlend mode="normal" in2="BackgroundImageFix" result="effect1_dropShadow_1_3"/>
<feColorMatrix in="SourceAlpha" type="matrix" values="0 0 0 0 0 0 0 0 0 0 0 0 0 0 0 0 0 0 127 0" result="hardAlpha"/>
<feOffset/>
<feGaussianBlur stdDeviation="0.5"/>
<feComposite in2="hardAlpha" operator="out"/>
<feColorMatrix type="matrix" values="0 0 0 0 0.0941176 0 0 0 0 0.0941176 0 0 0 0 0.105882 0 0 0 0.3 0"/>
<feBlend mode="normal" in2="effect1_dropShadow_1_3" result="effect2_dropShadow_1_3"/>
<feBlend mode="normal" in="SourceGraphic" in2="effect2_dropShadow_1_3" result="shape"/>
</filter>
<filter id="filter1_dd_1_3" x="280.192" y="198.85" width="158.692" height="128.755" filterUnits="userSpaceOnUse" color-interpolation-filters="sRGB">
<feFlood flood-opacity="0" result="BackgroundImageFix"/>
<feColorMatrix in="SourceAlpha" type="matrix" values="0 0 0 0 0 0 0 0 0 0 0 0 0 0 0 0 0 0 127 0" result="hardAlpha"/>
<feOffset dy="8"/>
<feGaussianBlur stdDeviation="8"/>
<feComposite in2="hardAlpha" operator="out"/>
<feColorMatrix type="matrix" values="0 0 0 0 0.0941176 0 0 0 0 0.0941176 0 0 0 0 0.105882 0 0 0 0.1 0"/>
<feBlend mode="normal" in2="BackgroundImageFix" result="effect1_dropShadow_1_3"/>
<feColorMatrix in="SourceAlpha" type="matrix" values="0 0 0 0 0 0 0 0 0 0 0 0 0 0 0 0 0 0 127 0" result="hardAlpha"/>
<feOffset/>
<feGaussianBlur stdDeviation="0.5"/>
<feComposite in2="hardAlpha" operator="out"/>
<feColorMatrix type="matrix" values="0 0 0 0 0.0941176 0 0 0 0 0.0941176 0 0 0 0 0.105882 0 0 0 0.3 0"/>
<feBlend mode="normal" in2="effect1_dropShadow_1_3" result="effect2_dropShadow_1_3"/>
<feBlend mode="normal" in="SourceGraphic" in2="effect2_dropShadow_1_3" result="shape"/>
</filter>
<filter id="filter2_dd_1_3" x="192.619" y="198.85" width="158.691" height="129.356" filterUnits="userSpaceOnUse" color-interpolation-filters="sRGB">
<feFlood flood-opacity="0" result="BackgroundImageFix"/>
<feColorMatrix in="SourceAlpha" type="matrix" values="0 0 0 0 0 0 0 0 0 0 0 0 0 0 0 0 0 0 127 0" result="hardAlpha"/>
<feOffset dy="8"/>
<feGaussianBlur stdDeviation="8"/>
<feComposite in2="hardAlpha" operator="out"/>
<feColorMatrix type="matrix" values="0 0 0 0 0.0941176 0 0 0 0 0.0941176 0 0 0 0 0.105882 0 0 0 0.1 0"/>
<feBlend mode="normal" in2="BackgroundImageFix" result="effect1_dropShadow_1_3"/>
<feColorMatrix in="SourceAlpha" type="matrix" values="0 0 0 0 0 0 0 0 0 0 0 0 0 0 0 0 0 0 127 0" result="hardAlpha"/>
<feOffset/>
<feGaussianBlur stdDeviation="0.5"/>
<feComposite in2="hardAlpha" operator="out"/>
<feColorMatrix type="matrix" values="0 0 0 0 0.0941176 0 0 0 0 0.0941176 0 0 0 0 0.105882 0 0 0 0.3 0"/>
<feBlend mode="normal" in2="effect1_dropShadow_1_3" result="effect2_dropShadow_1_3"/>
<feBlend mode="normal" in="SourceGraphic" in2="effect2_dropShadow_1_3" result="shape"/>
</filter>
<clipPath id="clip0_1_3">
<rect width="380" height="308" fill="white" transform="translate(80 206)"/>
</clipPath>
</defs>
</svg>
