<svg
  width="540"
  height="720"
  viewBox="0 0 540 720"
  fill="none"
  xmlns="http://www.w3.org/2000/svg"
>
  <rect
    width="540"
    height="720"
    fill="white"
  />
  <path
    fill="black"
    d="M82.5547 330.156C81.9922 328.047 80.3984 326.641 77.3984 326.641C74.2578 326.641 72.0078 328.328 72.0078 330.484C72.0078 332.172 73.3672 333.344 76.3672 334.047L80.1641 334.984C84.7109 336.062 86.9609 338.312 86.9609 341.875C86.9609 346.281 83.3516 349.516 76.9766 349.516C71.2578 349.516 67.8359 346.984 67.1797 342.344H71.3984C71.8672 344.828 73.6953 346 76.8828 346C80.4922 346 82.7891 344.5 82.7891 342.109C82.7891 340.328 81.5234 339.109 78.6172 338.453L74.7734 337.562C70.3203 336.531 67.9766 334.094 67.9766 330.719C67.9766 326.359 71.7734 323.219 77.3984 323.219C82.6484 323.219 85.9766 326.031 86.4922 330.156H82.5547ZM102.617 349.516C95.3984 349.516 90.9922 344.031 90.9922 336.391C90.9922 328.656 95.5859 323.219 102.523 323.219C107.961 323.219 111.992 326.406 112.648 331.234H108.617C108.055 328.891 105.992 326.781 102.617 326.781C98.0703 326.781 95.0234 330.531 95.0234 336.25C95.0234 342.156 97.9766 345.906 102.617 345.906C105.617 345.906 107.914 344.312 108.617 341.5H112.648C111.992 346.047 108.289 349.516 102.617 349.516ZM117.617 349V323.547H121.508V327.438H121.789C122.727 324.859 125.352 323.125 128.352 323.125C128.961 323.125 129.992 323.172 130.461 323.219V327.297C130.18 327.203 129.055 327.016 128.023 327.016C124.367 327.016 121.648 329.547 121.648 332.969V349H117.617ZM144.242 349.516C136.883 349.516 132.336 344.312 132.336 336.484C132.336 328.656 136.93 323.219 143.867 323.219C149.211 323.219 154.836 326.5 154.836 335.922V337.609H136.367C136.555 343 139.695 345.953 144.242 345.953C147.289 345.953 149.211 344.641 150.148 343.047H154.461C153.242 346.891 149.492 349.516 144.242 349.516ZM136.414 334.188H150.758C150.758 329.922 148.039 326.781 143.867 326.781C139.461 326.781 136.648 330.25 136.414 334.188ZM170.773 349.516C163.414 349.516 158.867 344.312 158.867 336.484C158.867 328.656 163.461 323.219 170.398 323.219C175.742 323.219 181.367 326.5 181.367 335.922V337.609H162.898C163.086 343 166.227 345.953 170.773 345.953C173.82 345.953 175.742 344.641 176.68 343.047H180.992C179.773 346.891 176.023 349.516 170.773 349.516ZM162.945 334.188H177.289C177.289 329.922 174.57 326.781 170.398 326.781C165.992 326.781 163.18 330.25 162.945 334.188ZM190.648 333.719V349H186.617V323.547H190.508V327.531H190.836C192.055 324.953 194.398 323.219 198.289 323.219C203.445 323.219 206.867 326.359 206.867 332.828V349H202.836V333.109C202.836 329.172 200.68 326.828 197.07 326.828C193.367 326.828 190.648 329.312 190.648 333.719ZM227.492 330.156C226.93 328.047 225.336 326.641 222.336 326.641C219.195 326.641 216.945 328.328 216.945 330.484C216.945 332.172 218.305 333.344 221.305 334.047L225.102 334.984C229.648 336.062 231.898 338.312 231.898 341.875C231.898 346.281 228.289 349.516 221.914 349.516C216.195 349.516 212.773 346.984 212.117 342.344H216.336C216.805 344.828 218.633 346 221.82 346C225.43 346 227.727 344.5 227.727 342.109C227.727 340.328 226.461 339.109 223.555 338.453L219.711 337.562C215.258 336.531 212.914 334.094 212.914 330.719C212.914 326.359 216.711 323.219 222.336 323.219C227.586 323.219 230.914 326.031 231.43 330.156H227.492ZM241.18 333.719V349H237.148V315.062H241.18V327.531H241.508C242.68 324.906 244.977 323.219 249.008 323.219C254.211 323.219 257.68 326.312 257.68 332.828V349H253.648V333.109C253.648 329.125 251.445 326.828 247.789 326.828C243.992 326.828 241.18 329.312 241.18 333.719ZM274.555 349.516C267.617 349.516 262.93 344.312 262.93 336.391C262.93 328.469 267.617 323.219 274.555 323.219C281.445 323.219 286.086 328.469 286.086 336.391C286.086 344.312 281.445 349.516 274.555 349.516ZM274.555 345.953C279.664 345.953 282.055 341.453 282.055 336.391C282.055 331.328 279.664 326.781 274.555 326.781C269.352 326.781 266.961 331.328 266.961 336.391C266.961 341.453 269.352 345.953 274.555 345.953ZM302.492 323.547V326.922H297.148V341.688C297.148 344.969 298.742 345.484 300.477 345.484C301.227 345.484 302.258 345.438 302.867 345.391V349.141C302.258 349.234 301.227 349.328 300.055 349.328C296.68 349.328 293.07 347.219 293.07 342.719V326.922H289.227V323.547H293.07V317.453H297.148V323.547H302.492ZM325.273 349V352.703H304.039V349H325.273ZM334.273 333.719V349H330.242V323.547H334.133V327.531H334.461C335.68 324.953 338.023 323.219 341.914 323.219C347.07 323.219 350.492 326.359 350.492 332.828V349H346.461V333.109C346.461 329.172 344.305 326.828 340.695 326.828C336.992 326.828 334.273 329.312 334.273 333.719ZM355.742 341.781C355.742 335.922 360.898 334.609 365.305 334.281C366.922 334.164 371.047 333.953 372.195 333.906V331.844C372.195 328.609 370.273 326.734 366.43 326.734C363.195 326.734 361.273 328.234 360.711 330.156H356.492C357.008 326.078 360.992 323.219 366.617 323.219C369.945 323.219 376.18 324.203 376.18 332.219V349H372.195V345.531H372.008C371.164 347.266 368.82 349.609 364.414 349.609C359.586 349.609 355.742 346.75 355.742 341.781ZM359.773 341.969C359.773 344.641 362.023 346 365.117 346C369.664 346 372.195 342.953 372.195 339.766V337.188L365.773 337.656C362.117 337.891 359.773 339.203 359.773 341.969ZM382.648 349V323.547H386.539V327.438H386.82C387.758 324.859 390.383 323.125 393.383 323.125C393.992 323.125 395.023 323.172 395.492 323.219V327.297C395.211 327.203 394.086 327.016 393.055 327.016C389.398 327.016 386.68 329.547 386.68 332.969V349H382.648ZM399.43 349V323.547H403.32V327.438H403.602C404.539 324.859 407.164 323.125 410.164 323.125C410.773 323.125 411.805 323.172 412.273 323.219V327.297C411.992 327.203 410.867 327.016 409.836 327.016C406.18 327.016 403.461 329.547 403.461 332.969V349H399.43ZM425.773 349.516C418.836 349.516 414.148 344.312 414.148 336.391C414.148 328.469 418.836 323.219 425.773 323.219C432.664 323.219 437.305 328.469 437.305 336.391C437.305 344.312 432.664 349.516 425.773 349.516ZM425.773 345.953C430.883 345.953 433.273 341.453 433.273 336.391C433.273 331.328 430.883 326.781 425.773 326.781C420.57 326.781 418.18 331.328 418.18 336.391C418.18 341.453 420.57 345.953 425.773 345.953ZM447.477 349L439.742 323.547H444.008L449.445 342.953H449.68L455.07 323.547H459.383L464.68 342.859H464.961L470.398 323.547H474.617L466.883 349H462.898L457.367 329.594H456.992L451.508 349H447.477ZM215 406V380.547H218.891V384.531H219.219C220.297 381.812 222.734 380.219 226.062 380.219C229.391 380.219 231.641 381.812 232.859 384.531H233.141C234.453 381.906 237.125 380.219 240.781 380.219C245.328 380.219 248.562 382.984 248.562 388.984V406H244.531V389.031C244.531 385.281 242.141 383.828 239.375 383.828C235.812 383.828 233.797 386.219 233.797 389.453V406H229.719V388.609C229.719 385.75 227.656 383.828 224.75 383.828C221.703 383.828 219.031 386.406 219.031 390.109V406H215ZM265.438 406.516C258.5 406.516 253.812 401.312 253.812 393.391C253.812 385.469 258.5 380.219 265.438 380.219C272.328 380.219 276.969 385.469 276.969 393.391C276.969 401.312 272.328 406.516 265.438 406.516ZM265.438 402.953C270.547 402.953 272.938 398.453 272.938 393.391C272.938 388.328 270.547 383.781 265.438 383.781C260.234 383.781 257.844 388.328 257.844 393.391C257.844 398.453 260.234 402.953 265.438 402.953ZM292.672 406.516C285.453 406.516 281.047 401.031 281.047 393.391C281.047 385.656 285.641 380.219 292.578 380.219C298.016 380.219 302.047 383.406 302.703 388.234H298.672C298.109 385.891 296.047 383.781 292.672 383.781C288.125 383.781 285.078 387.531 285.078 393.25C285.078 399.156 288.031 402.906 292.672 402.906C295.672 402.906 297.969 401.312 298.672 398.5H302.703C302.047 403.047 298.344 406.516 292.672 406.516ZM307.672 406V372.062H311.703V391.797H312.172L323.188 380.547H328.156L317.422 391.422L328.953 406H323.844L314.422 394L311.703 396.484V406H307.672Z"
  />
</svg>
