<svg width="390" height="156" viewBox="0 0 390 156" fill="none" xmlns="http://www.w3.org/2000/svg">
<rect width="390" height="156" fill="white"/>
<path d="M200.334 45.3337C200.334 45.3337 198.334 42.667 195 42.667C191.667 42.667 189.667 45.3337 189.667 45.3337M191 36.0003H191.014M199 36.0003H199.014M208.334 40.0003C208.334 47.3641 202.364 53.3337 195 53.3337C187.637 53.3337 181.667 47.3641 181.667 40.0003C181.667 32.6365 187.637 26.667 195 26.667C202.364 26.667 208.334 32.6365 208.334 40.0003Z" stroke="#D4D4D8" stroke-width="2" stroke-linecap="round" stroke-linejoin="round"/>
<path d="M105.358 77.616C106.116 77.616 106.782 77.8347 107.358 78.272C107.945 78.6987 108.404 79.312 108.734 80.112C109.076 80.9013 109.246 81.8347 109.246 82.912C109.246 84 109.076 84.944 108.734 85.744C108.404 86.5333 107.945 87.1467 107.358 87.584C106.782 88.0107 106.116 88.224 105.358 88.224C104.601 88.224 103.929 88.0107 103.342 87.584C102.756 87.1467 102.292 86.5333 101.95 85.744C101.62 84.944 101.454 84 101.454 82.912C101.454 81.8347 101.62 80.9013 101.95 80.112C102.292 79.312 102.756 78.6987 103.342 78.272C103.929 77.8347 104.601 77.616 105.358 77.616ZM105.358 79.552C104.996 79.552 104.67 79.68 104.382 79.936C104.105 80.192 103.886 80.5707 103.726 81.072C103.577 81.5627 103.502 82.176 103.502 82.912C103.502 83.6373 103.577 84.256 103.726 84.768C103.886 85.2693 104.105 85.648 104.382 85.904C104.67 86.16 104.996 86.288 105.358 86.288C105.721 86.288 106.041 86.16 106.318 85.904C106.596 85.648 106.809 85.2693 106.958 84.768C107.118 84.256 107.198 83.6373 107.198 82.912C107.198 82.176 107.118 81.5627 106.958 81.072C106.809 80.5707 106.596 80.192 106.318 79.936C106.041 79.68 105.721 79.552 105.358 79.552ZM110.846 76.608H112.99V91.424H110.846V76.608ZM112.526 82.192H115.134V83.936H112.526V82.192ZM119.693 78.128H121.453V79.056C121.453 79.984 121.298 80.8693 120.989 81.712C120.69 82.544 120.232 83.2693 119.613 83.888C118.994 84.5067 118.205 84.9707 117.245 85.28L116.157 83.632C116.989 83.3653 117.661 82.992 118.173 82.512C118.696 82.0213 119.08 81.4773 119.325 80.88C119.57 80.272 119.693 79.664 119.693 79.056V78.128ZM120.141 78.128H121.869V79.056C121.869 79.4933 121.938 79.9307 122.077 80.368C122.216 80.7947 122.424 81.2 122.701 81.584C122.989 81.968 123.352 82.3147 123.789 82.624C124.226 82.9333 124.744 83.184 125.341 83.376L124.269 85.04C123.341 84.7413 122.573 84.2933 121.965 83.696C121.357 83.0987 120.898 82.4 120.589 81.6C120.29 80.7893 120.141 79.9413 120.141 79.056V78.128ZM126.285 76.592H128.413V85.536H126.285V76.592ZM118.317 86.192H128.413V91.424H126.285V87.872H118.317V86.192ZM116.733 77.472H124.797V79.152H116.733V77.472ZM138.093 78.112H139.837V79.04C139.837 79.9787 139.682 80.864 139.373 81.696C139.074 82.528 138.615 83.2587 137.997 83.888C137.389 84.5067 136.615 84.9707 135.677 85.28L134.573 83.632C135.394 83.3547 136.061 82.976 136.573 82.496C137.095 82.016 137.479 81.4773 137.725 80.88C137.97 80.272 138.093 79.6587 138.093 79.04V78.112ZM138.509 78.112H140.237V79.04C140.237 79.616 140.354 80.192 140.589 80.768C140.823 81.3333 141.191 81.8453 141.693 82.304C142.205 82.752 142.855 83.104 143.645 83.36L142.573 85.024C141.645 84.7253 140.882 84.272 140.285 83.664C139.687 83.056 139.239 82.3573 138.941 81.568C138.653 80.768 138.509 79.9253 138.509 79.04V78.112ZM135.133 77.472H143.149V79.168H135.133V77.472ZM144.317 76.608H146.445V85.52H144.317V76.608ZM145.869 80.176H148.413V81.936H145.869V80.176ZM136.557 86.176H146.445V91.424H144.317V87.872H136.557V86.176ZM152.955 77.376H154.715V78.688C154.715 79.68 154.561 80.6133 154.251 81.488C153.953 82.3627 153.494 83.1253 152.875 83.776C152.257 84.4267 151.462 84.9173 150.491 85.248L149.371 83.536C150.225 83.2693 150.913 82.8853 151.435 82.384C151.958 81.8827 152.342 81.312 152.587 80.672C152.833 80.032 152.955 79.3707 152.955 78.688V77.376ZM153.387 77.376H155.115V78.592C155.115 79.2427 155.227 79.872 155.451 80.48C155.675 81.0773 156.033 81.6107 156.523 82.08C157.014 82.5387 157.649 82.896 158.427 83.152L157.323 84.816C156.417 84.496 155.67 84.032 155.083 83.424C154.507 82.816 154.081 82.1013 153.803 81.28C153.526 80.448 153.387 79.552 153.387 78.592V77.376ZM159.771 76.608H161.915V85.28H159.771V76.608ZM156.891 85.664C158.459 85.664 159.697 85.92 160.603 86.432C161.51 86.9333 161.963 87.632 161.963 88.528C161.963 89.4453 161.51 90.1547 160.603 90.656C159.697 91.168 158.459 91.424 156.891 91.424C155.323 91.424 154.086 91.168 153.179 90.656C152.273 90.1547 151.819 89.4453 151.819 88.528C151.819 87.632 152.273 86.9333 153.179 86.432C154.086 85.92 155.323 85.664 156.891 85.664ZM156.891 87.312C156.251 87.312 155.713 87.3547 155.275 87.44C154.838 87.5253 154.502 87.664 154.267 87.856C154.043 88.0373 153.931 88.2613 153.931 88.528C153.931 88.8053 154.043 89.04 154.267 89.232C154.502 89.4133 154.838 89.552 155.275 89.648C155.713 89.7333 156.251 89.776 156.891 89.776C157.531 89.776 158.07 89.7333 158.507 89.648C158.945 89.552 159.275 89.4133 159.499 89.232C159.723 89.04 159.835 88.8053 159.835 88.528C159.835 88.2613 159.723 88.0373 159.499 87.856C159.275 87.664 158.945 87.5253 158.507 87.44C158.07 87.3547 157.531 87.312 156.891 87.312ZM157.067 79.296H160.091V81.024H157.067V79.296ZM173.754 76.608H175.882V87.68H173.754V76.608ZM175.29 81.12H177.85V82.88H175.29V81.12ZM164.234 78.16H172.938V79.824H164.234V78.16ZM168.586 80.352C169.301 80.352 169.93 80.4747 170.474 80.72C171.029 80.9547 171.461 81.2907 171.77 81.728C172.079 82.1547 172.234 82.6453 172.234 83.2C172.234 83.7653 172.079 84.2667 171.77 84.704C171.461 85.1307 171.029 85.4667 170.474 85.712C169.93 85.9467 169.301 86.064 168.586 86.064C167.882 86.064 167.253 85.9467 166.698 85.712C166.143 85.4667 165.711 85.1307 165.402 84.704C165.093 84.2667 164.938 83.7653 164.938 83.2C164.938 82.6453 165.093 82.1547 165.402 81.728C165.711 81.2907 166.143 80.9547 166.698 80.72C167.253 80.4747 167.882 80.352 168.586 80.352ZM168.586 81.968C168.117 81.968 167.733 82.0747 167.434 82.288C167.135 82.5013 166.986 82.8107 166.986 83.216C166.986 83.6107 167.135 83.9147 167.434 84.128C167.733 84.3413 168.117 84.448 168.586 84.448C169.066 84.448 169.45 84.3413 169.738 84.128C170.037 83.9147 170.186 83.6107 170.186 83.216C170.186 82.8107 170.037 82.5013 169.738 82.288C169.45 82.0747 169.066 81.968 168.586 81.968ZM167.53 76.592H169.642V78.96H167.53V76.592ZM166.33 89.456H176.41V91.168H166.33V89.456ZM166.33 86.848H168.474V90.192H166.33V86.848ZM193.61 76.592H195.642V91.408H193.61V76.592ZM188.73 81.664H191.194V83.392H188.73V81.664ZM190.618 76.832H192.602V90.736H190.618V76.832ZM185.546 79.008H187.146V80.528C187.146 81.36 187.082 82.1813 186.954 82.992C186.836 83.8027 186.65 84.5707 186.394 85.296C186.138 86.0107 185.802 86.656 185.386 87.232C184.97 87.808 184.468 88.2827 183.882 88.656L182.618 87.088C183.343 86.6293 183.919 86.0533 184.346 85.36C184.772 84.656 185.076 83.888 185.258 83.056C185.45 82.2133 185.546 81.3707 185.546 80.528V79.008ZM186.026 79.008H187.61V80.528C187.61 81.3493 187.7 82.16 187.882 82.96C188.063 83.76 188.362 84.4907 188.778 85.152C189.194 85.8027 189.759 86.336 190.474 86.752L189.242 88.288C188.452 87.8187 187.823 87.184 187.354 86.384C186.884 85.584 186.543 84.6827 186.33 83.68C186.127 82.6667 186.026 81.616 186.026 80.528V79.008ZM183.162 78.08H189.77V79.792H183.162V78.08ZM207.16 76.608H209.288V87.376H207.16V76.608ZM208.696 80.832H211.256V82.592H208.696V80.832ZM199.736 89.456H209.816V91.168H199.736V89.456ZM199.736 86.256H201.88V90.224H199.736V86.256ZM201.752 77.552C202.51 77.552 203.192 77.712 203.8 78.032C204.408 78.352 204.888 78.7947 205.24 79.36C205.603 79.9253 205.784 80.576 205.784 81.312C205.784 82.0373 205.603 82.688 205.24 83.264C204.888 83.8293 204.408 84.2773 203.8 84.608C203.192 84.928 202.51 85.088 201.752 85.088C200.995 85.088 200.312 84.928 199.704 84.608C199.096 84.2773 198.616 83.8293 198.264 83.264C197.912 82.688 197.736 82.0373 197.736 81.312C197.736 80.576 197.912 79.9253 198.264 79.36C198.616 78.7947 199.096 78.352 199.704 78.032C200.312 77.712 200.995 77.552 201.752 77.552ZM201.752 79.392C201.39 79.392 201.059 79.472 200.76 79.632C200.472 79.7813 200.243 80 200.072 80.288C199.902 80.5653 199.816 80.9067 199.816 81.312C199.816 81.7173 199.902 82.064 200.072 82.352C200.243 82.6293 200.472 82.848 200.76 83.008C201.059 83.1573 201.39 83.232 201.752 83.232C202.126 83.232 202.456 83.1573 202.744 83.008C203.043 82.848 203.278 82.6293 203.448 82.352C203.619 82.064 203.704 81.7173 203.704 81.312C203.704 80.9067 203.619 80.5653 203.448 80.288C203.278 80 203.043 79.7813 202.744 79.632C202.456 79.472 202.126 79.392 201.752 79.392ZM214.007 77.184H223.383V78.864H214.007V77.184ZM212.359 81.808H225.783V83.504H212.359V81.808ZM222.103 77.184H224.199V78.192C224.199 78.7253 224.183 79.3333 224.151 80.016C224.119 80.688 224.007 81.456 223.815 82.32L221.719 82.128C221.911 81.2853 222.023 80.5493 222.055 79.92C222.087 79.2907 222.103 78.7147 222.103 78.192V77.184ZM213.847 84.512H224.167V88.672H215.991V90.176H213.863V87.104H222.039V86.144H213.847V84.512ZM213.863 89.664H224.551V91.312H213.863V89.664ZM237.238 76.576H239.366V91.44H237.238V76.576ZM231.382 77.616C232.139 77.616 232.811 77.8347 233.398 78.272C233.985 78.6987 234.443 79.312 234.774 80.112C235.115 80.9013 235.286 81.8347 235.286 82.912C235.286 84 235.115 84.944 234.774 85.744C234.443 86.5333 233.985 87.1467 233.398 87.584C232.811 88.0107 232.139 88.224 231.382 88.224C230.635 88.224 229.969 88.0107 229.382 87.584C228.795 87.1467 228.331 86.5333 227.99 85.744C227.659 84.944 227.494 84 227.494 82.912C227.494 81.8347 227.659 80.9013 227.99 80.112C228.331 79.312 228.795 78.6987 229.382 78.272C229.969 77.8347 230.635 77.616 231.382 77.616ZM231.382 79.552C231.019 79.552 230.699 79.68 230.422 79.936C230.145 80.192 229.926 80.5707 229.766 81.072C229.617 81.5627 229.542 82.176 229.542 82.912C229.542 83.6373 229.617 84.256 229.766 84.768C229.926 85.2693 230.145 85.648 230.422 85.904C230.699 86.16 231.019 86.288 231.382 86.288C231.755 86.288 232.081 86.16 232.358 85.904C232.635 85.648 232.849 85.2693 232.998 84.768C233.158 84.256 233.238 83.6373 233.238 82.912C233.238 82.176 233.158 81.5627 232.998 81.072C232.849 80.5707 232.635 80.192 232.358 79.936C232.081 79.68 231.755 79.552 231.382 79.552ZM247.381 85.28H249.365V86.736H250.837V85.28H252.789V91.264H247.381V85.28ZM249.365 88.272V89.664H250.837V88.272H249.365ZM255.093 85.152H256.693V86.256C256.693 86.9813 256.592 87.6853 256.389 88.368C256.187 89.04 255.856 89.6373 255.397 90.16C254.949 90.6933 254.357 91.104 253.621 91.392L252.581 89.808C253.179 89.5627 253.659 89.2533 254.021 88.88C254.395 88.496 254.667 88.08 254.837 87.632C255.008 87.1733 255.093 86.7147 255.093 86.256V85.152ZM255.573 85.152H257.205V86.256C257.205 86.768 257.285 87.2587 257.445 87.728C257.616 88.1867 257.883 88.5973 258.245 88.96C258.619 89.3227 259.104 89.6053 259.701 89.808L258.645 91.392C257.899 91.1253 257.301 90.736 256.853 90.224C256.405 89.712 256.08 89.12 255.877 88.448C255.675 87.7653 255.573 87.0347 255.573 86.256V85.152ZM253.253 79.776H256.965V81.488H253.253V79.776ZM249.845 77.152C250.592 77.152 251.259 77.3013 251.845 77.6C252.443 77.8987 252.912 78.3093 253.253 78.832C253.595 79.3547 253.765 79.9573 253.765 80.64C253.765 81.3227 253.595 81.9307 253.253 82.464C252.912 82.9867 252.443 83.3973 251.845 83.696C251.259 83.9947 250.592 84.144 249.845 84.144C249.109 84.144 248.443 83.9947 247.845 83.696C247.259 83.3973 246.795 82.9867 246.453 82.464C246.112 81.9307 245.941 81.3227 245.941 80.64C245.941 79.9573 246.112 79.3547 246.453 78.832C246.795 78.3093 247.259 77.8987 247.845 77.6C248.443 77.3013 249.109 77.152 249.845 77.152ZM249.845 78.896C249.483 78.896 249.157 78.9653 248.869 79.104C248.592 79.2427 248.373 79.4453 248.213 79.712C248.053 79.968 247.973 80.2773 247.973 80.64C247.973 81.0027 248.053 81.3173 248.213 81.584C248.373 81.8507 248.592 82.0533 248.869 82.192C249.157 82.3307 249.483 82.4 249.845 82.4C250.208 82.4 250.528 82.3307 250.805 82.192C251.093 82.0533 251.317 81.8507 251.477 81.584C251.637 81.3173 251.717 81.0027 251.717 80.64C251.717 80.2773 251.637 79.968 251.477 79.712C251.317 79.4453 251.093 79.2427 250.805 79.104C250.528 78.9653 250.208 78.896 249.845 78.896ZM256.021 76.608H258.165V84.448H256.021V76.608ZM264.532 77.616C265.268 77.616 265.924 77.8347 266.5 78.272C267.087 78.6987 267.54 79.312 267.86 80.112C268.191 80.9013 268.356 81.8347 268.356 82.912C268.356 84 268.191 84.944 267.86 85.744C267.54 86.5333 267.087 87.1467 266.5 87.584C265.924 88.0107 265.268 88.224 264.532 88.224C263.796 88.224 263.14 88.0107 262.564 87.584C261.988 87.1467 261.535 86.5333 261.204 85.744C260.873 84.944 260.708 84 260.708 82.912C260.708 81.8347 260.873 80.9013 261.204 80.112C261.535 79.312 261.988 78.6987 262.564 78.272C263.14 77.8347 263.796 77.616 264.532 77.616ZM264.532 79.552C264.18 79.552 263.865 79.68 263.588 79.936C263.321 80.192 263.113 80.5707 262.964 81.072C262.815 81.5627 262.74 82.176 262.74 82.912C262.74 83.6373 262.815 84.256 262.964 84.768C263.113 85.2693 263.321 85.648 263.588 85.904C263.865 86.16 264.18 86.288 264.532 86.288C264.905 86.288 265.225 86.16 265.492 85.904C265.759 85.648 265.967 85.2693 266.116 84.768C266.265 84.256 266.34 83.6373 266.34 82.912C266.34 82.176 266.265 81.5627 266.116 81.072C265.967 80.5707 265.759 80.192 265.492 79.936C265.225 79.68 264.905 79.552 264.532 79.552ZM270.788 76.576H272.916V91.44H270.788V76.576ZM267.732 81.936H271.684V83.632H267.732V81.936ZM278.147 84.128H280.275V88.272H278.147V84.128ZM283.523 84.128H285.651V88.272H283.523V84.128ZM275.203 87.968H288.627V89.696H275.203V87.968ZM281.891 77.328C282.958 77.328 283.907 77.4933 284.739 77.824C285.582 78.1547 286.238 78.6187 286.707 79.216C287.187 79.8027 287.427 80.5013 287.427 81.312C287.427 82.112 287.187 82.8107 286.707 83.408C286.238 83.9947 285.582 84.4533 284.739 84.784C283.907 85.1147 282.958 85.28 281.891 85.28C280.835 85.28 279.886 85.1147 279.043 84.784C278.211 84.4533 277.555 83.9947 277.075 83.408C276.595 82.8107 276.355 82.112 276.355 81.312C276.355 80.5013 276.595 79.8027 277.075 79.216C277.555 78.6187 278.211 78.1547 279.043 77.824C279.886 77.4933 280.835 77.328 281.891 77.328ZM281.891 78.976C281.208 78.976 280.606 79.072 280.083 79.264C279.571 79.4453 279.171 79.7067 278.883 80.048C278.595 80.3893 278.451 80.8107 278.451 81.312C278.451 81.792 278.595 82.208 278.883 82.56C279.171 82.9013 279.571 83.168 280.083 83.36C280.606 83.5413 281.208 83.632 281.891 83.632C282.584 83.632 283.187 83.5413 283.699 83.36C284.222 83.168 284.622 82.9013 284.899 82.56C285.187 82.208 285.331 81.792 285.331 81.312C285.331 80.8107 285.187 80.3893 284.899 80.048C284.622 79.7067 284.222 79.4453 283.699 79.264C283.187 79.072 282.584 78.976 281.891 78.976Z" fill="#27272A"/>
<path d="M53.1567 122.674H64.6367V123.64H53.1567V122.674ZM58.2947 123.262H59.4427V128.092H58.2947V123.262ZM58.8687 115.926C59.7554 115.926 60.53 116.043 61.1927 116.276C61.8554 116.5 62.3734 116.822 62.7467 117.242C63.12 117.653 63.3067 118.143 63.3067 118.712C63.3067 119.272 63.12 119.762 62.7467 120.182C62.3734 120.602 61.8554 120.924 61.1927 121.148C60.53 121.372 59.7554 121.484 58.8687 121.484C58.0007 121.484 57.2307 121.372 56.5587 121.148C55.896 120.924 55.378 120.602 55.0047 120.182C54.6314 119.762 54.4447 119.272 54.4447 118.712C54.4447 118.143 54.6314 117.653 55.0047 117.242C55.378 116.822 55.896 116.5 56.5587 116.276C57.2307 116.043 58.0007 115.926 58.8687 115.926ZM58.8687 116.864C58.234 116.864 57.6694 116.939 57.1747 117.088C56.6894 117.237 56.3114 117.452 56.0407 117.732C55.77 118.003 55.6347 118.325 55.6347 118.698C55.6347 119.081 55.77 119.412 56.0407 119.692C56.3114 119.963 56.6894 120.173 57.1747 120.322C57.6694 120.471 58.234 120.546 58.8687 120.546C59.522 120.546 60.0914 120.471 60.5767 120.322C61.062 120.173 61.44 119.963 61.7107 119.692C61.9814 119.412 62.1167 119.081 62.1167 118.698C62.1167 118.325 61.9814 118.003 61.7107 117.732C61.44 117.452 61.062 117.237 60.5767 117.088C60.0914 116.939 59.522 116.864 58.8687 116.864ZM75.2756 115.422H76.4236V128.106H75.2756V115.422ZM66.7776 124.074H67.8276C68.5463 124.074 69.2369 124.065 69.8996 124.046C70.5716 124.018 71.2483 123.971 71.9296 123.906C72.6203 123.841 73.3389 123.747 74.0856 123.626L74.1976 124.578C73.0589 124.765 71.9856 124.891 70.9776 124.956C69.9696 125.012 68.9196 125.04 67.8276 125.04H66.7776V124.074ZM66.7496 116.598H72.6016V121.12H67.9536V124.438H66.7776V120.182H71.4256V117.55H66.7496V116.598ZM82.866 121.666H94.318V122.604H82.866V121.666ZM88.018 119.636H89.152V122.058H88.018V119.636ZM84.308 119.272H92.974V120.21H84.308V119.272ZM84.308 116.01H92.89V116.934H85.456V119.832H84.308V116.01ZM88.578 123.514C89.9313 123.514 90.9907 123.715 91.756 124.116C92.5213 124.508 92.904 125.068 92.904 125.796C92.904 126.524 92.5213 127.084 91.756 127.476C90.9907 127.877 89.9313 128.078 88.578 128.078C87.2247 128.078 86.1607 127.877 85.386 127.476C84.6207 127.084 84.238 126.524 84.238 125.796C84.238 125.068 84.6207 124.508 85.386 124.116C86.1607 123.715 87.2247 123.514 88.578 123.514ZM88.564 124.424C87.9107 124.424 87.346 124.48 86.87 124.592C86.4033 124.695 86.044 124.849 85.792 125.054C85.54 125.25 85.414 125.497 85.414 125.796C85.414 126.085 85.54 126.333 85.792 126.538C86.044 126.743 86.4033 126.897 86.87 127C87.346 127.112 87.9107 127.168 88.564 127.168C89.236 127.168 89.8053 127.112 90.272 127C90.748 126.897 91.112 126.743 91.364 126.538C91.616 126.333 91.742 126.085 91.742 125.796C91.742 125.497 91.616 125.25 91.364 125.054C91.112 124.849 90.748 124.695 90.272 124.592C89.8053 124.48 89.236 124.424 88.564 124.424ZM96.3469 116.78H97.5089V124.2H96.3469V116.78ZM96.3469 123.878H97.1589C97.8963 123.878 98.6196 123.855 99.3289 123.808C100.048 123.752 100.804 123.64 101.597 123.472L101.765 124.466C100.934 124.643 100.15 124.76 99.4129 124.816C98.6849 124.863 97.9336 124.886 97.1589 124.886H96.3469V123.878ZM105.391 115.422H106.511V128.092H105.391V115.422ZM99.8749 119.678H103.025V120.63H99.8749V119.678ZM102.703 115.73H103.809V127.448H102.703V115.73ZM113.762 120.35H116.142V121.302H113.762V120.35ZM118.27 115.422H119.39V128.092H118.27V115.422ZM115.75 115.688H116.856V127.448H115.75V115.688ZM111.466 116.486C112.016 116.486 112.492 116.663 112.894 117.018C113.304 117.373 113.622 117.881 113.846 118.544C114.07 119.207 114.182 119.986 114.182 120.882C114.182 121.787 114.07 122.571 113.846 123.234C113.622 123.897 113.304 124.41 112.894 124.774C112.492 125.129 112.016 125.306 111.466 125.306C110.934 125.306 110.462 125.129 110.052 124.774C109.65 124.41 109.338 123.897 109.114 123.234C108.89 122.571 108.778 121.787 108.778 120.882C108.778 119.986 108.89 119.207 109.114 118.544C109.338 117.881 109.65 117.373 110.052 117.018C110.462 116.663 110.934 116.486 111.466 116.486ZM111.466 117.564C111.139 117.564 110.854 117.699 110.612 117.97C110.369 118.241 110.182 118.623 110.052 119.118C109.921 119.613 109.856 120.201 109.856 120.882C109.856 121.563 109.921 122.156 110.052 122.66C110.182 123.155 110.369 123.537 110.612 123.808C110.854 124.079 111.139 124.214 111.466 124.214C111.802 124.214 112.091 124.079 112.334 123.808C112.586 123.537 112.777 123.155 112.908 122.66C113.038 122.156 113.104 121.563 113.104 120.882C113.104 120.201 113.038 119.613 112.908 119.118C112.777 118.623 112.586 118.241 112.334 117.97C112.091 117.699 111.802 117.564 111.466 117.564ZM128.086 116.22H129.01V117.914C129.01 118.539 128.894 119.16 128.66 119.776C128.427 120.392 128.091 120.947 127.652 121.442C127.223 121.937 126.696 122.324 126.07 122.604L125.44 121.708C125.991 121.465 126.462 121.139 126.854 120.728C127.256 120.308 127.559 119.851 127.764 119.356C127.979 118.861 128.086 118.381 128.086 117.914V116.22ZM128.282 116.22H129.206V117.914C129.206 118.371 129.304 118.829 129.5 119.286C129.706 119.734 130 120.14 130.382 120.504C130.774 120.859 131.236 121.143 131.768 121.358L131.152 122.254C130.546 122.011 130.028 121.666 129.598 121.218C129.169 120.77 128.842 120.261 128.618 119.692C128.394 119.123 128.282 118.53 128.282 117.914V116.22ZM135.002 115.436H136.108V123.248H135.002V115.436ZM132.986 118.824H135.366V119.776H132.986V118.824ZM132.286 115.674H133.378V122.842H132.286V115.674ZM131.95 123.528C132.818 123.528 133.565 123.617 134.19 123.794C134.825 123.971 135.315 124.233 135.66 124.578C136.006 124.914 136.178 125.32 136.178 125.796C136.178 126.272 136.006 126.678 135.66 127.014C135.315 127.359 134.825 127.621 134.19 127.798C133.565 127.975 132.818 128.064 131.95 128.064C131.082 128.064 130.331 127.975 129.696 127.798C129.062 127.621 128.572 127.359 128.226 127.014C127.89 126.678 127.722 126.272 127.722 125.796C127.722 125.32 127.89 124.914 128.226 124.578C128.572 124.233 129.062 123.971 129.696 123.794C130.331 123.617 131.082 123.528 131.95 123.528ZM131.95 124.424C130.998 124.424 130.247 124.545 129.696 124.788C129.146 125.031 128.87 125.367 128.87 125.796C128.87 126.225 129.146 126.561 129.696 126.804C130.247 127.047 130.998 127.168 131.95 127.168C132.585 127.168 133.131 127.112 133.588 127C134.046 126.897 134.396 126.743 134.638 126.538C134.89 126.333 135.016 126.085 135.016 125.796C135.016 125.367 134.741 125.031 134.19 124.788C133.649 124.545 132.902 124.424 131.95 124.424ZM147.545 115.422H148.707V128.092H147.545V115.422ZM143.835 116.794H144.983C144.983 117.709 144.871 118.591 144.647 119.44C144.432 120.289 144.092 121.097 143.625 121.862C143.158 122.618 142.552 123.323 141.805 123.976C141.058 124.629 140.153 125.213 139.089 125.726L138.473 124.788C139.696 124.2 140.704 123.514 141.497 122.73C142.29 121.946 142.878 121.073 143.261 120.112C143.644 119.141 143.835 118.096 143.835 116.976V116.794ZM139.061 116.794H144.325V117.732H139.061V116.794ZM160.41 115.422H161.572V121.89H160.41V115.422ZM156.546 116.038H157.806C157.806 117.121 157.568 118.068 157.092 118.88C156.616 119.683 155.93 120.359 155.034 120.91C154.147 121.451 153.079 121.862 151.828 122.142L151.408 121.204C152.248 121.017 152.985 120.779 153.62 120.49C154.255 120.201 154.787 119.86 155.216 119.468C155.655 119.076 155.986 118.642 156.21 118.166C156.434 117.69 156.546 117.181 156.546 116.64V116.038ZM152.052 116.038H157.316V116.99H152.052V116.038ZM153.382 122.492H161.572V125.572H154.572V127.49H153.424V124.704H160.41V123.416H153.382V122.492ZM153.424 127.042H162.006V127.966H153.424V127.042ZM176.582 115.422H177.744V128.092H176.582V115.422ZM177.478 120.406H179.816V121.4H177.478V120.406ZM168.518 116.5H169.666V119.832H173.264V116.5H174.412V125.054H168.518V116.5ZM169.666 120.756V124.088H173.264V120.756H169.666ZM189.475 115.422H190.623V128.106H189.475V115.422ZM190.357 120.448H192.695V121.428H190.357V120.448ZM181.411 124.074H182.419C183.203 124.074 183.922 124.065 184.575 124.046C185.238 124.018 185.877 123.976 186.493 123.92C187.109 123.855 187.735 123.761 188.369 123.64L188.481 124.592C187.828 124.713 187.189 124.807 186.563 124.872C185.947 124.937 185.303 124.984 184.631 125.012C183.959 125.04 183.222 125.054 182.419 125.054H181.411V124.074ZM181.383 116.598H187.095V121.148H182.559V124.466H181.411V120.182H185.947V117.55H181.383V116.598ZM195.312 119.23H203.922V120.168H195.312V119.23ZM193.758 121.862H205.238V122.814H193.758V121.862ZM195.312 115.884H196.46V119.706H195.312V115.884ZM195.228 126.832H203.992V127.784H195.228V126.832ZM195.228 124.088H196.39V127.084H195.228V124.088ZM219.157 115.422H220.319V128.078H219.157V115.422ZM220.011 120.56H222.335V121.526H220.011V120.56ZM215.923 116.78H217.057C217.057 117.984 216.861 119.137 216.469 120.238C216.077 121.33 215.461 122.343 214.621 123.276C213.781 124.2 212.675 125.003 211.303 125.684L210.659 124.788C211.835 124.2 212.81 123.514 213.585 122.73C214.369 121.937 214.952 121.059 215.335 120.098C215.727 119.127 215.923 118.082 215.923 116.962V116.78ZM211.247 116.78H216.511V117.746H211.247V116.78ZM233.114 115.422H234.234V128.092H233.114V115.422ZM227.612 120.602H230.804V121.54H227.612V120.602ZM230.482 115.758H231.574V127.448H230.482V115.758ZM227.766 117.032H228.886C228.886 118.133 228.727 119.193 228.41 120.21C228.102 121.218 227.598 122.161 226.898 123.038C226.198 123.906 225.278 124.681 224.14 125.362L223.468 124.522C224.457 123.925 225.269 123.253 225.904 122.506C226.538 121.75 227.005 120.933 227.304 120.056C227.612 119.169 227.766 118.231 227.766 117.242V117.032ZM224.014 117.032H228.2V117.984H224.014V117.032ZM236.332 121.302H247.812V122.198H236.332V121.302ZM237.704 123.206H246.384V125.908H238.88V127.392H237.732V125.11H245.236V124.046H237.704V123.206ZM237.732 127.084H246.79V127.924H237.732V127.084ZM237.788 115.8H246.342V118.432H238.964V119.804H237.816V117.648H245.194V116.626H237.788V115.8ZM237.816 119.524H246.566V120.364H237.816V119.524ZM262.795 115.422H263.901V128.092H262.795V115.422ZM258.175 119.972H260.611V120.924H258.175V119.972ZM260.261 115.716H261.353V127.434H260.261V115.716ZM255.753 117.396H256.649V119.006C256.649 119.697 256.584 120.373 256.453 121.036C256.322 121.689 256.131 122.305 255.879 122.884C255.627 123.453 255.319 123.971 254.955 124.438C254.591 124.895 254.18 125.269 253.723 125.558L253.009 124.69C253.597 124.335 254.092 123.859 254.493 123.262C254.904 122.665 255.216 121.997 255.431 121.26C255.646 120.523 255.753 119.771 255.753 119.006V117.396ZM255.991 117.396H256.873V119.006C256.873 119.734 256.976 120.448 257.181 121.148C257.396 121.848 257.699 122.483 258.091 123.052C258.492 123.612 258.982 124.06 259.561 124.396L258.861 125.264C258.245 124.881 257.722 124.373 257.293 123.738C256.873 123.094 256.551 122.366 256.327 121.554C256.103 120.733 255.991 119.883 255.991 119.006V117.396ZM253.359 116.906H259.141V117.858H253.359V116.906ZM274.708 115.422H275.87V124.746H274.708V115.422ZM275.506 119.272H277.732V120.238H275.506V119.272ZM267.988 126.86H276.43V127.812H267.988V126.86ZM267.988 123.794H269.136V127.238H267.988V123.794ZM269.57 116.318C270.204 116.318 270.769 116.453 271.264 116.724C271.758 116.985 272.15 117.349 272.44 117.816C272.729 118.283 272.874 118.824 272.874 119.44C272.874 120.037 272.729 120.574 272.44 121.05C272.15 121.526 271.758 121.899 271.264 122.17C270.769 122.431 270.204 122.562 269.57 122.562C268.944 122.562 268.38 122.431 267.876 122.17C267.381 121.899 266.989 121.526 266.7 121.05C266.41 120.574 266.266 120.037 266.266 119.44C266.266 118.824 266.41 118.283 266.7 117.816C266.989 117.349 267.381 116.985 267.876 116.724C268.38 116.453 268.944 116.318 269.57 116.318ZM269.57 117.326C269.159 117.326 268.79 117.415 268.464 117.592C268.137 117.769 267.876 118.017 267.68 118.334C267.493 118.651 267.4 119.02 267.4 119.44C267.4 119.851 267.493 120.215 267.68 120.532C267.876 120.849 268.137 121.097 268.464 121.274C268.79 121.451 269.159 121.54 269.57 121.54C269.98 121.54 270.349 121.451 270.676 121.274C271.012 121.097 271.273 120.849 271.46 120.532C271.656 120.215 271.754 119.851 271.754 119.44C271.754 119.02 271.656 118.651 271.46 118.334C271.273 118.017 271.012 117.769 270.676 117.592C270.349 117.415 269.98 117.326 269.57 117.326ZM278.893 117.592H285.179V118.544H278.893V117.592ZM282.043 119.384C282.575 119.384 283.041 119.505 283.443 119.748C283.853 119.991 284.175 120.331 284.409 120.77C284.642 121.199 284.759 121.699 284.759 122.268C284.759 122.837 284.642 123.341 284.409 123.78C284.175 124.209 283.853 124.55 283.443 124.802C283.041 125.045 282.575 125.166 282.043 125.166C281.52 125.166 281.053 125.045 280.643 124.802C280.232 124.55 279.91 124.209 279.677 123.78C279.443 123.341 279.327 122.837 279.327 122.268C279.327 121.699 279.443 121.199 279.677 120.77C279.91 120.341 280.232 120.005 280.643 119.762C281.053 119.51 281.52 119.384 282.043 119.384ZM282.043 120.364C281.725 120.364 281.436 120.448 281.175 120.616C280.923 120.775 280.722 120.999 280.573 121.288C280.433 121.568 280.363 121.895 280.363 122.268C280.363 122.641 280.433 122.973 280.573 123.262C280.722 123.551 280.923 123.775 281.175 123.934C281.436 124.093 281.725 124.172 282.043 124.172C282.369 124.172 282.659 124.093 282.911 123.934C283.163 123.775 283.359 123.551 283.499 123.262C283.648 122.973 283.723 122.641 283.723 122.268C283.723 121.895 283.648 121.568 283.499 121.288C283.359 120.999 283.163 120.775 282.911 120.616C282.659 120.448 282.369 120.364 282.043 120.364ZM288.525 115.422H289.631V128.092H288.525V115.422ZM286.495 120.756H288.889V121.708H286.495V120.756ZM285.809 115.716H286.901V127.476H285.809V115.716ZM281.469 115.8H282.617V118.166H281.469V115.8ZM295.737 125.516H307.217V126.482H295.737V125.516ZM300.875 122.478H302.023V125.796H300.875V122.478ZM297.081 116.318H298.243V118.572H304.683V116.318H305.831V122.8H297.081V116.318ZM298.243 119.524V121.848H304.683V119.524H298.243ZM313.6 119.958H316.036V120.924H313.6V119.958ZM311.248 116.612H312.158V119.034C312.158 119.687 312.088 120.331 311.948 120.966C311.817 121.601 311.621 122.198 311.36 122.758C311.108 123.318 310.8 123.822 310.436 124.27C310.072 124.718 309.661 125.082 309.204 125.362L308.476 124.494C308.905 124.233 309.293 123.906 309.638 123.514C309.983 123.122 310.273 122.683 310.506 122.198C310.749 121.703 310.931 121.19 311.052 120.658C311.183 120.117 311.248 119.575 311.248 119.034V116.612ZM311.472 116.612H312.368V118.992C312.368 119.496 312.424 120.005 312.536 120.518C312.657 121.022 312.825 121.507 313.04 121.974C313.264 122.431 313.539 122.851 313.866 123.234C314.193 123.617 314.561 123.934 314.972 124.186L314.314 125.082C313.857 124.802 313.451 124.447 313.096 124.018C312.741 123.579 312.443 123.089 312.2 122.548C311.957 121.997 311.775 121.419 311.654 120.812C311.533 120.205 311.472 119.599 311.472 118.992V116.612ZM318.262 115.422H319.382V128.092H318.262V115.422ZM315.686 115.688H316.778V127.448H315.686V115.688ZM324.309 121.946H325.457V125.726H324.309V121.946ZM328.985 121.946H330.147V125.726H328.985V121.946ZM321.495 125.502H332.975V126.468H321.495V125.502ZM327.207 116.22C328.103 116.22 328.896 116.355 329.587 116.626C330.278 116.897 330.819 117.275 331.211 117.76C331.612 118.245 331.813 118.819 331.813 119.482C331.813 120.135 331.612 120.709 331.211 121.204C330.819 121.689 330.278 122.067 329.587 122.338C328.896 122.599 328.103 122.73 327.207 122.73C326.32 122.73 325.527 122.599 324.827 122.338C324.136 122.067 323.595 121.689 323.203 121.204C322.811 120.709 322.615 120.135 322.615 119.482C322.615 118.819 322.811 118.245 323.203 117.76C323.595 117.275 324.136 116.897 324.827 116.626C325.527 116.355 326.32 116.22 327.207 116.22ZM327.207 117.144C326.535 117.144 325.938 117.242 325.415 117.438C324.892 117.634 324.482 117.909 324.183 118.264C323.884 118.609 323.735 119.015 323.735 119.482C323.735 119.949 323.884 120.359 324.183 120.714C324.482 121.059 324.892 121.33 325.415 121.526C325.938 121.722 326.535 121.82 327.207 121.82C327.888 121.82 328.49 121.722 329.013 121.526C329.536 121.33 329.946 121.059 330.245 120.714C330.544 120.359 330.693 119.949 330.693 119.482C330.693 119.015 330.544 118.609 330.245 118.264C329.946 117.909 329.536 117.634 329.013 117.438C328.49 117.242 327.888 117.144 327.207 117.144ZM335.603 127.08C335.358 127.08 335.147 126.992 334.971 126.816C334.796 126.64 334.708 126.43 334.708 126.185C334.708 125.939 334.796 125.729 334.971 125.553C335.147 125.378 335.358 125.29 335.603 125.29C335.848 125.29 336.059 125.378 336.234 125.553C336.41 125.729 336.498 125.939 336.498 126.185C336.498 126.347 336.456 126.496 336.373 126.632C336.294 126.768 336.186 126.877 336.05 126.96C335.918 127.04 335.769 127.08 335.603 127.08Z" fill="#52525B"/>
</svg>
