<svg width="350" height="176" viewBox="0 0 350 176" fill="none" xmlns="http://www.w3.org/2000/svg">
<path d="M172.25 44.6663C172.131 44.2049 171.89 43.7838 171.553 43.4469C171.216 43.1099 170.795 42.8694 170.334 42.7503L162.154 40.641C162.014 40.6014 161.891 40.5173 161.804 40.4016C161.716 40.2859 161.669 40.1448 161.669 39.9997C161.669 39.8546 161.716 39.7135 161.804 39.5978C161.891 39.482 162.014 39.398 162.154 39.3583L170.334 37.2477C170.795 37.1288 171.216 36.8884 171.553 36.5517C171.89 36.215 172.13 35.7942 172.25 35.333L174.359 27.153C174.398 27.0129 174.482 26.8895 174.598 26.8015C174.714 26.7136 174.855 26.666 175.001 26.666C175.146 26.666 175.288 26.7136 175.404 26.8015C175.52 26.8895 175.604 27.0129 175.643 27.153L177.751 35.333C177.87 35.7944 178.11 36.2155 178.447 36.5525C178.784 36.8895 179.205 37.13 179.667 37.249L187.847 39.357C187.988 39.3958 188.112 39.4797 188.2 39.5958C188.288 39.7119 188.336 39.8538 188.336 39.9997C188.336 40.1456 188.288 40.2875 188.2 40.4036C188.112 40.5197 187.988 40.6035 187.847 40.6423L179.667 42.7503C179.205 42.8694 178.784 43.1099 178.447 43.4469C178.11 43.7838 177.87 44.2049 177.751 44.6663L175.642 52.8463C175.602 52.9865 175.518 53.1099 175.402 53.1978C175.287 53.2858 175.145 53.3333 175 53.3333C174.854 53.3333 174.713 53.2858 174.597 53.1978C174.481 53.1099 174.397 52.9865 174.358 52.8463L172.25 44.6663Z" stroke="#A1A1AA" stroke-width="2" stroke-linecap="round" stroke-linejoin="round"/>
<path d="M114.252 84.704L113.516 83.04C116.588 82.704 118.156 81.28 118.396 80H114.044V78.32H118.428V76.672H120.54V78.32H124.956V80H120.588C120.844 81.248 122.444 82.704 125.468 83.04L124.716 84.704C122.22 84.4 120.444 83.392 119.5 82.064C118.556 83.392 116.78 84.4 114.252 84.704ZM126.172 85.456V87.168H120.54V91.408H118.428V87.168H112.86V85.456H126.172ZM135.419 80.944H137.771V76.64H139.883V87.552H137.771V82.64H135.419V80.944ZM136.411 84.176L135.403 85.824C133.755 85.344 132.619 84.352 131.947 83.088C131.307 84.464 130.155 85.536 128.491 86.064L127.467 84.416C129.835 83.664 130.859 81.872 130.859 80.096V80.032H127.979V78.384H130.859V76.752H132.971V78.384H135.883V80.032H132.971V80.096C132.971 81.776 134.011 83.456 136.411 84.176ZM132.283 89.44H140.219V91.12H130.171V86.64H132.283V89.44ZM156.459 80.08H153.339C152.443 82.272 150.363 83.664 147.131 84.368L146.427 82.672C149.771 82.016 151.275 80.608 151.531 78.88H147.275V77.2H153.851C153.851 77.648 153.819 78.08 153.755 78.496H156.459V76.64H158.571V84.032H156.459V82.928H153.195V81.344H156.459V80.08ZM150.987 89.568H158.875V91.232H148.875V87.072H156.459V86.24H148.859V84.576H158.571V88.64H150.987V89.568ZM168.777 84.944L166.713 84.768C167.049 82.672 167.097 81.088 167.097 79.776H161.593V78.096H169.177V79.296C169.177 80.72 169.177 82.512 168.777 84.944ZM165.561 82.32V86.608C166.985 86.56 168.425 86.464 169.769 86.304L169.881 87.824C166.889 88.336 163.593 88.4 161.033 88.416L160.841 86.688C161.657 86.688 162.553 86.688 163.481 86.672V82.32H165.561ZM174.537 82.56V84.32H172.553V91.36H170.441V76.624H172.553V82.56H174.537ZM176.36 78.144H183.304C183.304 82.56 181.624 86.352 176.728 88.832L175.544 87.216C178.968 85.456 180.792 83.12 181.176 79.856H176.36V78.144ZM189.288 82.256V84H187.224V91.344H185.112V76.624H187.224V82.256H189.288ZM196.584 80.656C196.584 81.76 197.368 82.4 198.44 82.4C199.528 82.4 200.312 81.76 200.312 80.656C200.312 79.568 199.528 78.928 198.44 78.928C197.368 78.928 196.584 79.568 196.584 80.656ZM204.584 81.504H202.232C201.832 83.088 200.328 84.144 198.44 84.144C196.232 84.144 194.568 82.688 194.568 80.656C194.568 78.64 196.232 77.184 198.44 77.184C200.328 77.184 201.816 78.224 202.216 79.792H204.584V76.64H206.696V84.432H204.584V81.504ZM199.432 89.632V88.24H197.944V89.632H199.432ZM205.736 85.152V86.256C205.736 87.776 206.44 89.168 208.232 89.792L207.192 91.36C205.96 90.912 205.144 90.08 204.664 89.056C204.184 90.064 203.384 90.896 202.2 91.36L201.368 90.096V91.2H195.992V85.28H197.944V86.72H199.432V85.28H201.368V89.696C202.984 88.944 203.656 87.584 203.656 86.256V85.152H205.736ZM213.126 86.272C214.214 86.272 214.934 85.104 214.934 82.912C214.934 80.736 214.214 79.568 213.126 79.568C212.054 79.568 211.334 80.736 211.334 82.912C211.334 85.104 212.054 86.272 213.126 86.272ZM219.35 76.624H221.462V91.408H219.35V83.648H216.902C216.678 86.464 215.174 88.192 213.126 88.192C210.934 88.192 209.318 86.16 209.318 82.912C209.318 79.68 210.934 77.664 213.126 77.664C215.11 77.664 216.598 79.28 216.886 81.936H219.35V76.624ZM228.853 85.136V87.952H232.101V85.136C231.589 85.232 231.045 85.28 230.469 85.28C229.893 85.28 229.365 85.232 228.853 85.136ZM230.469 79.024C228.421 79.024 227.061 79.856 227.061 81.328C227.061 82.784 228.421 83.632 230.469 83.632C232.517 83.632 233.893 82.784 233.893 81.328C233.893 79.856 232.517 79.024 230.469 79.024ZM234.197 87.952H237.157V89.664H223.813V87.952H226.757V84.352C225.637 83.664 224.965 82.608 224.981 81.328C224.981 78.912 227.301 77.36 230.469 77.36C233.653 77.36 235.973 78.912 235.973 81.328C235.973 82.608 235.301 83.664 234.197 84.352V87.952Z" fill="#27272A"/>
<path d="M78.7777 121.022L78.4277 120.126C80.7657 119.93 82.6697 118.978 82.7957 117.62H78.9317V116.71H82.8657V115.436H84.0137V116.71H87.9477V117.62H84.0697C84.1957 118.978 86.0997 119.93 88.4517 120.126L88.1017 121.022C86.0297 120.798 84.1957 120.056 83.4397 118.824C82.6697 120.056 80.8497 120.798 78.7777 121.022ZM86.5617 125.936C86.5617 125.166 85.4137 124.718 83.4257 124.718C81.4377 124.718 80.2897 125.166 80.2897 125.936C80.2897 126.72 81.4377 127.154 83.4257 127.154C85.4137 127.154 86.5617 126.72 86.5617 125.936ZM89.1097 122.604H83.9997V123.864C86.3517 123.962 87.7237 124.69 87.7237 125.936C87.7237 127.294 86.1277 128.022 83.4397 128.022C80.7237 128.022 79.1277 127.294 79.1277 125.936C79.1277 124.69 80.4997 123.962 82.8657 123.864V122.604H77.7557V121.68H89.1097V122.604ZM99.3706 119.986V118.362H93.2666V119.986H99.3706ZM100.505 115.87V120.896H92.1326V115.87H93.2666V117.48H99.3706V115.87H100.505ZM93.1966 124.34V126.818H100.743V127.756H92.0626V124.34H93.1966ZM90.6066 122.114H102.017V123.038H96.9766V125.474H95.8286V123.038H90.6066V122.114ZM110.961 117.018V117.942H103.555V117.018H106.677V115.478H107.825V117.018H110.961ZM105.347 120.966C105.347 121.848 106.117 122.408 107.251 122.408C108.385 122.408 109.169 121.848 109.169 120.966C109.169 120.098 108.385 119.538 107.251 119.538C106.117 119.538 105.347 120.098 105.347 120.966ZM110.261 120.966C110.261 122.38 109.029 123.304 107.251 123.304C105.473 123.304 104.255 122.38 104.255 120.966C104.255 119.566 105.473 118.642 107.251 118.642C109.029 118.642 110.261 119.566 110.261 120.966ZM106.593 124.158V126.818H113.817V127.756H105.445V124.158H106.593ZM113.257 119.622H115.105V120.588H113.257V124.9H112.109V115.478H113.257V119.622ZM121.926 117.942V124.06C123.704 124.046 124.824 123.99 126.14 123.71L126.252 124.648C124.824 124.956 123.606 125.012 121.604 125.012H120.792V117.018H125.51V117.942H121.926ZM127.372 120.266V115.786H128.45V127.406H127.372V121.218H124.67V120.266H127.372ZM129.892 115.478H130.984V128.036H129.892V115.478ZM142.337 115.478H143.485V128.064H142.337V115.478ZM136.863 116.444C138.725 116.444 140.055 118.152 140.055 120.826C140.055 123.5 138.725 125.208 136.863 125.208C135.001 125.208 133.671 123.5 133.671 120.826C133.671 118.152 135.001 116.444 136.863 116.444ZM136.863 117.48C135.631 117.48 134.763 118.796 134.763 120.826C134.763 122.87 135.631 124.186 136.863 124.186C138.081 124.186 138.949 122.87 138.949 120.826C138.949 118.796 138.081 117.48 136.863 117.48ZM147.81 121.078V124.088C150.078 124.088 151.534 124.004 153.242 123.696L153.368 124.634C151.548 124.956 150.022 125.026 147.628 125.026H146.662V116.612H152.472V117.564H147.81V120.154H151.926V121.078H147.81ZM155.286 115.464H156.434V128.05H155.286V121.162H152.696V120.21H155.286V115.464ZM159.639 116.822H165.379C165.379 120.392 163.741 123.626 159.681 125.656L159.051 124.76C162.257 123.15 163.979 120.742 164.245 117.774H159.639V116.822ZM170.643 120.574V121.526H168.627V128.036H167.479V115.478H168.627V120.574H170.643ZM179.899 121.512C178.947 120.924 178.429 119.93 178.149 118.908C177.827 119.916 177.239 120.84 176.287 121.386L175.685 120.574C177.099 119.748 177.617 118.04 177.617 116.836V115.996H178.723V116.836C178.723 117.774 178.961 119.244 179.899 120.224C180.837 119.272 181.089 117.844 181.089 116.85V116.01H181.313V115.996H182.167V116.836C182.167 118.194 182.699 119.804 184.113 120.574L183.497 121.386C182.545 120.868 181.957 120 181.635 118.992C181.355 120 180.837 120.966 179.899 121.526V121.512ZM181.887 127.182C183.497 127.182 184.407 126.832 184.407 126.202C184.407 125.572 183.497 125.222 181.887 125.222C180.249 125.222 179.339 125.572 179.339 126.202C179.339 126.832 180.249 127.182 181.887 127.182ZM181.887 124.382C184.183 124.382 185.541 125.026 185.541 126.202C185.541 127.378 184.183 128.022 181.887 128.022C179.563 128.022 178.219 127.378 178.219 126.202C178.219 125.026 179.563 124.382 181.887 124.382ZM182.461 121.666V122.898H186.311V123.78H177.435V122.898H181.299V121.666H182.461ZM185.793 118.194H187.403V119.146H185.793V122.156H184.645V115.492H185.793V118.194ZM197.79 115.478H198.938V128.064H197.79V115.478ZM192.316 116.444C194.178 116.444 195.508 118.152 195.508 120.826C195.508 123.5 194.178 125.208 192.316 125.208C190.454 125.208 189.124 123.5 189.124 120.826C189.124 118.152 190.454 116.444 192.316 116.444ZM192.316 117.48C191.084 117.48 190.216 118.796 190.216 120.826C190.216 122.87 191.084 124.186 192.316 124.186C193.534 124.186 194.402 122.87 194.402 120.826C194.402 118.796 193.534 117.48 192.316 117.48ZM206.021 117.718V119.314C206.021 121.442 207.533 123.612 209.381 124.396L208.737 125.32C207.281 124.648 206.049 123.206 205.447 121.484C204.873 123.318 203.641 124.9 202.213 125.628L201.541 124.704C203.347 123.85 204.873 121.484 204.873 119.314V117.718H201.961V116.766H208.975V117.718H206.021ZM210.669 115.492H211.817V128.036H210.669V115.492ZM219.715 119.09C219.715 120.238 220.625 121.05 221.843 121.05C223.047 121.05 223.957 120.238 223.957 119.09C223.957 117.942 223.047 117.13 221.843 117.13C220.625 117.13 219.715 117.942 219.715 119.09ZM225.077 119.09C225.077 120.798 223.705 121.988 221.843 121.988C219.967 121.988 218.595 120.798 218.595 119.09C218.595 117.382 219.967 116.192 221.843 116.192C223.705 116.192 225.077 117.382 225.077 119.09ZM220.793 123.094V126.762C221.521 126.734 222.445 126.622 223.313 126.342L223.495 127.252C222.305 127.644 221.129 127.714 220.275 127.714H219.673V123.094H220.793ZM226.197 127.21C226.953 127.21 227.499 126.818 227.499 126.244C227.499 125.67 226.953 125.292 226.197 125.292C225.427 125.292 224.895 125.67 224.895 126.244C224.895 126.818 225.427 127.21 226.197 127.21ZM226.197 124.48C227.555 124.48 228.521 125.166 228.521 126.244C228.521 127.336 227.555 128.022 226.197 128.022C224.839 128.022 223.873 127.336 223.873 126.244C223.873 125.166 224.839 124.48 226.197 124.48ZM226.757 122.044V123.178H229.347V124.032H223.033V123.178H225.637V122.044H226.757ZM228.101 118.292H229.963V119.244H228.101V121.736H226.953V115.478H228.101V118.292ZM234.75 117.186C233.49 117.186 232.594 117.998 232.594 119.174C232.594 120.35 233.49 121.162 234.75 121.162C235.996 121.162 236.906 120.35 236.906 119.174C236.906 117.998 235.996 117.186 234.75 117.186ZM234.75 122.128C232.846 122.128 231.474 120.924 231.474 119.174C231.474 117.424 232.846 116.22 234.75 116.22C236.64 116.22 238.026 117.424 238.026 119.174C238.026 120.924 236.64 122.128 234.75 122.128ZM240 123.206V123.864C240 125.18 240.924 126.482 242.52 127.042L241.946 127.882C240.714 127.42 239.846 126.552 239.426 125.488C239.048 126.524 238.292 127.49 237.116 127.994C235.912 127.518 235.17 126.594 234.792 125.53C234.344 126.552 233.49 127.434 232.314 127.882L231.726 127.042C233.322 126.44 234.246 125.082 234.246 123.864V123.206H235.352V123.864C235.352 124.998 235.926 126.188 237.088 126.874C238.292 126.118 238.88 124.844 238.88 123.864V123.206H240ZM240.98 118.488H242.842V119.44H240.98V122.632H239.832V115.478H240.98V118.488ZM247.475 124.186C248.665 124.186 249.505 122.87 249.505 120.826C249.505 118.796 248.665 117.48 247.475 117.48C246.271 117.48 245.431 118.796 245.431 120.826C245.431 122.87 246.271 124.186 247.475 124.186ZM253.313 115.478H254.461V128.064H253.313V121.204H250.583C250.471 123.668 249.225 125.208 247.475 125.208C245.641 125.208 244.339 123.5 244.339 120.826C244.339 118.152 245.641 116.444 247.475 116.444C249.169 116.444 250.401 117.914 250.583 120.266H253.313V115.478ZM260.928 122.52V125.474H264.428V122.52C263.896 122.646 263.294 122.716 262.664 122.716C262.048 122.716 261.446 122.646 260.928 122.52ZM262.664 117.172C260.648 117.172 259.206 118.096 259.206 119.496C259.206 120.896 260.648 121.82 262.664 121.82C264.68 121.82 266.136 120.896 266.136 119.496C266.136 118.096 264.68 117.172 262.664 117.172ZM265.576 125.474H268.39V126.426H256.98V125.474H259.78V122.086C258.73 121.54 258.1 120.63 258.1 119.496C258.1 117.536 260.004 116.276 262.664 116.276C265.338 116.276 267.228 117.536 267.228 119.496C267.228 120.63 266.612 121.526 265.576 122.072V125.474ZM271.06 127.08C270.815 127.08 270.604 126.992 270.428 126.816C270.253 126.64 270.165 126.43 270.165 126.185C270.165 125.939 270.253 125.729 270.428 125.553C270.604 125.378 270.815 125.29 271.06 125.29C271.305 125.29 271.516 125.378 271.691 125.553C271.867 125.729 271.955 125.939 271.955 126.185C271.955 126.347 271.913 126.496 271.83 126.632C271.751 126.768 271.643 126.877 271.507 126.96C271.375 127.04 271.226 127.08 271.06 127.08ZM56.0828 137.662V143.92H59.5968V137.662H56.0828ZM54.9628 144.844V136.738H60.7168V144.844H54.9628ZM66.1908 140.49V141.456H64.1188V148.036H62.9708V135.492H64.1188V140.49H66.1908ZM73.0077 135.758C75.7237 135.758 77.4177 136.64 77.4177 138.138C77.4177 139.622 75.7237 140.504 73.0077 140.504C70.2917 140.504 68.5977 139.622 68.5977 138.138C68.5977 136.64 70.2917 135.758 73.0077 135.758ZM73.0077 136.668C71.0197 136.668 69.7737 137.214 69.7737 138.138C69.7737 139.062 71.0197 139.608 73.0077 139.608C74.9957 139.608 76.2417 139.062 76.2417 138.138C76.2417 137.214 74.9957 136.668 73.0077 136.668ZM68.7377 143.738H77.3057V147.868H68.7377V143.738ZM76.1857 144.648H69.8577V146.944H76.1857V144.648ZM67.3377 141.582H78.6917V142.506H67.3377V141.582ZM83.0586 144.214C84.0386 144.214 84.6826 142.94 84.6826 140.882C84.6826 138.866 84.0386 137.592 83.0586 137.592C82.0506 137.592 81.4206 138.866 81.4206 140.882C81.4206 142.94 82.0506 144.214 83.0586 144.214ZM87.3006 140.364V135.758H88.3926V147.42H87.3006V141.302H85.7186C85.6206 143.766 84.5986 145.278 83.0586 145.278C81.4206 145.278 80.3706 143.598 80.3706 140.882C80.3706 138.208 81.4206 136.528 83.0586 136.528C84.5706 136.528 85.5786 137.998 85.7186 140.364H87.3006ZM89.7926 135.478H90.8846V148.036H89.7926V135.478ZM107.099 141.498V142.436H98.475V136.626H106.973V137.578H99.609V141.498H107.099ZM97.019 145.39H108.415V146.342H97.019V145.39ZM119.978 139.258V140.196H111.438V135.94H112.586V139.258H119.978ZM112.502 144.06V146.79H120.048V147.728H111.354V144.06H112.502ZM109.898 141.876H121.28V142.8H109.898V141.876ZM130.41 137.886V139.02C130.41 141.204 131.348 143.388 133.084 144.368L132.384 145.208C131.166 144.48 130.298 143.136 129.864 141.54C129.43 143.262 128.52 144.732 127.274 145.516L126.574 144.662C128.324 143.612 129.304 141.33 129.304 139.02V137.886H126.924V136.948H132.65V137.886H130.41ZM133.77 139.986V135.758H134.862V147.378H133.77V140.924H131.698V139.986H133.77ZM136.29 135.464H137.396V148.022H136.29V135.464ZM140.965 139.454C140.965 140.686 141.889 141.554 143.121 141.554C144.353 141.554 145.277 140.686 145.277 139.454C145.277 138.222 144.353 137.354 143.121 137.354C141.889 137.354 140.965 138.222 140.965 139.454ZM146.397 139.454C146.397 141.274 144.997 142.548 143.121 142.548C141.245 142.548 139.845 141.274 139.845 139.454C139.845 137.634 141.245 136.36 143.121 136.36C144.997 136.36 146.397 137.634 146.397 139.454ZM142.687 143.78V146.818H149.911V147.756H141.539V143.78H142.687ZM149.351 139.3H151.199V140.252H149.351V144.718H148.203V135.478H149.351V139.3ZM162.496 138.782V139.706H153.998V135.898H162.37V136.822H155.146V138.782H162.496ZM155.006 145.698V146.986H162.762V147.882H153.886V144.844H161.25V143.64H153.844V142.744H162.384V145.698H155.006ZM152.486 140.714H163.854V141.652H152.486V140.714ZM171.035 136.556C168.977 136.556 167.801 137.032 167.801 137.872C167.801 138.712 168.977 139.188 171.035 139.188C173.093 139.188 174.269 138.712 174.269 137.872C174.269 137.032 173.093 136.556 171.035 136.556ZM171.035 140.042C168.277 140.042 166.625 139.286 166.625 137.872C166.625 136.458 168.277 135.688 171.035 135.688C173.793 135.688 175.445 136.458 175.445 137.872C175.445 139.286 173.793 140.042 171.035 140.042ZM167.885 145.726V147H175.641V147.896H166.765V144.886H174.129V143.766H166.723V142.898H175.263V145.726H167.885ZM165.351 140.896H176.719V141.82H165.351V140.896ZM183.959 137.62V143.99C186.185 143.99 187.655 143.906 189.349 143.584L189.489 144.536C187.669 144.872 186.157 144.956 183.777 144.956H182.811V136.668H188.523V137.62H183.959ZM191.379 135.478H192.527V148.064H191.379V140.98H187.781V140.028H191.379V135.478ZM209.82 141.792L209.302 142.744C207.398 142.31 205.438 140.966 204.64 139.118C203.842 140.952 201.882 142.296 199.992 142.744L199.474 141.792C201.672 141.358 204.038 139.468 204.038 137.326V136.36H205.242V137.326C205.242 139.468 207.622 141.372 209.82 141.792ZM198.998 145.404H210.38V146.356H198.998V145.404ZM212.913 140.574L220.697 140.238C220.725 139.58 220.725 138.936 220.725 138.292V137.69H213.235V136.752H221.845V138.292C221.845 140.154 221.845 141.848 221.299 144.424L220.165 144.312C220.445 143.108 220.585 142.072 220.655 141.106L213.081 141.526L212.913 140.574ZM211.891 145.348H223.245V146.286H211.891V145.348ZM230.762 140.714L230.874 141.638C229.278 141.946 227.962 142.016 226.156 142.016H225.33V138.6H228.914V137.144H225.302V136.234H230.02V139.468H226.436V141.092C228.06 141.092 229.292 141.022 230.762 140.714ZM234.22 146.93V145.348H228.256V146.93H234.22ZM234.22 144.452V143.01H235.354V147.868H227.108V143.01H228.256V144.452H234.22ZM234.248 135.492H235.354V142.436H234.248V139.384H232.568V142.31H231.476V135.716H232.568V138.46H234.248V135.492ZM244.68 144.172C245.646 144.172 246.346 143.374 246.346 142.254C246.346 141.162 245.646 140.364 244.68 140.364C243.7 140.364 243.014 141.162 243.014 142.254C243.014 143.374 243.7 144.172 244.68 144.172ZM244.68 139.398C246.234 139.398 247.368 140.574 247.368 142.254C247.368 143.962 246.234 145.124 244.68 145.124C243.126 145.124 241.992 143.962 241.992 142.254C241.992 140.574 243.126 139.398 244.68 139.398ZM245.24 135.842V137.62H247.788V138.558H241.558V137.62H244.106V135.842H245.24ZM251.106 135.464H252.212V148.022H251.106V141.708H249.496V147.42H248.418V135.758H249.496V140.77H251.106V135.464ZM259.508 141.582L259.074 140.672C261.258 140.35 263.428 138.908 263.428 137.256V137.186H259.466V136.262H268.636V137.186H264.702V137.256C264.702 138.908 266.872 140.35 269.084 140.672L268.636 141.582C266.69 141.246 264.828 140.196 264.072 138.712C263.302 140.196 261.454 141.246 259.508 141.582ZM269.742 142.632L269.756 143.57H264.618V148.036H263.47V143.57H258.402V142.632H269.742ZM274.991 136.668V139.02C274.991 141.036 275.929 143.164 277.581 144.172L276.923 145.068C275.733 144.34 274.893 143.01 274.445 141.484C273.997 143.15 273.087 144.564 271.841 145.334L271.127 144.48C272.849 143.472 273.885 141.218 273.885 139.062V136.668H274.991ZM278.295 139.986V135.758H279.373V147.42H278.295V140.938H276.223V139.986H278.295ZM280.843 135.478H281.935V148.036H280.843V135.478ZM288.08 142.52V145.474H291.58V142.52C291.048 142.646 290.446 142.716 289.816 142.716C289.2 142.716 288.598 142.646 288.08 142.52ZM289.816 137.172C287.8 137.172 286.358 138.096 286.358 139.496C286.358 140.896 287.8 141.82 289.816 141.82C291.832 141.82 293.288 140.896 293.288 139.496C293.288 138.096 291.832 137.172 289.816 137.172ZM292.728 145.474H295.542V146.426H284.132V145.474H286.932V142.086C285.882 141.54 285.252 140.63 285.252 139.496C285.252 137.536 287.156 136.276 289.816 136.276C292.49 136.276 294.38 137.536 294.38 139.496C294.38 140.63 293.764 141.526 292.728 142.072V145.474Z" fill="#52525B"/>
</svg>
