<svg width="390" height="156" viewBox="0 0 390 156" fill="none" xmlns="http://www.w3.org/2000/svg">
<rect width="390" height="156" fill="white"/>
<path d="M200.334 45.3337C200.334 45.3337 198.334 42.667 195 42.667C191.667 42.667 189.667 45.3337 189.667 45.3337M191 36.0003H191.014M199 36.0003H199.014M208.334 40.0003C208.334 47.3641 202.364 53.3337 195 53.3337C187.637 53.3337 181.667 47.3641 181.667 40.0003C181.667 32.6365 187.637 26.667 195 26.667C202.364 26.667 208.334 32.6365 208.334 40.0003Z" stroke="#D4D4D8" stroke-width="2" stroke-linecap="round" stroke-linejoin="round"/>
<path d="M81.2959 77.616C82.0532 77.616 82.7199 77.8347 83.2959 78.272C83.8825 78.6987 84.3412 79.312 84.6719 80.112C85.0132 80.9013 85.1839 81.8347 85.1839 82.912C85.1839 84 85.0132 84.944 84.6719 85.744C84.3412 86.5333 83.8825 87.1467 83.2959 87.584C82.7199 88.0107 82.0532 88.224 81.2959 88.224C80.5385 88.224 79.8665 88.0107 79.2799 87.584C78.6932 87.1467 78.2292 86.5333 77.8879 85.744C77.5572 84.944 77.3919 84 77.3919 82.912C77.3919 81.8347 77.5572 80.9013 77.8879 80.112C78.2292 79.312 78.6932 78.6987 79.2799 78.272C79.8665 77.8347 80.5385 77.616 81.2959 77.616ZM81.2959 79.552C80.9332 79.552 80.6079 79.68 80.3199 79.936C80.0425 80.192 79.8239 80.5707 79.6639 81.072C79.5145 81.5627 79.4399 82.176 79.4399 82.912C79.4399 83.6373 79.5145 84.256 79.6639 84.768C79.8239 85.2693 80.0425 85.648 80.3199 85.904C80.6079 86.16 80.9332 86.288 81.2959 86.288C81.6585 86.288 81.9785 86.16 82.2559 85.904C82.5332 85.648 82.7465 85.2693 82.8959 84.768C83.0559 84.256 83.1359 83.6373 83.1359 82.912C83.1359 82.176 83.0559 81.5627 82.8959 81.072C82.7465 80.5707 82.5332 80.192 82.2559 79.936C81.9785 79.68 81.6585 79.552 81.2959 79.552ZM86.7839 76.608H88.9279V91.424H86.7839V76.608ZM88.4639 82.192H91.0719V83.936H88.4639V82.192ZM95.6306 78.128H97.3906V79.056C97.3906 79.984 97.236 80.8693 96.9266 81.712C96.628 82.544 96.1693 83.2693 95.5506 83.888C94.932 84.5067 94.1426 84.9707 93.1826 85.28L92.0946 83.632C92.9266 83.3653 93.5986 82.992 94.1106 82.512C94.6333 82.0213 95.0173 81.4773 95.2626 80.88C95.508 80.272 95.6306 79.664 95.6306 79.056V78.128ZM96.0786 78.128H97.8066V79.056C97.8066 79.4933 97.876 79.9307 98.0146 80.368C98.1533 80.7947 98.3613 81.2 98.6386 81.584C98.9266 81.968 99.2893 82.3147 99.7266 82.624C100.164 82.9333 100.681 83.184 101.279 83.376L100.207 85.04C99.2786 84.7413 98.5106 84.2933 97.9026 83.696C97.2946 83.0987 96.836 82.4 96.5266 81.6C96.228 80.7893 96.0786 79.9413 96.0786 79.056V78.128ZM102.223 76.592H104.351V85.536H102.223V76.592ZM94.2546 86.192H104.351V91.424H102.223V87.872H94.2546V86.192ZM92.6706 77.472H100.735V79.152H92.6706V77.472ZM111.358 78.144H123.438V79.808H111.358V78.144ZM110.734 86.192H124.158V87.888H110.734V86.192ZM116.366 87.696H118.478V91.424H116.366V87.696ZM117.438 80.384C119.027 80.384 120.27 80.6027 121.166 81.04C122.062 81.4773 122.51 82.1067 122.51 82.928C122.51 83.7493 122.062 84.384 121.166 84.832C120.27 85.2693 119.022 85.488 117.422 85.488C115.833 85.488 114.59 85.2693 113.694 84.832C112.798 84.384 112.35 83.7493 112.35 82.928C112.35 82.1067 112.798 81.4773 113.694 81.04C114.59 80.6027 115.838 80.384 117.438 80.384ZM117.422 81.968C116.462 81.968 115.742 82.0427 115.262 82.192C114.793 82.3413 114.558 82.5867 114.558 82.928C114.558 83.2587 114.793 83.504 115.262 83.664C115.742 83.824 116.462 83.904 117.422 83.904C118.393 83.904 119.113 83.824 119.582 83.664C120.062 83.504 120.302 83.2587 120.302 82.928C120.302 82.5867 120.062 82.3413 119.582 82.192C119.113 82.0427 118.393 81.968 117.422 81.968ZM116.366 76.592H118.478V79.248H116.366V76.592ZM129.309 84.208H131.437V87.44H129.309V84.208ZM135.789 76.592H137.917V87.824H135.789V76.592ZM127.245 89.456H138.253V91.168H127.245V89.456ZM127.245 86.752H129.373V89.92H127.245V86.752ZM125.661 84.848L125.389 83.152C126.296 83.1413 127.282 83.1307 128.349 83.12C129.416 83.0987 130.504 83.056 131.613 82.992C132.722 82.928 133.789 82.832 134.813 82.704L134.957 84.224C133.901 84.4053 132.824 84.544 131.725 84.64C130.637 84.7253 129.576 84.7787 128.541 84.8C127.506 84.8213 126.546 84.8373 125.661 84.848ZM133.005 85.2H136.269V86.656H133.005V85.2ZM130.157 77.104C130.882 77.104 131.522 77.216 132.077 77.44C132.632 77.664 133.064 77.9733 133.373 78.368C133.693 78.7627 133.853 79.2267 133.853 79.76C133.853 80.2827 133.693 80.7467 133.373 81.152C133.064 81.5467 132.632 81.8507 132.077 82.064C131.522 82.2773 130.882 82.384 130.157 82.384C129.432 82.384 128.786 82.2773 128.221 82.064C127.666 81.8507 127.234 81.5467 126.925 81.152C126.616 80.7467 126.461 80.2827 126.461 79.76C126.461 79.2267 126.616 78.7627 126.925 78.368C127.234 77.9733 127.666 77.664 128.221 77.44C128.786 77.216 129.432 77.104 130.157 77.104ZM130.157 78.656C129.666 78.656 129.261 78.7467 128.941 78.928C128.632 79.1093 128.477 79.3867 128.477 79.76C128.477 80.112 128.632 80.384 128.941 80.576C129.261 80.7573 129.666 80.848 130.157 80.848C130.658 80.848 131.058 80.7573 131.357 80.576C131.666 80.384 131.821 80.112 131.821 79.76C131.821 79.5147 131.752 79.312 131.613 79.152C131.474 78.992 131.282 78.8693 131.037 78.784C130.792 78.6987 130.498 78.656 130.157 78.656ZM149.692 76.608H151.82V87.68H149.692V76.608ZM151.228 81.12H153.788V82.88H151.228V81.12ZM140.172 78.16H148.876V79.824H140.172V78.16ZM144.524 80.352C145.238 80.352 145.868 80.4747 146.412 80.72C146.966 80.9547 147.398 81.2907 147.708 81.728C148.017 82.1547 148.172 82.6453 148.172 83.2C148.172 83.7653 148.017 84.2667 147.708 84.704C147.398 85.1307 146.966 85.4667 146.412 85.712C145.868 85.9467 145.238 86.064 144.524 86.064C143.82 86.064 143.19 85.9467 142.636 85.712C142.081 85.4667 141.649 85.1307 141.34 84.704C141.03 84.2667 140.876 83.7653 140.876 83.2C140.876 82.6453 141.03 82.1547 141.34 81.728C141.649 81.2907 142.081 80.9547 142.636 80.72C143.19 80.4747 143.82 80.352 144.524 80.352ZM144.524 81.968C144.054 81.968 143.67 82.0747 143.372 82.288C143.073 82.5013 142.924 82.8107 142.924 83.216C142.924 83.6107 143.073 83.9147 143.372 84.128C143.67 84.3413 144.054 84.448 144.524 84.448C145.004 84.448 145.388 84.3413 145.676 84.128C145.974 83.9147 146.124 83.6107 146.124 83.216C146.124 82.8107 145.974 82.5013 145.676 82.288C145.388 82.0747 145.004 81.968 144.524 81.968ZM143.468 76.592H145.58V78.96H143.468V76.592ZM142.268 89.456H152.348V91.168H142.268V89.456ZM142.268 86.848H144.412V90.192H142.268V86.848ZM169.115 76.608H171.259V87.392H169.115V76.608ZM167.035 80.624H170.363V82.32H167.035V80.624ZM159.211 77.76H167.099V79.472H159.211V77.76ZM159.067 85.504L158.859 83.792C159.702 83.792 160.619 83.7867 161.611 83.776C162.614 83.7547 163.632 83.7173 164.667 83.664C165.702 83.6 166.683 83.5147 167.611 83.408L167.755 84.96C166.795 85.12 165.803 85.2427 164.779 85.328C163.766 85.4027 162.768 85.4507 161.787 85.472C160.806 85.4933 159.899 85.504 159.067 85.504ZM160.395 79.152H162.443V84.112H160.395V79.152ZM163.883 79.152H165.931V84.112H163.883V79.152ZM161.467 89.456H171.579V91.168H161.467V89.456ZM161.467 86.512H163.595V90.608H161.467V86.512ZM183.754 76.592H185.882V85.44H183.754V76.592ZM174.41 82.864H175.69C176.778 82.864 177.717 82.8533 178.506 82.832C179.306 82.8107 180.026 82.768 180.666 82.704C181.317 82.6293 181.962 82.528 182.602 82.4L182.81 84.096C182.159 84.224 181.498 84.3253 180.826 84.4C180.154 84.464 179.407 84.5067 178.586 84.528C177.775 84.5493 176.81 84.56 175.69 84.56H174.41V82.864ZM174.41 77.696H181.434V79.408H176.522V83.824H174.41V77.696ZM180.874 85.6C181.919 85.6 182.815 85.7173 183.562 85.952C184.319 86.176 184.906 86.5067 185.322 86.944C185.738 87.3813 185.946 87.904 185.946 88.512C185.946 89.12 185.738 89.6427 185.322 90.08C184.906 90.528 184.319 90.864 183.562 91.088C182.815 91.3227 181.919 91.44 180.874 91.44C179.839 91.44 178.938 91.3227 178.17 91.088C177.413 90.864 176.826 90.528 176.41 90.08C176.005 89.6427 175.802 89.12 175.802 88.512C175.802 87.904 176.005 87.3813 176.41 86.944C176.826 86.5067 177.413 86.176 178.17 85.952C178.938 85.7173 179.839 85.6 180.874 85.6ZM180.874 87.248C180.234 87.248 179.69 87.296 179.242 87.392C178.805 87.4773 178.474 87.616 178.25 87.808C178.037 87.9893 177.93 88.224 177.93 88.512C177.93 88.8 178.037 89.04 178.25 89.232C178.474 89.424 178.805 89.568 179.242 89.664C179.69 89.7493 180.234 89.792 180.874 89.792C181.514 89.792 182.053 89.7493 182.49 89.664C182.927 89.568 183.258 89.424 183.482 89.232C183.706 89.04 183.818 88.8 183.818 88.512C183.818 88.224 183.706 87.9893 183.482 87.808C183.258 87.616 182.927 87.4773 182.49 87.392C182.053 87.296 181.514 87.248 180.874 87.248ZM192.265 87.968H205.689V89.712H192.265V87.968ZM193.289 77.872H204.585V79.584H193.289V77.872ZM193.369 84.016H204.537V85.712H193.369V84.016ZM195.305 79.456H197.433V84.176H195.305V79.456ZM200.441 79.456H202.569V84.176H200.441V79.456ZM206.984 88.064H220.408V89.792H206.984V88.064ZM212.616 85.248H214.728V88.752H212.616V85.248ZM208.504 77.552H218.888V82.496H210.632V84.976H208.52V80.832H216.776V79.248H208.504V77.552ZM208.52 84.144H219.224V85.84H208.52V84.144ZM227.831 80.256H230.135V81.968H227.831V80.256ZM229.399 76.88H231.399V85.568H229.399V76.88ZM224.295 78.832H225.959V79.76C225.959 80.5813 225.842 81.376 225.607 82.144C225.383 82.9013 225.02 83.5733 224.519 84.16C224.028 84.7467 223.383 85.2 222.583 85.52L221.495 83.888C222.167 83.6213 222.706 83.2693 223.111 82.832C223.527 82.3947 223.826 81.9147 224.007 81.392C224.199 80.8587 224.295 80.3147 224.295 79.76V78.832ZM224.711 78.832H226.359V79.76C226.359 80.2827 226.444 80.7947 226.615 81.296C226.796 81.7973 227.079 82.2507 227.463 82.656C227.858 83.0507 228.364 83.3707 228.983 83.616L227.943 85.264C227.164 84.9547 226.535 84.5227 226.055 83.968C225.586 83.4133 225.244 82.7733 225.031 82.048C224.818 81.3227 224.711 80.56 224.711 79.76V78.832ZM221.959 77.648H228.519V79.36H221.959V77.648ZM232.295 76.608H234.327V85.632H232.295V76.608ZM224.135 86.176H234.327V91.424H232.199V87.872H224.135V86.176ZM237.99 84.224H248.406V85.904H237.99V84.224ZM236.422 88H249.846V89.728H236.422V88ZM237.99 77.68H248.294V79.376H240.15V84.688H237.99V77.68ZM239.494 80.944H247.958V82.592H239.494V80.944ZM260.596 76.576H262.74V91.392H260.596V76.576ZM262.196 82.256H264.804V84H262.196V82.256ZM256.708 78.112H258.804C258.804 79.5947 258.591 80.9973 258.164 82.32C257.748 83.6427 257.055 84.8587 256.084 85.968C255.124 87.0667 253.823 88.0267 252.18 88.848L250.98 87.232C252.282 86.56 253.354 85.8027 254.196 84.96C255.05 84.1173 255.679 83.1627 256.084 82.096C256.5 81.0187 256.708 79.8187 256.708 78.496V78.112ZM251.796 78.112H257.812V79.824H251.796V78.112ZM271.444 85.28H273.428V86.736H274.9V85.28H276.852V91.264H271.444V85.28ZM273.428 88.272V89.664H274.9V88.272H273.428ZM279.156 85.152H280.756V86.256C280.756 86.9813 280.655 87.6853 280.452 88.368C280.249 89.04 279.919 89.6373 279.46 90.16C279.012 90.6933 278.42 91.104 277.684 91.392L276.644 89.808C277.241 89.5627 277.721 89.2533 278.084 88.88C278.457 88.496 278.729 88.08 278.9 87.632C279.071 87.1733 279.156 86.7147 279.156 86.256V85.152ZM279.636 85.152H281.268V86.256C281.268 86.768 281.348 87.2587 281.508 87.728C281.679 88.1867 281.945 88.5973 282.308 88.96C282.681 89.3227 283.167 89.6053 283.764 89.808L282.708 91.392C281.961 91.1253 281.364 90.736 280.916 90.224C280.468 89.712 280.143 89.12 279.94 88.448C279.737 87.7653 279.636 87.0347 279.636 86.256V85.152ZM277.316 79.776H281.028V81.488H277.316V79.776ZM273.908 77.152C274.655 77.152 275.321 77.3013 275.908 77.6C276.505 77.8987 276.975 78.3093 277.316 78.832C277.657 79.3547 277.828 79.9573 277.828 80.64C277.828 81.3227 277.657 81.9307 277.316 82.464C276.975 82.9867 276.505 83.3973 275.908 83.696C275.321 83.9947 274.655 84.144 273.908 84.144C273.172 84.144 272.505 83.9947 271.908 83.696C271.321 83.3973 270.857 82.9867 270.516 82.464C270.175 81.9307 270.004 81.3227 270.004 80.64C270.004 79.9573 270.175 79.3547 270.516 78.832C270.857 78.3093 271.321 77.8987 271.908 77.6C272.505 77.3013 273.172 77.152 273.908 77.152ZM273.908 78.896C273.545 78.896 273.22 78.9653 272.932 79.104C272.655 79.2427 272.436 79.4453 272.276 79.712C272.116 79.968 272.036 80.2773 272.036 80.64C272.036 81.0027 272.116 81.3173 272.276 81.584C272.436 81.8507 272.655 82.0533 272.932 82.192C273.22 82.3307 273.545 82.4 273.908 82.4C274.271 82.4 274.591 82.3307 274.868 82.192C275.156 82.0533 275.38 81.8507 275.54 81.584C275.7 81.3173 275.78 81.0027 275.78 80.64C275.78 80.2773 275.7 79.968 275.54 79.712C275.38 79.4453 275.156 79.2427 274.868 79.104C274.591 78.9653 274.271 78.896 273.908 78.896ZM280.084 76.608H282.228V84.448H280.084V76.608ZM288.595 77.616C289.331 77.616 289.987 77.8347 290.563 78.272C291.149 78.6987 291.603 79.312 291.923 80.112C292.253 80.9013 292.419 81.8347 292.419 82.912C292.419 84 292.253 84.944 291.923 85.744C291.603 86.5333 291.149 87.1467 290.563 87.584C289.987 88.0107 289.331 88.224 288.595 88.224C287.859 88.224 287.203 88.0107 286.627 87.584C286.051 87.1467 285.597 86.5333 285.267 85.744C284.936 84.944 284.771 84 284.771 82.912C284.771 81.8347 284.936 80.9013 285.267 80.112C285.597 79.312 286.051 78.6987 286.627 78.272C287.203 77.8347 287.859 77.616 288.595 77.616ZM288.595 79.552C288.243 79.552 287.928 79.68 287.651 79.936C287.384 80.192 287.176 80.5707 287.027 81.072C286.877 81.5627 286.803 82.176 286.803 82.912C286.803 83.6373 286.877 84.256 287.027 84.768C287.176 85.2693 287.384 85.648 287.651 85.904C287.928 86.16 288.243 86.288 288.595 86.288C288.968 86.288 289.288 86.16 289.555 85.904C289.821 85.648 290.029 85.2693 290.179 84.768C290.328 84.256 290.403 83.6373 290.403 82.912C290.403 82.176 290.328 81.5627 290.179 81.072C290.029 80.5707 289.821 80.192 289.555 79.936C289.288 79.68 288.968 79.552 288.595 79.552ZM294.851 76.576H296.979V91.44H294.851V76.576ZM291.795 81.936H295.747V83.632H291.795V81.936ZM302.209 84.128H304.337V88.272H302.209V84.128ZM307.585 84.128H309.713V88.272H307.585V84.128ZM299.265 87.968H312.689V89.696H299.265V87.968ZM305.953 77.328C307.02 77.328 307.969 77.4933 308.801 77.824C309.644 78.1547 310.3 78.6187 310.769 79.216C311.249 79.8027 311.489 80.5013 311.489 81.312C311.489 82.112 311.249 82.8107 310.769 83.408C310.3 83.9947 309.644 84.4533 308.801 84.784C307.969 85.1147 307.02 85.28 305.953 85.28C304.897 85.28 303.948 85.1147 303.105 84.784C302.273 84.4533 301.617 83.9947 301.137 83.408C300.657 82.8107 300.417 82.112 300.417 81.312C300.417 80.5013 300.657 79.8027 301.137 79.216C301.617 78.6187 302.273 78.1547 303.105 77.824C303.948 77.4933 304.897 77.328 305.953 77.328ZM305.953 78.976C305.271 78.976 304.668 79.072 304.145 79.264C303.633 79.4453 303.233 79.7067 302.945 80.048C302.657 80.3893 302.513 80.8107 302.513 81.312C302.513 81.792 302.657 82.208 302.945 82.56C303.233 82.9013 303.633 83.168 304.145 83.36C304.668 83.5413 305.271 83.632 305.953 83.632C306.647 83.632 307.249 83.5413 307.761 83.36C308.284 83.168 308.684 82.9013 308.961 82.56C309.249 82.208 309.393 81.792 309.393 81.312C309.393 80.8107 309.249 80.3893 308.961 80.048C308.684 79.7067 308.284 79.4453 307.761 79.264C307.249 79.072 306.647 78.976 305.953 78.976Z" fill="#27272A"/>
<path d="M55.6435 116.696H61.4535V124.872H55.6435V116.696ZM60.3055 117.62H56.7775V123.934H60.3055V117.62ZM63.7075 115.422H64.8695V128.092H63.7075V115.422ZM64.6035 120.476H66.9415V121.456H64.6035V120.476ZM73.7304 115.702C74.645 115.702 75.4337 115.8 76.0964 115.996C76.7684 116.183 77.2817 116.453 77.6364 116.808C78.0004 117.163 78.1824 117.597 78.1824 118.11C78.1824 118.605 78.0004 119.034 77.6364 119.398C77.2817 119.753 76.7684 120.023 76.0964 120.21C75.4337 120.397 74.645 120.49 73.7304 120.49C72.825 120.49 72.0364 120.397 71.3644 120.21C70.7017 120.023 70.1884 119.753 69.8244 119.398C69.4604 119.034 69.2784 118.605 69.2784 118.11C69.2784 117.597 69.4604 117.163 69.8244 116.808C70.1884 116.453 70.7017 116.183 71.3644 115.996C72.0364 115.8 72.825 115.702 73.7304 115.702ZM73.7304 116.626C73.0677 116.626 72.489 116.687 71.9944 116.808C71.509 116.92 71.131 117.088 70.8604 117.312C70.599 117.527 70.4684 117.793 70.4684 118.11C70.4684 118.409 70.599 118.67 70.8604 118.894C71.131 119.109 71.509 119.277 71.9944 119.398C72.489 119.51 73.0677 119.566 73.7304 119.566C74.4024 119.566 74.981 119.51 75.4664 119.398C75.961 119.277 76.339 119.109 76.6004 118.894C76.8617 118.67 76.9924 118.409 76.9924 118.11C76.9924 117.793 76.8617 117.527 76.6004 117.312C76.339 117.088 75.961 116.92 75.4664 116.808C74.981 116.687 74.4024 116.626 73.7304 116.626ZM69.4184 123.752H78.0564V127.924H69.4184V123.752ZM76.9224 124.69H70.5524V126.972H76.9224V124.69ZM68.0184 121.568H79.4564V122.52H68.0184V121.568ZM86.6093 115.646C88.0093 115.646 89.1013 115.837 89.8853 116.22C90.6693 116.593 91.0613 117.13 91.0613 117.83C91.0613 118.539 90.6693 119.085 89.8853 119.468C89.1013 119.841 88.0093 120.028 86.6093 120.028C85.2186 120.028 84.1266 119.841 83.3333 119.468C82.5493 119.085 82.1573 118.539 82.1573 117.83C82.1573 117.13 82.5493 116.593 83.3333 116.22C84.1266 115.837 85.2186 115.646 86.6093 115.646ZM86.6093 116.514C85.9279 116.514 85.3446 116.565 84.8593 116.668C84.3739 116.771 84.0006 116.92 83.7393 117.116C83.4873 117.312 83.3613 117.55 83.3613 117.83C83.3613 118.11 83.4873 118.353 83.7393 118.558C84.0006 118.754 84.3739 118.903 84.8593 119.006C85.3446 119.099 85.9279 119.146 86.6093 119.146C87.2999 119.146 87.8879 119.099 88.3733 119.006C88.8586 118.903 89.2273 118.754 89.4793 118.558C89.7406 118.353 89.8713 118.11 89.8713 117.83C89.8713 117.55 89.7406 117.312 89.4793 117.116C89.2273 116.92 88.8586 116.771 88.3733 116.668C87.8879 116.565 87.2999 116.514 86.6093 116.514ZM80.8973 120.882H92.3353V121.82H80.8973V120.882ZM82.2833 122.898H90.8653V125.754H83.4453V127.28H82.3113V124.9H89.7313V123.794H82.2833V122.898ZM82.3113 127.042H91.2433V127.952H82.3113V127.042ZM102.852 121.89H104V124.074H102.852V121.89ZM103.426 115.66C104.34 115.66 105.129 115.758 105.792 115.954C106.464 116.141 106.977 116.411 107.332 116.766C107.696 117.121 107.878 117.55 107.878 118.054C107.878 118.549 107.696 118.973 107.332 119.328C106.977 119.683 106.464 119.953 105.792 120.14C105.129 120.317 104.34 120.406 103.426 120.406C102.52 120.406 101.732 120.317 101.06 120.14C100.397 119.953 99.8837 119.683 99.5197 119.328C99.1557 118.973 98.9737 118.549 98.9737 118.054C98.9737 117.55 99.1557 117.121 99.5197 116.766C99.8837 116.411 100.397 116.141 101.06 115.954C101.732 115.758 102.52 115.66 103.426 115.66ZM103.426 116.57C102.763 116.57 102.184 116.631 101.69 116.752C101.204 116.873 100.826 117.041 100.556 117.256C100.294 117.471 100.164 117.737 100.164 118.054C100.164 118.353 100.294 118.614 100.556 118.838C100.826 119.053 101.204 119.216 101.69 119.328C102.184 119.44 102.763 119.496 103.426 119.496C104.098 119.496 104.676 119.44 105.162 119.328C105.656 119.216 106.034 119.053 106.296 118.838C106.557 118.614 106.688 118.353 106.688 118.054C106.688 117.737 106.557 117.471 106.296 117.256C106.034 117.041 105.656 116.873 105.162 116.752C104.676 116.631 104.098 116.57 103.426 116.57ZM99.1137 123.752H107.752V127.924H99.1137V123.752ZM106.618 124.69H100.248V126.972H106.618V124.69ZM97.7137 121.372H109.152V122.324H97.7137V121.372ZM113.967 116.724H114.933V117.746C114.933 118.521 114.783 119.239 114.485 119.902C114.186 120.565 113.766 121.143 113.225 121.638C112.693 122.133 112.072 122.506 111.363 122.758L110.761 121.862C111.395 121.629 111.951 121.307 112.427 120.896C112.912 120.476 113.29 119.995 113.561 119.454C113.831 118.913 113.967 118.343 113.967 117.746V116.724ZM114.191 116.724H115.143V117.746C115.143 118.175 115.217 118.586 115.367 118.978C115.525 119.37 115.749 119.739 116.039 120.084C116.328 120.42 116.664 120.723 117.047 120.994C117.439 121.255 117.868 121.461 118.335 121.61L117.747 122.52C117.047 122.277 116.431 121.923 115.899 121.456C115.367 120.989 114.947 120.439 114.639 119.804C114.34 119.169 114.191 118.483 114.191 117.746V116.724ZM119.805 115.422H120.967V123.08H119.805V115.422ZM112.511 123.752H120.967V128.092H119.805V124.704H112.511V123.752ZM111.069 116.304H117.999V117.256H111.069V116.304ZM132.669 115.422H133.831V128.106H132.669V115.422ZM127.153 116.402C127.779 116.402 128.329 116.584 128.805 116.948C129.291 117.303 129.669 117.811 129.939 118.474C130.219 119.137 130.359 119.916 130.359 120.812C130.359 121.708 130.219 122.487 129.939 123.15C129.669 123.813 129.291 124.326 128.805 124.69C128.329 125.054 127.779 125.236 127.153 125.236C126.528 125.236 125.973 125.054 125.487 124.69C125.002 124.326 124.619 123.813 124.339 123.15C124.069 122.487 123.933 121.708 123.933 120.812C123.933 119.916 124.069 119.137 124.339 118.474C124.619 117.811 125.002 117.303 125.487 116.948C125.973 116.584 126.528 116.402 127.153 116.402ZM127.153 117.438C126.733 117.438 126.365 117.578 126.047 117.858C125.739 118.129 125.497 118.521 125.319 119.034C125.142 119.538 125.053 120.131 125.053 120.812C125.053 121.493 125.142 122.091 125.319 122.604C125.497 123.108 125.739 123.5 126.047 123.78C126.365 124.06 126.733 124.2 127.153 124.2C127.564 124.2 127.923 124.06 128.231 123.78C128.549 123.5 128.796 123.108 128.973 122.604C129.151 122.091 129.239 121.493 129.239 120.812C129.239 120.131 129.151 119.538 128.973 119.034C128.796 118.521 128.549 118.129 128.231 117.858C127.923 117.578 127.564 117.438 127.153 117.438ZM137.89 119.23H146.5V120.168H137.89V119.23ZM136.336 121.862H147.816V122.814H136.336V121.862ZM137.89 115.884H139.038V119.706H137.89V115.884ZM137.806 126.832H146.57V127.784H137.806V126.832ZM137.806 124.088H138.968V127.084H137.806V124.088ZM153.167 125.488H164.647V126.468H153.167V125.488ZM154.175 116.696H163.569V117.648H154.175V116.696ZM154.203 122.03H163.541V122.982H154.203V122.03ZM156.135 117.564H157.297V122.142H156.135V117.564ZM160.447 117.564H161.595V122.142H160.447V117.564ZM166.046 125.558H177.526V126.524H166.046V125.558ZM171.184 122.856H172.332V125.964H171.184V122.856ZM167.446 116.36H176.098V120.196H168.622V122.73H167.474V119.272H174.95V117.312H167.446V116.36ZM167.474 122.24H176.392V123.192H167.474V122.24ZM184.147 118.684H186.457V119.636H184.147V118.684ZM186.037 115.702H187.143V123.052H186.037V115.702ZM181.543 117.088H182.467V118.124C182.467 118.777 182.355 119.417 182.131 120.042C181.916 120.667 181.589 121.227 181.151 121.722C180.721 122.207 180.199 122.59 179.583 122.87L178.967 121.96C179.517 121.727 179.984 121.405 180.367 120.994C180.749 120.583 181.039 120.131 181.235 119.636C181.44 119.132 181.543 118.628 181.543 118.124V117.088ZM181.753 117.088H182.663V118.124C182.663 118.581 182.761 119.043 182.957 119.51C183.153 119.967 183.433 120.387 183.797 120.77C184.17 121.143 184.618 121.442 185.141 121.666L184.539 122.562C183.932 122.31 183.419 121.951 182.999 121.484C182.588 121.017 182.275 120.495 182.061 119.916C181.855 119.328 181.753 118.731 181.753 118.124V117.088ZM179.219 116.458H184.847V117.41H179.219V116.458ZM188.487 115.422H189.593V123.164H188.487V115.422ZM181.109 123.724H189.593V128.092H188.445V124.676H181.109V123.724ZM193.274 122.254H201.968V123.192H193.274V122.254ZM191.804 125.488H203.284V126.454H191.804V125.488ZM193.274 116.514H201.842V117.466H194.45V122.534H193.274V116.514ZM194.086 119.328H201.562V120.266H194.086V119.328ZM204.668 121.302H216.148V122.198H204.668V121.302ZM206.04 123.206H214.72V125.908H207.216V127.392H206.068V125.11H213.572V124.046H206.04V123.206ZM206.068 127.084H215.126V127.924H206.068V127.084ZM206.124 115.8H214.678V118.432H207.3V119.804H206.152V117.648H213.53V116.626H206.124V115.8ZM206.152 119.524H214.902V120.364H206.152V119.524ZM224.663 117.508H225.601V118.054C225.601 118.773 225.451 119.435 225.153 120.042C224.863 120.649 224.453 121.176 223.921 121.624C223.389 122.072 222.768 122.413 222.059 122.646L221.499 121.722C222.124 121.526 222.675 121.246 223.151 120.882C223.627 120.518 223.995 120.093 224.257 119.608C224.527 119.123 224.663 118.605 224.663 118.054V117.508ZM224.859 117.508H225.811V118.054C225.811 118.558 225.937 119.039 226.189 119.496C226.45 119.944 226.814 120.345 227.281 120.7C227.747 121.045 228.289 121.311 228.905 121.498L228.373 122.394C227.663 122.179 227.043 121.862 226.511 121.442C225.988 121.013 225.582 120.509 225.293 119.93C225.003 119.351 224.859 118.726 224.859 118.054V117.508ZM221.849 116.892H228.611V117.83H221.849V116.892ZM224.663 115.366H225.825V117.284H224.663V115.366ZM230.165 115.422H231.327V122.772H230.165V115.422ZM231.005 118.544H233.189V119.51H231.005V118.544ZM226.791 123.822H227.771V124.158C227.771 124.653 227.649 125.115 227.407 125.544C227.173 125.973 226.842 126.356 226.413 126.692C225.993 127.028 225.507 127.308 224.957 127.532C224.406 127.765 223.818 127.933 223.193 128.036L222.759 127.14C223.3 127.065 223.813 126.935 224.299 126.748C224.784 126.561 225.213 126.337 225.587 126.076C225.96 125.805 226.254 125.507 226.469 125.18C226.683 124.853 226.791 124.513 226.791 124.158V123.822ZM227.001 123.822H227.995V124.158C227.995 124.513 228.102 124.849 228.317 125.166C228.541 125.483 228.839 125.777 229.213 126.048C229.586 126.319 230.011 126.552 230.487 126.748C230.972 126.935 231.485 127.07 232.027 127.154L231.593 128.05C230.967 127.938 230.379 127.765 229.829 127.532C229.278 127.308 228.788 127.028 228.359 126.692C227.939 126.347 227.607 125.959 227.365 125.53C227.122 125.101 227.001 124.643 227.001 124.158V123.822ZM223.249 123.458H231.537V124.41H223.249V123.458ZM237.738 116.402C238.363 116.402 238.914 116.584 239.39 116.948C239.866 117.303 240.239 117.811 240.51 118.474C240.78 119.137 240.916 119.916 240.916 120.812C240.916 121.708 240.78 122.487 240.51 123.15C240.239 123.813 239.866 124.326 239.39 124.69C238.914 125.054 238.363 125.236 237.738 125.236C237.122 125.236 236.571 125.054 236.086 124.69C235.61 124.326 235.236 123.813 234.966 123.15C234.695 122.487 234.56 121.708 234.56 120.812C234.56 119.916 234.695 119.137 234.966 118.474C235.236 117.811 235.61 117.303 236.086 116.948C236.571 116.584 237.122 116.402 237.738 116.402ZM237.738 117.438C237.336 117.438 236.977 117.578 236.66 117.858C236.352 118.129 236.109 118.521 235.932 119.034C235.754 119.538 235.666 120.131 235.666 120.812C235.666 121.493 235.754 122.091 235.932 122.604C236.109 123.108 236.352 123.5 236.66 123.78C236.977 124.06 237.341 124.2 237.752 124.2C238.153 124.2 238.508 124.06 238.816 123.78C239.133 123.5 239.376 123.108 239.544 122.604C239.721 122.091 239.81 121.493 239.81 120.812C239.81 120.131 239.721 119.538 239.544 119.034C239.376 118.521 239.133 118.129 238.816 117.858C238.508 117.578 238.148 117.438 237.738 117.438ZM242.946 115.422H244.108V128.092H242.946V115.422ZM243.842 120.476H246.18V121.456H243.842V120.476ZM251.796 116.864H261.974V117.816H251.796V116.864ZM251.194 123.64H262.674V124.592H251.194V123.64ZM256.332 124.41H257.48V128.106H256.332V124.41ZM256.906 118.544C258.194 118.544 259.202 118.726 259.93 119.09C260.658 119.454 261.022 119.977 261.022 120.658C261.022 121.321 260.658 121.839 259.93 122.212C259.202 122.576 258.194 122.758 256.906 122.758C255.618 122.758 254.61 122.576 253.882 122.212C253.154 121.839 252.79 121.321 252.79 120.658C252.79 119.977 253.154 119.454 253.882 119.09C254.61 118.726 255.618 118.544 256.906 118.544ZM256.906 119.426C255.982 119.426 255.263 119.533 254.75 119.748C254.246 119.953 253.994 120.257 253.994 120.658C253.994 121.041 254.246 121.339 254.75 121.554C255.263 121.769 255.982 121.876 256.906 121.876C257.83 121.876 258.544 121.769 259.048 121.554C259.561 121.339 259.818 121.041 259.818 120.658C259.818 120.257 259.561 119.953 259.048 119.748C258.544 119.533 257.83 119.426 256.906 119.426ZM256.332 115.352H257.48V117.494H256.332V115.352ZM267.657 121.806H268.819V124.62H267.657V121.806ZM273.271 115.436H274.433V125.054H273.271V115.436ZM265.795 126.86H274.741V127.812H265.795V126.86ZM265.795 124.116H266.957V127.112H265.795V124.116ZM264.157 122.24L264.003 121.274C264.787 121.274 265.636 121.269 266.551 121.26C267.475 121.241 268.418 121.209 269.379 121.162C270.34 121.106 271.269 121.022 272.165 120.91L272.249 121.75C271.344 121.899 270.41 122.011 269.449 122.086C268.497 122.151 267.568 122.193 266.663 122.212C265.758 122.231 264.922 122.24 264.157 122.24ZM270.695 122.912H273.579V123.752H270.695V122.912ZM268.119 115.94C268.744 115.94 269.29 116.033 269.757 116.22C270.224 116.397 270.583 116.654 270.835 116.99C271.096 117.317 271.227 117.704 271.227 118.152C271.227 118.591 271.096 118.978 270.835 119.314C270.583 119.65 270.224 119.907 269.757 120.084C269.29 120.261 268.744 120.35 268.119 120.35C267.503 120.35 266.957 120.261 266.481 120.084C266.014 119.907 265.65 119.65 265.389 119.314C265.137 118.978 265.011 118.591 265.011 118.152C265.011 117.704 265.137 117.317 265.389 116.99C265.65 116.654 266.014 116.397 266.481 116.22C266.957 116.033 267.503 115.94 268.119 115.94ZM268.119 116.808C267.522 116.808 267.036 116.929 266.663 117.172C266.29 117.415 266.103 117.741 266.103 118.152C266.103 118.553 266.29 118.875 266.663 119.118C267.036 119.361 267.522 119.482 268.119 119.482C268.707 119.482 269.188 119.361 269.561 119.118C269.934 118.875 270.121 118.553 270.121 118.152C270.121 117.872 270.037 117.634 269.869 117.438C269.701 117.242 269.468 117.088 269.169 116.976C268.87 116.864 268.52 116.808 268.119 116.808ZM276.924 117.592H283.21V118.544H276.924V117.592ZM280.074 119.384C280.606 119.384 281.073 119.505 281.474 119.748C281.885 119.991 282.207 120.331 282.44 120.77C282.673 121.199 282.79 121.699 282.79 122.268C282.79 122.837 282.673 123.341 282.44 123.78C282.207 124.209 281.885 124.55 281.474 124.802C281.073 125.045 280.606 125.166 280.074 125.166C279.551 125.166 279.085 125.045 278.674 124.802C278.263 124.55 277.941 124.209 277.708 123.78C277.475 123.341 277.358 122.837 277.358 122.268C277.358 121.699 277.475 121.199 277.708 120.77C277.941 120.341 278.263 120.005 278.674 119.762C279.085 119.51 279.551 119.384 280.074 119.384ZM280.074 120.364C279.757 120.364 279.467 120.448 279.206 120.616C278.954 120.775 278.753 120.999 278.604 121.288C278.464 121.568 278.394 121.895 278.394 122.268C278.394 122.641 278.464 122.973 278.604 123.262C278.753 123.551 278.954 123.775 279.206 123.934C279.467 124.093 279.757 124.172 280.074 124.172C280.401 124.172 280.69 124.093 280.942 123.934C281.194 123.775 281.39 123.551 281.53 123.262C281.679 122.973 281.754 122.641 281.754 122.268C281.754 121.895 281.679 121.568 281.53 121.288C281.39 120.999 281.194 120.775 280.942 120.616C280.69 120.448 280.401 120.364 280.074 120.364ZM286.556 115.422H287.662V128.092H286.556V115.422ZM284.526 120.756H286.92V121.708H284.526V120.756ZM283.84 115.716H284.932V127.476H283.84V115.716ZM279.5 115.8H280.648V118.166H279.5V115.8ZM293.768 125.516H305.248V126.482H293.768V125.516ZM298.906 122.478H300.054V125.796H298.906V122.478ZM295.112 116.318H296.274V118.572H302.714V116.318H303.862V122.8H295.112V116.318ZM296.274 119.524V121.848H302.714V119.524H296.274ZM311.631 119.958H314.067V120.924H311.631V119.958ZM309.279 116.612H310.189V119.034C310.189 119.687 310.119 120.331 309.979 120.966C309.849 121.601 309.653 122.198 309.391 122.758C309.139 123.318 308.831 123.822 308.467 124.27C308.103 124.718 307.693 125.082 307.235 125.362L306.507 124.494C306.937 124.233 307.324 123.906 307.669 123.514C308.015 123.122 308.304 122.683 308.537 122.198C308.78 121.703 308.962 121.19 309.083 120.658C309.214 120.117 309.279 119.575 309.279 119.034V116.612ZM309.503 116.612H310.399V118.992C310.399 119.496 310.455 120.005 310.567 120.518C310.689 121.022 310.857 121.507 311.071 121.974C311.295 122.431 311.571 122.851 311.897 123.234C312.224 123.617 312.593 123.934 313.003 124.186L312.345 125.082C311.888 124.802 311.482 124.447 311.127 124.018C310.773 123.579 310.474 123.089 310.231 122.548C309.989 121.997 309.807 121.419 309.685 120.812C309.564 120.205 309.503 119.599 309.503 118.992V116.612ZM316.293 115.422H317.413V128.092H316.293V115.422ZM313.717 115.688H314.809V127.448H313.717V115.688ZM322.34 121.946H323.488V125.726H322.34V121.946ZM327.016 121.946H328.178V125.726H327.016V121.946ZM319.526 125.502H331.006V126.468H319.526V125.502ZM325.238 116.22C326.134 116.22 326.928 116.355 327.618 116.626C328.309 116.897 328.85 117.275 329.242 117.76C329.644 118.245 329.844 118.819 329.844 119.482C329.844 120.135 329.644 120.709 329.242 121.204C328.85 121.689 328.309 122.067 327.618 122.338C326.928 122.599 326.134 122.73 325.238 122.73C324.352 122.73 323.558 122.599 322.858 122.338C322.168 122.067 321.626 121.689 321.234 121.204C320.842 120.709 320.646 120.135 320.646 119.482C320.646 118.819 320.842 118.245 321.234 117.76C321.626 117.275 322.168 116.897 322.858 116.626C323.558 116.355 324.352 116.22 325.238 116.22ZM325.238 117.144C324.566 117.144 323.969 117.242 323.446 117.438C322.924 117.634 322.513 117.909 322.214 118.264C321.916 118.609 321.766 119.015 321.766 119.482C321.766 119.949 321.916 120.359 322.214 120.714C322.513 121.059 322.924 121.33 323.446 121.526C323.969 121.722 324.566 121.82 325.238 121.82C325.92 121.82 326.522 121.722 327.044 121.526C327.567 121.33 327.978 121.059 328.276 120.714C328.575 120.359 328.724 119.949 328.724 119.482C328.724 119.015 328.575 118.609 328.276 118.264C327.978 117.909 327.567 117.634 327.044 117.438C326.522 117.242 325.92 117.144 325.238 117.144ZM333.634 127.08C333.389 127.08 333.178 126.992 333.003 126.816C332.827 126.64 332.739 126.43 332.739 126.185C332.739 125.939 332.827 125.729 333.003 125.553C333.178 125.378 333.389 125.29 333.634 125.29C333.879 125.29 334.09 125.378 334.265 125.553C334.441 125.729 334.529 125.939 334.529 126.185C334.529 126.347 334.488 126.496 334.405 126.632C334.325 126.768 334.217 126.877 334.081 126.96C333.949 127.04 333.8 127.08 333.634 127.08Z" fill="#52525B"/>
</svg>
