<svg width="358" height="176" viewBox="0 0 358 176" fill="none" xmlns="http://www.w3.org/2000/svg">
<path d="M176.25 72.6663C176.131 72.2049 175.89 71.7838 175.553 71.4469C175.216 71.1099 174.795 70.8694 174.334 70.7503L166.154 68.641C166.014 68.6014 165.891 68.5173 165.804 68.4016C165.716 68.2859 165.669 68.1448 165.669 67.9997C165.669 67.8546 165.716 67.7135 165.804 67.5978C165.891 67.482 166.014 67.398 166.154 67.3583L174.334 65.2477C174.795 65.1288 175.216 64.8884 175.553 64.5517C175.89 64.215 176.13 63.7942 176.25 63.333L178.359 55.153C178.398 55.0129 178.482 54.8895 178.598 54.8015C178.714 54.7136 178.855 54.666 179.001 54.666C179.146 54.666 179.288 54.7136 179.404 54.8015C179.52 54.8895 179.604 55.0129 179.643 55.153L181.751 63.333C181.87 63.7944 182.11 64.2155 182.447 64.5525C182.784 64.8895 183.205 65.13 183.667 65.249L191.847 67.357C191.988 67.3958 192.112 67.4797 192.2 67.5958C192.288 67.7119 192.336 67.8538 192.336 67.9997C192.336 68.1456 192.288 68.2875 192.2 68.4036C192.112 68.5197 191.988 68.6035 191.847 68.6423L183.667 70.7503C183.205 70.8694 182.784 71.1099 182.447 71.4469C182.11 71.7838 181.87 72.2049 181.751 72.6663L179.642 80.8463C179.602 80.9865 179.518 81.1099 179.402 81.1978C179.287 81.2858 179.145 81.3333 179 81.3333C178.854 81.3333 178.713 81.2858 178.597 81.1978C178.481 81.1099 178.397 80.9865 178.358 80.8463L176.25 72.6663Z" stroke="#A1A1AA" stroke-width="2" stroke-linecap="round" stroke-linejoin="round"/>
<path d="M118.252 112.704L117.516 111.04C120.588 110.704 122.156 109.28 122.396 108H118.044V106.32H122.428V104.672H124.54V106.32H128.956V108H124.588C124.844 109.248 126.444 110.704 129.468 111.04L128.716 112.704C126.22 112.4 124.444 111.392 123.5 110.064C122.556 111.392 120.78 112.4 118.252 112.704ZM130.172 113.456V115.168H124.54V119.408H122.428V115.168H116.86V113.456H130.172ZM139.419 108.944H141.771V104.64H143.883V115.552H141.771V110.64H139.419V108.944ZM140.411 112.176L139.403 113.824C137.755 113.344 136.619 112.352 135.947 111.088C135.307 112.464 134.155 113.536 132.491 114.064L131.467 112.416C133.835 111.664 134.859 109.872 134.859 108.096V108.032H131.979V106.384H134.859V104.752H136.971V106.384H139.883V108.032H136.971V108.096C136.971 109.776 138.011 111.456 140.411 112.176ZM136.283 117.44H144.219V119.12H134.171V114.64H136.283V117.44ZM160.459 108.08H157.339C156.443 110.272 154.363 111.664 151.131 112.368L150.427 110.672C153.771 110.016 155.275 108.608 155.531 106.88H151.275V105.2H157.851C157.851 105.648 157.819 106.08 157.755 106.496H160.459V104.64H162.571V112.032H160.459V110.928H157.195V109.344H160.459V108.08ZM154.987 117.568H162.875V119.232H152.875V115.072H160.459V114.24H152.859V112.576H162.571V116.64H154.987V117.568ZM172.777 112.944L170.713 112.768C171.049 110.672 171.097 109.088 171.097 107.776H165.593V106.096H173.177V107.296C173.177 108.72 173.177 110.512 172.777 112.944ZM169.561 110.32V114.608C170.985 114.56 172.425 114.464 173.769 114.304L173.881 115.824C170.889 116.336 167.593 116.4 165.033 116.416L164.841 114.688C165.657 114.688 166.553 114.688 167.481 114.672V110.32H169.561ZM178.537 110.56V112.32H176.553V119.36H174.441V104.624H176.553V110.56H178.537ZM180.36 106.144H187.304C187.304 110.56 185.624 114.352 180.728 116.832L179.544 115.216C182.968 113.456 184.792 111.12 185.176 107.856H180.36V106.144ZM193.288 110.256V112H191.224V119.344H189.112V104.624H191.224V110.256H193.288ZM200.584 108.656C200.584 109.76 201.368 110.4 202.44 110.4C203.528 110.4 204.312 109.76 204.312 108.656C204.312 107.568 203.528 106.928 202.44 106.928C201.368 106.928 200.584 107.568 200.584 108.656ZM208.584 109.504H206.232C205.832 111.088 204.328 112.144 202.44 112.144C200.232 112.144 198.568 110.688 198.568 108.656C198.568 106.64 200.232 105.184 202.44 105.184C204.328 105.184 205.816 106.224 206.216 107.792H208.584V104.64H210.696V112.432H208.584V109.504ZM203.432 117.632V116.24H201.944V117.632H203.432ZM209.736 113.152V114.256C209.736 115.776 210.44 117.168 212.232 117.792L211.192 119.36C209.96 118.912 209.144 118.08 208.664 117.056C208.184 118.064 207.384 118.896 206.2 119.36L205.368 118.096V119.2H199.992V113.28H201.944V114.72H203.432V113.28H205.368V117.696C206.984 116.944 207.656 115.584 207.656 114.256V113.152H209.736ZM217.126 114.272C218.214 114.272 218.934 113.104 218.934 110.912C218.934 108.736 218.214 107.568 217.126 107.568C216.054 107.568 215.334 108.736 215.334 110.912C215.334 113.104 216.054 114.272 217.126 114.272ZM223.35 104.624H225.462V119.408H223.35V111.648H220.902C220.678 114.464 219.174 116.192 217.126 116.192C214.934 116.192 213.318 114.16 213.318 110.912C213.318 107.68 214.934 105.664 217.126 105.664C219.11 105.664 220.598 107.28 220.886 109.936H223.35V104.624ZM232.853 113.136V115.952H236.101V113.136C235.589 113.232 235.045 113.28 234.469 113.28C233.893 113.28 233.365 113.232 232.853 113.136ZM234.469 107.024C232.421 107.024 231.061 107.856 231.061 109.328C231.061 110.784 232.421 111.632 234.469 111.632C236.517 111.632 237.893 110.784 237.893 109.328C237.893 107.856 236.517 107.024 234.469 107.024ZM238.197 115.952H241.157V117.664H227.813V115.952H230.757V112.352C229.637 111.664 228.965 110.608 228.981 109.328C228.981 106.912 231.301 105.36 234.469 105.36C237.653 105.36 239.973 106.912 239.973 109.328C239.973 110.608 239.301 111.664 238.197 112.352V115.952Z" fill="#27272A"/>
</svg>
