<svg width="358" height="168" viewBox="0 0 358 168" fill="none" xmlns="http://www.w3.org/2000/svg">
<mask id="path-1-inside-1_3698_81405" fill="white">
<path d="M0 8C0 3.58172 3.58172 0 8 0H350C354.418 0 358 3.58172 358 8V160C358 164.418 354.418 168 350 168H8C3.58173 168 0 164.418 0 160V8Z"/>
</mask>
<path d="M8 0V0.5H350V0V-0.5H8V0ZM358 8H357.5V160H358H358.5V8H358ZM350 168V167.5H8V168V168.5H350V168ZM0 160H0.5V8H0H-0.5V160H0ZM8 168V167.5C3.85787 167.5 0.5 164.142 0.5 160H0H-0.5C-0.5 164.694 3.30558 168.5 8 168.5V168ZM358 160H357.5C357.5 164.142 354.142 167.5 350 167.5V168V168.5C354.694 168.5 358.5 164.694 358.5 160H358ZM350 0V0.5C354.142 0.5 357.5 3.85786 357.5 8H358H358.5C358.5 3.30558 354.694 -0.5 350 -0.5V0ZM8 0V-0.5C3.30558 -0.5 -0.5 3.30558 -0.5 8H0H0.5C0.5 3.85786 3.85786 0.5 8 0.5V0Z" fill="#E4E4E7" mask="url(#path-1-inside-1_3698_81405)"/>
<path d="M175.667 67.3337L182.334 60.667M175.667 60.667L182.334 67.3337M165.667 60.0003C166.728 60.0003 167.745 60.4218 168.495 61.1719C169.246 61.922 169.667 62.9395 169.667 64.0003C169.667 65.0612 169.246 66.0786 168.495 66.8288C167.745 67.5789 166.728 68.0003 165.667 68.0003V70.667C165.667 71.3742 165.948 72.0525 166.448 72.5526C166.948 73.0527 167.626 73.3337 168.334 73.3337H189.667C190.374 73.3337 191.053 73.0527 191.553 72.5526C192.053 72.0525 192.334 71.3742 192.334 70.667V68.0003C191.273 68.0003 190.255 67.5789 189.505 66.8288C188.755 66.0786 188.334 65.0612 188.334 64.0003C188.334 62.9395 188.755 61.922 189.505 61.1719C190.255 60.4218 191.273 60.0003 192.334 60.0003V57.3337C192.334 56.6264 192.053 55.9481 191.553 55.448C191.053 54.9479 190.374 54.667 189.667 54.667H168.334C167.626 54.667 166.948 54.9479 166.448 55.448C165.948 55.9481 165.667 56.6264 165.667 57.3337V60.0003Z" stroke="#A1A1AA" stroke-width="2" stroke-linecap="round" stroke-linejoin="round"/>
<path d="M89.0079 110.784C90.3839 110.784 91.3599 109.28 91.3599 106.944C91.3599 104.624 90.3839 103.12 89.0079 103.12C87.6159 103.12 86.6399 104.624 86.6399 106.944C86.6399 109.28 87.6159 110.784 89.0079 110.784ZM89.0079 101.936C91.1199 101.936 92.6079 103.888 92.6079 106.944C92.6079 110 91.1199 111.952 89.0079 111.952C86.8959 111.952 85.3919 110 85.3919 106.944C85.3919 103.888 86.8959 101.936 89.0079 101.936ZM98.5919 106.56V107.664H96.2239V115.184H94.9119V100.848H96.2239V106.56H98.5919ZM108.671 107.84L108.031 108.88C106.383 108.304 105.071 107.12 104.415 105.616C103.807 107.248 102.479 108.528 100.783 109.152L100.095 108.128C102.271 107.36 103.727 105.488 103.727 103.472V102.896H100.447V101.84H108.319V102.896H105.071V103.472C105.071 105.392 106.559 107.136 108.671 107.84ZM102.079 111.328V110.272H111.679V115.184H110.367V111.328H102.079ZM110.367 100.832H111.679V109.52H110.367V100.832ZM124.808 106.64V104.496H120.744V106.64H124.808ZM126.088 101.424V107.696H119.448V101.424H120.744V103.488H124.808V101.424H126.088ZM122.2 112.416V113.984H130.52V115.024H120.92V111.44H128.696V109.968H120.872V108.928H129.992V112.416H122.2ZM129.992 103.92H132.12V105.008H129.992V108.256H128.68V100.848H129.992V103.92ZM143.607 113.936V111.968H136.551V113.936H143.607ZM143.607 110.944V109.056H144.903V114.992H135.255V109.056H136.551V110.944H143.607ZM144.535 106.688H146.599V107.76H133.559V106.688H143.223C143.623 104.928 143.623 103.648 143.623 102.56H135.223V101.488H144.919V102.528C144.919 103.632 144.919 104.912 144.535 106.688ZM160.037 100.832V111.568H158.725V100.832H160.037ZM157.573 108.288L157.669 109.232C154.629 109.664 151.221 109.76 148.549 109.76L148.357 108.688C149.605 108.688 150.997 108.672 152.405 108.624V106.592H149.637V101.76H156.469V102.832H150.949V105.536H156.565V106.592H153.717V108.576C155.045 108.512 156.341 108.432 157.573 108.288ZM152.069 113.792H160.517V114.864H150.757V110.864H152.069V113.792ZM169.39 107.28V110.64C171.742 110.64 173.854 110.528 176.366 110.128L176.494 111.2C173.902 111.632 171.726 111.728 169.262 111.728H168.078V106.224H173.358V103.232H168.03V102.16H174.686V107.28H169.39ZM177.71 100.816H179.022V115.2H177.71V100.816ZM186.589 102.56C185.197 102.56 184.221 103.296 184.221 104.368C184.221 105.472 185.197 106.192 186.589 106.192C187.981 106.192 188.957 105.472 188.957 104.368C188.957 103.296 187.981 102.56 186.589 102.56ZM186.589 107.2C184.461 107.2 182.989 106.064 182.989 104.368C182.989 102.688 184.461 101.552 186.589 101.552C188.717 101.552 190.189 102.688 190.189 104.368C190.189 106.064 188.717 107.2 186.589 107.2ZM191.357 107.92L191.437 108.896C190.029 109.136 188.589 109.28 187.181 109.36V114.752H185.869V109.424C184.509 109.472 183.213 109.488 182.077 109.488L181.917 108.384C184.621 108.384 188.237 108.368 191.357 107.92ZM192.445 100.848H193.757V115.2H192.445V111.664H189.197V110.64H192.445V100.848ZM208.188 107.712V108.784H198.332V102.144H208.044V103.232H199.628V107.712H208.188ZM196.668 112.16H209.692V113.248H196.668V112.16ZM212.171 102.368H218.731C218.731 106.448 216.859 110.144 212.219 112.464L211.499 111.44C215.163 109.6 217.131 106.848 217.435 103.456H212.171V102.368ZM224.747 106.656V107.744H222.443V115.184H221.131V100.832H222.443V106.656H224.747ZM235.748 113.968V112.032H233.22V113.968H235.748ZM235.748 111.056V109.248H236.964V114.992H231.988V109.248H233.22V111.056H235.748ZM234.276 106.992C235.7 106.992 236.724 106.064 236.724 104.768C236.724 103.472 235.7 102.56 234.276 102.56C232.852 102.56 231.828 103.472 231.828 104.768C231.828 106.064 232.852 106.992 234.276 106.992ZM240.852 105.28H237.94C237.684 106.96 236.244 108.08 234.276 108.08C232.132 108.08 230.58 106.736 230.58 104.768C230.58 102.8 232.132 101.472 234.276 101.472C236.212 101.472 237.652 102.56 237.924 104.208H240.852V100.848H242.18V108.432H240.852V105.28ZM241.028 109.152V110.368C241.028 111.888 241.924 113.456 243.636 114.128L242.98 115.12C241.684 114.576 240.82 113.6 240.388 112.416C239.924 113.584 239.06 114.576 237.812 115.12L237.14 114.128C238.852 113.392 239.748 111.84 239.748 110.368V109.152H241.028ZM248.915 110.784C250.275 110.784 251.235 109.28 251.235 106.944C251.235 104.624 250.275 103.12 248.915 103.12C247.539 103.12 246.579 104.624 246.579 106.944C246.579 109.28 247.539 110.784 248.915 110.784ZM255.587 100.832H256.899V115.216H255.587V107.376H252.467C252.339 110.192 250.915 111.952 248.915 111.952C246.819 111.952 245.331 110 245.331 106.944C245.331 103.888 246.819 101.936 248.915 101.936C250.851 101.936 252.259 103.616 252.467 106.304H255.587V100.832ZM264.289 108.88V112.256H268.289V108.88C267.681 109.024 266.993 109.104 266.273 109.104C265.569 109.104 264.881 109.024 264.289 108.88ZM266.273 102.768C263.969 102.768 262.321 103.824 262.321 105.424C262.321 107.024 263.969 108.08 266.273 108.08C268.577 108.08 270.241 107.024 270.241 105.424C270.241 103.824 268.577 102.768 266.273 102.768ZM269.601 112.256H272.817V113.344H259.777V112.256H262.977V108.384C261.777 107.76 261.057 106.72 261.057 105.424C261.057 103.184 263.233 101.744 266.273 101.744C269.329 101.744 271.489 103.184 271.489 105.424C271.489 106.72 270.785 107.744 269.601 108.368V112.256Z" fill="#A1A1AA"/>
</svg>
